<svg xmlns="http://www.w3.org/2000/svg" xmlns:xlink="http://www.w3.org/1999/xlink" width="250" zoomAndPan="magnify" viewBox="0 0 187.5 187.499992" height="250" preserveAspectRatio="xMidYMid meet" version="1.0"><defs><clipPath id="cbaa628e3f"><path d="M 8.328125 4.777344 L 178.871094 4.777344 L 178.871094 182.054688 L 8.328125 182.054688 Z M 8.328125 4.777344 " clip-rule="nonzero"/></clipPath></defs><path fill="#872341" d="M 58.734375 88.285156 L 77.851562 88.285156 C 79.773438 88.285156 81.328125 86.726562 81.328125 84.808594 C 81.328125 82.890625 79.773438 81.332031 77.851562 81.332031 L 58.734375 81.332031 C 56.8125 81.332031 55.257812 82.890625 55.257812 84.808594 C 55.257812 86.726562 56.8125 88.285156 58.734375 88.285156 Z M 58.734375 88.285156 " fill-opacity="1" fill-rule="nonzero"/><path fill="#872341" d="M 48.304688 84.808594 C 48.304688 82.890625 46.746094 81.332031 44.828125 81.332031 L 25.707031 81.332031 C 23.789062 81.332031 22.234375 82.890625 22.234375 84.808594 C 22.234375 86.726562 23.789062 88.285156 25.707031 88.285156 L 44.828125 88.285156 C 46.746094 88.285156 48.304688 86.726562 48.304688 84.808594 Z M 48.304688 84.808594 " fill-opacity="1" fill-rule="nonzero"/><g clip-path="url(#cbaa628e3f)"><path fill="#872341" d="M 178.664062 39.617188 C 178.664062 20.449219 163.070312 4.855469 143.898438 4.855469 C 141.953125 4.855469 60.1875 4.855469 56.996094 4.855469 C 49.328125 4.855469 43.089844 11.09375 43.089844 18.761719 L 43.089844 53.523438 L 11.804688 53.523438 C 9.882812 53.523438 8.328125 55.078125 8.328125 57 L 8.328125 98.714844 C 8.328125 100.632812 9.882812 102.191406 11.804688 102.191406 L 43.089844 102.191406 L 43.089844 168.238281 C 43.089844 175.90625 49.328125 182.144531 56.996094 182.144531 L 136.949219 182.144531 C 144.613281 182.144531 150.851562 175.90625 150.851562 168.238281 L 150.851562 73.679688 C 166.699219 70.453125 178.664062 56.40625 178.664062 39.617188 Z M 56.996094 11.808594 L 123.066406 11.808594 C 116.386719 16.824219 111.5625 24.1875 109.835938 32.664062 L 50.042969 32.664062 L 50.042969 18.761719 C 50.042969 14.925781 53.160156 11.808594 56.996094 11.808594 Z M 88.28125 60.476562 L 88.28125 67.425781 L 15.28125 67.425781 L 15.28125 60.476562 Z M 15.28125 74.378906 L 88.28125 74.378906 L 88.28125 95.238281 L 15.28125 95.238281 Z M 136.949219 175.191406 L 56.996094 175.191406 C 53.160156 175.191406 50.042969 172.070312 50.042969 168.238281 L 50.042969 154.332031 L 143.898438 154.332031 L 143.898438 168.238281 C 143.898438 172.070312 140.78125 175.191406 136.949219 175.191406 Z M 143.898438 147.378906 L 50.042969 147.378906 L 50.042969 102.191406 L 91.757812 102.191406 C 93.675781 102.191406 95.234375 100.632812 95.234375 98.714844 L 95.234375 57 C 95.234375 55.078125 93.675781 53.523438 91.757812 53.523438 L 50.042969 53.523438 L 50.042969 39.617188 L 109.136719 39.617188 C 109.136719 58.785156 124.730469 74.378906 143.898438 74.378906 Z M 143.898438 67.425781 C 128.566406 67.425781 116.089844 54.953125 116.089844 39.617188 C 116.089844 24.285156 128.566406 11.808594 143.898438 11.808594 C 159.234375 11.808594 171.710938 24.285156 171.710938 39.617188 C 171.710938 54.953125 159.234375 67.425781 143.898438 67.425781 Z M 143.898438 67.425781 " fill-opacity="1" fill-rule="nonzero"/></g><path fill="#872341" d="M 154.476562 28.035156 L 138.6875 43.828125 L 133.324219 38.464844 C 131.964844 37.105469 129.765625 37.105469 128.40625 38.464844 C 127.046875 39.820312 127.046875 42.023438 128.40625 43.378906 L 136.226562 51.199219 C 137.585938 52.558594 139.785156 52.558594 141.144531 51.199219 L 159.394531 32.949219 C 160.75 31.59375 160.75 29.390625 159.394531 28.035156 C 158.035156 26.675781 155.835938 26.675781 154.476562 28.035156 Z M 154.476562 28.035156 " fill-opacity="1" fill-rule="nonzero"/><path fill="#872341" d="M 105.660156 161.285156 L 88.28125 161.285156 C 86.359375 161.285156 84.804688 162.84375 84.804688 164.761719 C 84.804688 166.679688 86.359375 168.238281 88.28125 168.238281 L 105.660156 168.238281 C 107.582031 168.238281 109.136719 166.679688 109.136719 164.761719 C 109.136719 162.84375 107.582031 161.285156 105.660156 161.285156 Z M 105.660156 161.285156 " fill-opacity="1" fill-rule="nonzero"/><path fill="#872341" d="M 84.804688 25.710938 L 102.1875 25.710938 C 104.105469 25.710938 105.660156 24.15625 105.660156 22.238281 C 105.660156 20.316406 104.105469 18.761719 102.1875 18.761719 L 84.804688 18.761719 C 82.882812 18.761719 81.328125 20.316406 81.328125 22.238281 C 81.328125 24.15625 82.882812 25.710938 84.804688 25.710938 Z M 84.804688 25.710938 " fill-opacity="1" fill-rule="nonzero"/></svg>