<svg xmlns="http://www.w3.org/2000/svg" xmlns:xlink="http://www.w3.org/1999/xlink" width="250" zoomAndPan="magnify" viewBox="0 0 187.5 187.499992" height="250" preserveAspectRatio="xMidYMid meet" version="1.0"><defs><clipPath id="adf863feb7"><path d="M 2.867188 3.144531 L 183.886719 3.144531 L 183.886719 183 L 2.867188 183 Z M 2.867188 3.144531 " clip-rule="nonzero"/></clipPath></defs><g clip-path="url(#adf863feb7)"><path fill="#ffffff" d="M 183.570312 93.496094 C 183.570312 43.597656 143.117188 3.144531 93.21875 3.144531 C 43.320312 3.144531 2.867188 43.597656 2.867188 93.496094 C 2.867188 138.59375 35.910156 175.96875 79.101562 182.75 L 79.101562 119.613281 L 56.160156 119.613281 L 56.160156 93.496094 L 79.101562 93.496094 L 79.101562 73.589844 C 79.101562 50.945312 92.589844 38.4375 113.230469 38.4375 C 123.113281 38.4375 133.453125 40.203125 133.453125 40.203125 L 133.453125 62.4375 L 122.0625 62.4375 C 110.835938 62.4375 107.335938 69.402344 107.335938 76.546875 L 107.335938 93.496094 L 132.394531 93.496094 L 128.390625 119.613281 L 107.335938 119.613281 L 107.335938 182.75 C 150.53125 175.96875 183.570312 138.59375 183.570312 93.496094 " fill-opacity="1" fill-rule="nonzero"/></g><path fill="#872341" d="M 128.390625 119.613281 L 132.394531 93.496094 L 107.335938 93.496094 L 107.335938 76.546875 C 107.335938 69.402344 110.835938 62.4375 122.0625 62.4375 L 133.453125 62.4375 L 133.453125 40.203125 C 133.453125 40.203125 123.113281 38.4375 113.230469 38.4375 C 92.589844 38.4375 79.101562 50.945312 79.101562 73.589844 L 79.101562 93.496094 L 56.160156 93.496094 L 56.160156 119.613281 L 79.101562 119.613281 L 79.101562 182.75 C 83.703125 183.46875 88.417969 183.847656 93.21875 183.847656 C 98.023438 183.847656 102.738281 183.46875 107.335938 182.75 L 107.335938 119.613281 L 128.390625 119.613281 " fill-opacity="1" fill-rule="nonzero"/></svg>