<svg xmlns="http://www.w3.org/2000/svg" xmlns:xlink="http://www.w3.org/1999/xlink" width="250" zoomAndPan="magnify" viewBox="0 0 187.5 187.499992" height="250" preserveAspectRatio="xMidYMid meet" version="1.0"><defs><clipPath id="4c7328c60f"><path d="M 5.351562 5.351562 L 181.878906 5.351562 L 181.878906 181.878906 L 5.351562 181.878906 Z M 5.351562 5.351562 " clip-rule="nonzero"/></clipPath></defs><g clip-path="url(#4c7328c60f)"><path fill="#ffffff" d="M 179.929688 76.695312 C 178.847656 71.121094 177.222656 65.628906 175.089844 60.382812 C 172.917969 55.03125 170.203125 49.878906 167.023438 45.058594 C 163.757812 40.121094 159.960938 35.476562 155.738281 31.253906 C 151.515625 27.03125 146.871094 23.234375 141.933594 19.972656 C 137.113281 16.789062 131.957031 14.074219 126.609375 11.90625 C 121.359375 9.773438 115.871094 8.144531 110.296875 7.066406 C 104.777344 5.996094 99.121094 5.453125 93.492188 5.453125 C 87.863281 5.453125 82.210938 5.996094 76.691406 7.066406 C 71.117188 8.144531 65.628906 9.773438 60.378906 11.902344 C 55.03125 14.074219 49.875 16.789062 45.058594 19.972656 C 40.117188 23.234375 35.472656 27.03125 31.25 31.253906 C 27.027344 35.476562 23.234375 40.121094 19.96875 45.0625 C 16.789062 49.878906 14.074219 55.035156 11.902344 60.382812 C 9.773438 65.632812 8.144531 71.121094 7.066406 76.695312 C 5.996094 82.21875 5.453125 87.871094 5.453125 93.5 C 5.453125 99.128906 5.996094 104.78125 7.066406 110.300781 C 8.144531 115.878906 9.773438 121.367188 11.90625 126.613281 C 14.074219 131.964844 16.789062 137.117188 19.972656 141.9375 C 23.234375 146.875 27.03125 151.519531 31.25 155.742188 C 35.472656 159.964844 40.121094 163.761719 45.058594 167.023438 C 49.878906 170.207031 55.035156 172.921875 60.382812 175.089844 C 65.632812 177.222656 71.121094 178.851562 76.695312 179.929688 C 82.214844 181 87.871094 181.542969 93.5 181.542969 C 99.128906 181.542969 104.78125 181 110.300781 179.933594 C 115.875 178.851562 121.363281 177.222656 126.613281 175.09375 C 131.960938 172.921875 137.117188 170.207031 141.933594 167.023438 C 146.875 163.761719 151.519531 159.964844 155.742188 155.742188 C 159.960938 151.519531 163.757812 146.875 167.019531 141.933594 C 170.203125 137.117188 172.917969 131.960938 175.089844 126.613281 C 177.21875 121.363281 178.847656 115.875 179.929688 110.300781 C 181 104.78125 181.542969 99.125 181.542969 93.496094 C 181.542969 87.867188 181 82.214844 179.929688 76.695312 Z M 179.929688 76.695312 " fill-opacity="1" fill-rule="nonzero"/></g><path fill="#ffffff" d="M 176.800781 77.300781 C 175.757812 71.929688 174.1875 66.640625 172.136719 61.582031 C 170.042969 56.425781 167.429688 51.460938 164.363281 46.816406 C 161.214844 42.058594 157.558594 37.578125 153.484375 33.507812 C 149.414062 29.4375 144.9375 25.777344 140.175781 22.632812 C 135.53125 19.566406 130.5625 16.949219 125.410156 14.859375 C 120.351562 12.804688 115.0625 11.238281 109.6875 10.195312 C 104.367188 9.164062 98.917969 8.640625 93.492188 8.640625 C 88.066406 8.640625 82.617188 9.164062 77.296875 10.195312 C 71.925781 11.234375 66.636719 12.804688 61.578125 14.859375 C 56.425781 16.949219 51.457031 19.566406 46.816406 22.632812 C 42.054688 25.777344 37.578125 29.4375 33.503906 33.507812 C 29.433594 37.578125 25.777344 42.058594 22.632812 46.820312 C 19.5625 51.460938 16.949219 56.429688 14.859375 61.582031 C 12.804688 66.640625 11.234375 71.929688 10.195312 77.304688 C 9.164062 82.625 8.640625 88.074219 8.640625 93.5 C 8.640625 98.925781 9.164062 104.375 10.195312 109.695312 C 11.238281 115.066406 12.804688 120.355469 14.859375 125.417969 C 16.949219 130.570312 19.566406 135.535156 22.632812 140.179688 C 25.777344 144.9375 29.433594 149.417969 33.507812 153.488281 C 37.578125 157.558594 42.054688 161.21875 46.816406 164.363281 C 51.460938 167.429688 56.425781 170.046875 61.582031 172.136719 C 66.640625 174.191406 71.929688 175.757812 77.300781 176.800781 C 82.625 177.832031 88.074219 178.355469 93.5 178.355469 C 98.925781 178.355469 104.375 177.832031 109.695312 176.800781 C 115.066406 175.761719 120.355469 174.191406 125.414062 172.136719 C 130.566406 170.046875 135.535156 167.429688 140.175781 164.363281 C 144.9375 161.21875 149.414062 157.558594 153.484375 153.488281 C 157.558594 149.417969 161.214844 144.9375 164.359375 140.175781 C 167.429688 135.535156 170.042969 130.566406 172.136719 125.414062 C 174.1875 120.355469 175.757812 115.066406 176.796875 109.691406 C 177.828125 104.371094 178.351562 98.921875 178.351562 93.496094 C 178.351562 88.070312 177.832031 82.621094 176.800781 77.300781 Z M 176.800781 77.300781 " fill-opacity="1" fill-rule="nonzero"/><path fill="#872341" d="M 36.726562 150.265625 C 5.355469 118.890625 5.351562 68.109375 36.726562 36.730469 C 68.101562 5.351562 118.886719 5.355469 150.265625 36.730469 C 181.644531 68.105469 181.640625 118.886719 150.265625 150.265625 C 118.890625 181.644531 68.105469 181.644531 36.726562 150.265625 Z M 93.496094 18.730469 C 52.269531 18.730469 18.726562 52.273438 18.726562 93.5 C 18.726562 134.722656 52.269531 168.265625 93.496094 168.265625 C 134.722656 168.265625 168.265625 134.722656 168.265625 93.5 C 168.265625 52.273438 134.722656 18.730469 93.496094 18.730469 Z M 93.496094 18.730469 " fill-opacity="1" fill-rule="nonzero"/><path fill="#872341" d="M 119.996094 69.746094 C 114.925781 68.753906 114.945312 61.539062 119.996094 60.445312 C 124.601562 59.519531 127.574219 65.230469 124.273438 68.445312 C 123.152344 69.566406 121.550781 70.054688 119.996094 69.746094 Z M 119.996094 69.746094 " fill-opacity="1" fill-rule="nonzero"/><path fill="#872341" d="M 119.984375 141.066406 L 67.007812 141.066406 C 55.371094 141.050781 45.941406 131.625 45.925781 119.988281 L 45.925781 67.007812 C 45.941406 55.371094 55.371094 45.945312 67.007812 45.929688 L 119.984375 45.929688 C 131.621094 45.945312 141.050781 55.371094 141.066406 67.007812 L 141.066406 119.988281 C 141.050781 131.625 131.621094 141.050781 119.984375 141.066406 Z M 67.007812 51.441406 C 58.414062 51.449219 51.449219 58.414062 51.4375 67.007812 L 51.4375 119.988281 C 51.449219 128.582031 58.414062 135.546875 67.007812 135.554688 L 119.984375 135.554688 C 128.578125 135.546875 135.542969 128.582031 135.550781 119.988281 L 135.550781 67.007812 C 135.542969 58.414062 128.578125 51.449219 119.984375 51.441406 Z M 67.007812 51.441406 " fill-opacity="1" fill-rule="nonzero"/><path fill="#872341" d="M 93.496094 118.941406 C 79.445312 118.941406 68.054688 107.550781 68.054688 93.5 C 68.054688 79.445312 79.445312 68.054688 93.496094 68.054688 C 107.546875 68.054688 118.9375 79.445312 118.9375 93.5 C 118.921875 107.542969 107.539062 118.921875 93.496094 118.941406 Z M 93.496094 73.570312 C 82.488281 73.570312 73.566406 82.492188 73.566406 93.5 C 73.566406 104.503906 82.488281 113.425781 93.496094 113.425781 C 104.503906 113.425781 113.425781 104.503906 113.425781 93.5 C 113.410156 82.496094 104.496094 73.582031 93.496094 73.570312 Z M 93.496094 73.570312 " fill-opacity="1" fill-rule="nonzero"/></svg>