<svg xmlns="http://www.w3.org/2000/svg" xmlns:xlink="http://www.w3.org/1999/xlink" width="250" zoomAndPan="magnify" viewBox="0 0 187.5 187.499992" height="250" preserveAspectRatio="xMidYMid meet" version="1.0"><defs><clipPath id="ec22102815"><path d="M 0.90625 0 L 185.664062 0 L 185.664062 184.757812 L 0.90625 184.757812 Z M 0.90625 0 " clip-rule="nonzero"/></clipPath><clipPath id="0f30e21a76"><path d="M 93.285156 0 C 42.265625 0 0.90625 41.359375 0.90625 92.378906 C 0.90625 143.398438 42.265625 184.757812 93.285156 184.757812 C 144.304688 184.757812 185.664062 143.398438 185.664062 92.378906 C 185.664062 41.359375 144.304688 0 93.285156 0 Z M 93.285156 0 " clip-rule="nonzero"/></clipPath><clipPath id="b3c2c7a61f"><path d="M 22.667969 10 L 161.796875 10 L 161.796875 148.769531 L 22.667969 148.769531 Z M 22.667969 10 " clip-rule="nonzero"/></clipPath></defs><g clip-path="url(#ec22102815)"><g clip-path="url(#0f30e21a76)"><path fill="#872341" d="M 0.90625 0 L 185.664062 0 L 185.664062 184.757812 L 0.90625 184.757812 Z M 0.90625 0 " fill-opacity="1" fill-rule="nonzero"/></g></g><g clip-path="url(#b3c2c7a61f)"><path fill="#ffffff" d="M 159.195312 144.21875 L 157.03125 144.21875 L 157.03125 33.765625 C 157.03125 31.386719 155.355469 28.488281 153.292969 27.289062 C 153.292969 27.289062 137.722656 19.488281 137.691406 19.472656 C 135.496094 18.371094 132.625 18.484375 130.726562 20.164062 L 123.476562 26.597656 C 121.691406 28.179688 120.246094 31.386719 120.246094 33.765625 L 120.246094 81.625 C 120.246094 81.625 123.523438 80.136719 124.574219 80.011719 L 124.574219 33.765625 C 124.574219 32.621094 125.484375 30.597656 126.347656 29.832031 L 132.148438 24.6875 L 132.148438 80.835938 L 136.476562 82.871094 L 136.476562 75.613281 L 152.703125 84.152344 L 152.703125 92.246094 L 147.359375 89.433594 C 147.984375 90.492188 148.375 94.855469 148.375 94.855469 L 152.703125 97.132812 L 152.703125 105.226562 L 148.375 102.949219 L 148.375 107.835938 L 152.703125 110.113281 L 152.703125 118.207031 L 148.375 115.929688 L 148.375 120.816406 L 152.703125 123.09375 L 152.703125 131.1875 L 148.375 128.910156 L 148.375 133.796875 L 152.703125 136.074219 L 152.703125 144.21875 L 144.046875 144.21875 L 144.046875 96.484375 C 144.046875 94.09375 142.289062 91.34375 140.121094 90.339844 L 129.585938 85.464844 C 128.570312 84.992188 127.273438 84.761719 125.960938 84.761719 C 124.464844 84.761719 122.953125 85.0625 121.824219 85.65625 L 113.261719 90.144531 C 111.144531 91.257812 109.429688 94.09375 109.429688 96.484375 L 109.429688 144.21875 L 105.101562 144.21875 L 105.101562 25.195312 C 105.101562 22.804688 103.429688 19.886719 101.367188 18.683594 C 101.367188 18.683594 87.929688 10.824219 87.929688 10.824219 C 85.824219 9.59375 82.78125 9.910156 80.964844 11.519531 L 73.710938 17.988281 C 71.929688 19.578125 70.484375 22.804688 70.484375 25.195312 L 70.484375 144.21875 L 66.15625 144.21875 L 66.15625 45.582031 C 66.15625 43.175781 64.429688 40.335938 62.304688 39.242188 C 62.304688 39.242188 53.101562 34.503906 53.101562 34.503906 C 51.394531 33.621094 49.117188 33.652344 47.394531 34.492188 C 46.925781 34.71875 46.375 35.03125 46.003906 35.402344 L 30.453125 49.226562 C 28.664062 50.820312 27.210938 54.0625 27.210938 56.46875 L 27.210938 144.21875 L 25.046875 144.21875 C 23.851562 144.21875 22.882812 145.1875 22.882812 146.382812 C 22.882812 147.578125 23.851562 148.546875 25.046875 148.546875 L 159.195312 148.546875 C 160.390625 148.546875 161.359375 147.578125 161.359375 146.382812 C 161.359375 145.1875 160.390625 144.21875 159.195312 144.21875 Z M 47.765625 144.21875 L 40.589844 144.21875 L 47.765625 138.148438 Z M 47.765625 132.484375 L 33.925781 144.191406 L 33.949219 144.21875 L 31.539062 144.21875 L 31.539062 138.351562 L 47.765625 124.558594 Z M 47.765625 118.882812 L 31.539062 132.675781 L 31.539062 124.289062 L 47.765625 110.496094 Z M 47.765625 104.820312 L 31.539062 118.613281 L 31.539062 110.226562 L 47.765625 96.433594 Z M 47.765625 90.757812 L 31.539062 104.550781 L 31.539062 96.164062 L 47.765625 82.371094 Z M 47.765625 76.695312 L 31.539062 90.488281 L 31.539062 82.101562 L 47.765625 68.308594 Z M 47.765625 62.632812 L 31.539062 76.425781 L 31.539062 68.039062 L 47.765625 54.25 Z M 47.765625 48.570312 L 31.539062 62.363281 L 31.539062 56.46875 C 31.539062 55.296875 32.460938 53.234375 33.328125 52.460938 L 47.765625 39.625 Z M 100.773438 144.21875 L 87.792969 144.21875 L 87.792969 133.316406 L 100.773438 140.617188 Z M 100.773438 135.652344 L 87.792969 128.351562 L 87.792969 120.335938 L 100.773438 127.636719 Z M 100.773438 122.671875 L 87.792969 115.371094 L 87.792969 107.355469 L 100.773438 114.65625 Z M 100.773438 109.691406 L 87.792969 102.390625 L 87.792969 94.375 L 100.773438 101.675781 Z M 100.773438 96.710938 L 87.792969 89.410156 L 87.792969 81.394531 L 100.773438 88.695312 Z M 100.773438 83.730469 L 87.792969 76.429688 L 87.792969 68.414062 L 100.773438 75.714844 Z M 100.773438 70.75 L 87.792969 63.449219 L 87.792969 55.433594 L 100.773438 62.734375 Z M 100.773438 57.769531 L 87.792969 50.46875 L 87.792969 42.453125 L 100.773438 49.753906 Z M 100.773438 44.789062 L 87.792969 37.488281 L 87.792969 29.472656 L 100.773438 36.773438 Z M 100.773438 31.808594 L 87.792969 24.507812 L 87.792969 15.757812 L 99.183594 22.417969 C 99.910156 22.84375 100.773438 24.347656 100.773438 25.195312 Z M 123.492188 89.664062 L 123.492188 144.21875 L 113.757812 144.21875 L 113.757812 96.484375 C 113.757812 95.699219 114.578125 94.34375 115.273438 93.976562 M 139.722656 144.21875 L 127.820312 144.21875 L 127.820312 89.414062 L 138.300781 94.265625 C 138.9375 94.558594 139.722656 95.78125 139.722656 96.484375 Z M 152.703125 79.265625 L 136.476562 70.722656 L 136.476562 62.632812 L 152.703125 71.171875 Z M 152.703125 66.285156 L 136.476562 57.742188 L 136.476562 49.652344 L 152.703125 58.191406 Z M 152.703125 53.304688 L 136.476562 44.761719 L 136.476562 36.671875 L 152.703125 45.210938 Z M 152.703125 40.324219 L 136.476562 31.78125 L 136.476562 23.703125 L 151.191406 31.074219 C 151.902344 31.550781 152.703125 32.960938 152.703125 33.765625 Z M 152.703125 40.324219 " fill-opacity="1" fill-rule="nonzero"/></g></svg>