<svg xmlns="http://www.w3.org/2000/svg" xmlns:xlink="http://www.w3.org/1999/xlink" width="250" zoomAndPan="magnify" viewBox="0 0 187.5 187.499992" height="250" preserveAspectRatio="xMidYMid meet" version="1.0"><defs><clipPath id="81df1a5d97"><path d="M 0.828125 0.828125 L 186.175781 0.828125 L 186.175781 186.175781 L 0.828125 186.175781 Z M 0.828125 0.828125 " clip-rule="nonzero"/></clipPath><clipPath id="8bbb43dbfb"><path d="M 93.5 0.828125 C 42.320312 0.828125 0.828125 42.320312 0.828125 93.5 C 0.828125 144.683594 42.320312 186.175781 93.5 186.175781 C 144.683594 186.175781 186.175781 144.683594 186.175781 93.5 C 186.175781 42.320312 144.683594 0.828125 93.5 0.828125 Z M 93.5 0.828125 " clip-rule="nonzero"/></clipPath><clipPath id="6ee02f3d65"><path d="M 24.65625 11.847656 L 162.289062 11.847656 L 162.289062 149.480469 L 24.65625 149.480469 Z M 24.65625 11.847656 " clip-rule="nonzero"/></clipPath></defs><g clip-path="url(#81df1a5d97)"><g clip-path="url(#8bbb43dbfb)"><path fill="#872341" d="M 0.828125 0.828125 L 186.175781 0.828125 L 186.175781 186.175781 L 0.828125 186.175781 Z M 0.828125 0.828125 " fill-opacity="1" fill-rule="nonzero"/></g></g><g clip-path="url(#6ee02f3d65)"><path fill="#ffffff" d="M 160.105469 149.515625 L 26.898438 149.515625 C 25.695312 149.515625 24.714844 148.539062 24.714844 147.332031 L 24.714844 134.890625 C 24.714844 114.1875 41.558594 97.34375 62.261719 97.34375 L 124.742188 97.34375 C 145.445312 97.34375 162.289062 114.1875 162.289062 134.890625 L 162.289062 147.332031 C 162.289062 148.539062 161.3125 149.515625 160.105469 149.515625 Z M 93.503906 91.472656 C 71.550781 91.472656 53.691406 73.613281 53.691406 51.660156 C 53.691406 29.707031 71.550781 11.847656 93.503906 11.847656 C 115.457031 11.847656 133.316406 29.707031 133.316406 51.660156 C 133.316406 73.613281 115.457031 91.472656 93.503906 91.472656 Z M 93.503906 91.472656 " fill-opacity="1" fill-rule="nonzero"/></g></svg>