<svg xmlns="http://www.w3.org/2000/svg" xmlns:xlink="http://www.w3.org/1999/xlink" width="250" zoomAndPan="magnify" viewBox="0 0 187.5 187.499992" height="250" preserveAspectRatio="xMidYMid meet" version="1.0"><defs><clipPath id="fa1942b9e3"><path d="M 3.867188 34 L 183.386719 34 L 183.386719 146 L 3.867188 146 Z M 3.867188 34 " clip-rule="nonzero"/></clipPath></defs><g clip-path="url(#fa1942b9e3)"><path fill="#ffffff" d="M 183.121094 135.953125 C 123.78125 103.613281 63.207031 168.292969 3.867188 135.953125 C 3.867188 105.230469 3.867188 74.511719 3.867188 43.789062 C 63.207031 76.128906 123.78125 11.449219 183.121094 43.789062 C 183.121094 74.511719 183.121094 105.230469 183.121094 135.953125 " fill-opacity="1" fill-rule="nonzero"/></g><path fill="#872341" d="M 9.753906 133.183594 C 66.089844 157.714844 120.898438 102.414062 177.234375 126.945312 C 177.230469 100.152344 177.230469 73.355469 177.234375 46.558594 C 120.898438 22.027344 66.089844 77.328125 9.753906 52.796875 C 9.753906 79.59375 9.753906 106.386719 9.753906 133.183594 Z M 179.195312 129.875 C 121.855469 102.832031 65.128906 161.222656 7.792969 134.179688 C 7.792969 106.074219 7.792969 77.972656 7.792969 49.867188 C 65.128906 76.914062 121.855469 18.519531 179.195312 45.5625 C 179.195312 73.667969 179.195312 101.769531 179.195312 129.875 " fill-opacity="1" fill-rule="nonzero"/><path fill="#872341" d="M 25.195312 61.261719 C 24.902344 61.199219 24.753906 61.164062 24.460938 61.097656 C 20.527344 60.199219 16.671875 58.964844 12.949219 57.410156 C 12.945312 57.410156 12.945312 57.410156 12.945312 57.410156 C 12.945312 66.28125 12.945312 75.152344 12.945312 84.023438 C 13.535156 84.269531 13.828125 84.386719 14.417969 84.621094 C 14.417969 84.617188 14.417969 84.617188 14.417969 84.617188 C 14.417969 79.824219 14.417969 75.027344 14.417969 70.234375 C 19.558594 71.761719 25.152344 68.453125 25.171875 62.730469 C 29.980469 63.640625 34.667969 64.183594 39.5625 64.421875 C 39.5625 63.835938 39.5625 63.539062 39.5625 62.953125 C 34.679688 62.714844 30 62.171875 25.195312 61.261719 " fill-opacity="1" fill-rule="nonzero"/><path fill="#872341" d="M 161.054688 117.589844 C 161.351562 117.648438 161.496094 117.679688 161.792969 117.746094 C 165.722656 118.597656 169.578125 119.789062 173.304688 121.292969 C 173.304688 121.296875 173.304688 121.296875 173.304688 121.296875 C 173.304688 112.421875 173.304688 103.550781 173.304688 94.679688 C 172.71875 94.441406 172.421875 94.328125 171.835938 94.105469 C 171.832031 94.105469 171.832031 94.105469 171.832031 94.105469 C 171.832031 98.902344 171.832031 103.695312 171.832031 108.492188 C 166.597656 106.75 161.152344 110.574219 161.082031 116.121094 C 156.265625 115.261719 151.578125 114.761719 146.691406 114.566406 C 146.691406 115.15625 146.691406 115.453125 146.691406 116.039062 C 151.570312 116.234375 156.25 116.730469 161.054688 117.589844 " fill-opacity="1" fill-rule="nonzero"/><path fill="#872341" d="M 146.691406 42.769531 C 151.570312 42.964844 156.25 43.460938 161.058594 44.320312 C 161.351562 44.378906 161.5 44.414062 161.792969 44.476562 C 165.722656 45.332031 169.578125 46.519531 173.304688 48.027344 C 173.304688 51.867188 173.304688 55.703125 173.304688 59.542969 C 173.304688 59.839844 173.304688 59.984375 173.304688 60.28125 C 173.304688 65.066406 173.304688 69.855469 173.304688 74.640625 C 172.71875 74.402344 172.421875 74.285156 171.835938 74.0625 C 171.835938 69.269531 171.835938 64.472656 171.835938 59.679688 C 166.519531 57.304688 161.335938 51.933594 161.082031 45.796875 C 156.269531 44.9375 151.578125 44.4375 146.691406 44.242188 C 146.691406 43.652344 146.691406 43.359375 146.691406 42.769531 " fill-opacity="1" fill-rule="nonzero"/><path fill="#872341" d="M 39.5625 136.21875 C 34.679688 135.984375 30 135.4375 25.195312 134.53125 C 24.902344 134.464844 24.753906 134.433594 24.460938 134.367188 C 20.527344 133.46875 16.671875 132.234375 12.949219 130.679688 C 12.949219 126.839844 12.949219 123 12.949219 119.160156 C 12.949219 118.867188 12.949219 118.71875 12.949219 118.425781 C 12.949219 113.636719 12.949219 108.851562 12.949219 104.066406 C 13.535156 104.3125 13.832031 104.429688 14.417969 104.660156 C 14.417969 109.457031 14.417969 114.25 14.417969 119.046875 C 19.921875 121.402344 24.707031 126.960938 25.171875 133.054688 C 29.980469 133.964844 34.667969 134.511719 39.5625 134.75 C 39.5625 135.335938 39.5625 135.632812 39.5625 136.21875 " fill-opacity="1" fill-rule="nonzero"/><path fill="#872341" d="M 47.019531 99.828125 C 47.003906 103.972656 43.292969 107.722656 39.191406 107.769531 C 34.789062 107.824219 31.453125 103.296875 31.363281 99.332031 C 31.273438 95.148438 35.09375 91.917969 39.191406 92.117188 C 43.105469 92.304688 47.035156 95.65625 47.019531 99.828125 " fill-opacity="1" fill-rule="nonzero"/><path fill="#872341" d="M 155.625 80.414062 C 155.550781 84.648438 151.878906 87.664062 147.796875 87.628906 C 143.625 87.589844 139.960938 83.839844 139.96875 79.914062 C 139.976562 76.066406 143.433594 71.640625 147.796875 71.972656 C 151.945312 72.285156 155.699219 76.121094 155.625 80.414062 " fill-opacity="1" fill-rule="nonzero"/><path fill="#872341" d="M 117.664062 83.304688 C 117.636719 98.25 108.691406 116.007812 93.492188 120.542969 C 78.117188 125.128906 69.300781 109.675781 69.324219 96.441406 C 69.351562 81.492188 78.296875 63.734375 93.492188 59.199219 C 108.832031 54.625 117.6875 70.046875 117.664062 83.304688 " fill-opacity="1" fill-rule="nonzero"/><path fill="#ffffff" d="M 95.226562 91.03125 C 95.226562 95.976562 95.226562 100.917969 95.226562 105.863281 C 96.976562 105.351562 98.628906 104.265625 100.1875 102.609375 C 101.746094 100.953125 102.523438 98.789062 102.523438 96.113281 C 102.523438 93.785156 101.609375 92.261719 99.78125 91.554688 C 97.953125 90.851562 96.433594 90.675781 95.226562 91.03125 Z M 84.253906 81.644531 C 84.253906 83.867188 85.289062 85.203125 87.363281 85.636719 C 89.4375 86.066406 90.984375 86.132812 91.996094 85.835938 C 91.996094 81.46875 91.996094 77.101562 91.996094 72.734375 C 90.019531 73.3125 88.234375 74.390625 86.644531 75.960938 C 85.050781 77.53125 84.253906 79.421875 84.253906 81.644531 Z M 107.144531 75.6875 C 105.085938 76.246094 104.058594 76.539062 102 77.125 C 102 77.039062 102 77 102 76.914062 C 102 76.84375 101.992188 76.746094 102 76.652344 C 102.007812 76.550781 102.011719 76.417969 102 76.285156 C 101.949219 75.769531 101.851562 75.164062 101.660156 74.515625 C 101.464844 73.875 101.105469 73.265625 100.582031 72.699219 C 99.390625 71.398438 97.605469 71.09375 95.226562 71.789062 C 95.226562 76.410156 95.226562 81.03125 95.226562 85.648438 C 95.820312 85.476562 97.363281 85.542969 99.847656 85.867188 C 102.332031 86.191406 104.195312 86.90625 105.4375 87.996094 C 107.152344 89.585938 108.011719 91.824219 108.011719 94.695312 C 108.011719 97.511719 107.261719 100.125 105.753906 102.53125 C 104.375 104.730469 102.628906 106.484375 100.53125 107.785156 C 98.429688 109.089844 96.660156 109.957031 95.226562 110.378906 C 95.226562 112.574219 95.226562 113.667969 95.226562 115.863281 C 93.933594 116.242188 93.289062 116.433594 91.996094 116.808594 C 91.996094 114.617188 91.996094 113.519531 91.996094 111.324219 C 88.78125 111.941406 85.445312 112.542969 82.414062 110.855469 C 79.535156 109.246094 79.449219 105.402344 79.1875 102.605469 C 81.214844 102.058594 82.226562 101.773438 84.253906 101.199219 C 84.234375 101.207031 84.226562 101.234375 84.226562 101.285156 C 84.226562 101.53125 84.355469 102.207031 84.570312 103.289062 C 84.84375 104.667969 85.292969 105.585938 85.960938 105.988281 C 87.78125 107.113281 89.792969 107.347656 91.996094 106.703125 C 91.996094 101.472656 91.996094 96.238281 91.996094 91.003906 C 91.648438 91.109375 90.789062 91.199219 89.425781 91.273438 C 88.058594 91.34375 86.574219 91.246094 84.960938 90.972656 C 83.351562 90.695312 81.929688 90.125 80.917969 89.246094 C 79.628906 88.121094 78.976562 86.082031 78.976562 83.421875 C 78.976562 80.375 79.917969 77.617188 81.785156 75.117188 C 84.320312 71.726562 87.929688 69.285156 91.996094 68.113281 C 91.996094 66.390625 91.996094 65.53125 91.996094 63.808594 C 93.289062 63.429688 93.933594 63.242188 95.226562 62.863281 C 95.226562 64.585938 95.226562 65.445312 95.226562 67.167969 C 96.207031 66.882812 97.578125 66.691406 99.335938 66.601562 C 101.09375 66.511719 102.699219 66.957031 104.152344 67.90625 C 106.136719 69.203125 107.144531 71.800781 107.144531 75.6875 " fill-opacity="1" fill-rule="nonzero"/></svg>