<svg xmlns="http://www.w3.org/2000/svg" xmlns:xlink="http://www.w3.org/1999/xlink" width="250" zoomAndPan="magnify" viewBox="0 0 187.5 187.499992" height="250" preserveAspectRatio="xMidYMid meet" version="1.0"><defs><clipPath id="f0a90b886e"><path d="M 4.167969 3.421875 L 183.6875 3.421875 L 183.6875 182.941406 L 4.167969 182.941406 Z M 4.167969 3.421875 " clip-rule="nonzero"/></clipPath></defs><g clip-path="url(#f0a90b886e)"><path fill="#872341" d="M 171.785156 48.390625 L 102.285156 48.390625 L 102.285156 23.863281 C 102.285156 23.191406 102.253906 22.523438 102.1875 21.859375 C 102.121094 21.191406 102.023438 20.53125 101.894531 19.875 C 101.761719 19.21875 101.601562 18.566406 101.40625 17.925781 C 101.210938 17.285156 100.988281 16.65625 100.730469 16.039062 C 100.472656 15.421875 100.1875 14.816406 99.871094 14.226562 C 99.558594 13.636719 99.214844 13.0625 98.839844 12.503906 C 98.46875 11.949219 98.070312 11.410156 97.644531 10.894531 C 97.222656 10.375 96.773438 9.878906 96.300781 9.40625 C 95.824219 8.933594 95.332031 8.484375 94.8125 8.058594 C 94.296875 7.636719 93.757812 7.238281 93.203125 6.863281 C 92.644531 6.492188 92.070312 6.148438 91.480469 5.832031 C 90.890625 5.519531 90.285156 5.230469 89.667969 4.976562 C 89.050781 4.71875 88.417969 4.496094 87.777344 4.300781 C 87.136719 4.105469 86.488281 3.945312 85.832031 3.8125 C 85.175781 3.683594 84.515625 3.585938 83.847656 3.519531 C 83.183594 3.453125 82.515625 3.421875 81.84375 3.421875 L 24.609375 3.421875 C 23.941406 3.421875 23.273438 3.453125 22.605469 3.519531 C 21.941406 3.585938 21.277344 3.683594 20.621094 3.8125 C 19.964844 3.945312 19.316406 4.105469 18.675781 4.300781 C 18.035156 4.496094 17.40625 4.71875 16.785156 4.976562 C 16.167969 5.230469 15.5625 5.519531 14.972656 5.832031 C 14.382812 6.148438 13.808594 6.492188 13.253906 6.863281 C 12.695312 7.238281 12.160156 7.636719 11.640625 8.058594 C 11.125 8.484375 10.628906 8.933594 10.15625 9.40625 C 9.683594 9.878906 9.234375 10.375 8.808594 10.894531 C 8.382812 11.410156 7.984375 11.949219 7.613281 12.503906 C 7.242188 13.0625 6.898438 13.636719 6.582031 14.226562 C 6.265625 14.816406 5.980469 15.421875 5.722656 16.039062 C 5.46875 16.65625 5.242188 17.285156 5.046875 17.925781 C 4.855469 18.566406 4.691406 19.21875 4.5625 19.875 C 4.429688 20.53125 4.332031 21.191406 4.265625 21.859375 C 4.199219 22.523438 4.167969 23.191406 4.167969 23.863281 L 4.167969 162.863281 C 4.167969 163.53125 4.199219 164.199219 4.265625 164.867188 C 4.332031 165.53125 4.429688 166.195312 4.5625 166.851562 C 4.691406 167.507812 4.855469 168.15625 5.046875 168.796875 C 5.242188 169.4375 5.46875 170.066406 5.722656 170.683594 C 5.980469 171.304688 6.265625 171.90625 6.582031 172.5 C 6.898438 173.089844 7.242188 173.664062 7.613281 174.21875 C 7.984375 174.777344 8.382812 175.3125 8.808594 175.832031 C 9.234375 176.347656 9.683594 176.84375 10.15625 177.316406 C 10.628906 177.789062 11.125 178.238281 11.640625 178.664062 C 12.160156 179.089844 12.695312 179.488281 13.253906 179.859375 C 13.808594 180.230469 14.382812 180.574219 14.972656 180.890625 C 15.5625 181.207031 16.167969 181.492188 16.785156 181.746094 C 17.40625 182.003906 18.035156 182.230469 18.675781 182.421875 C 19.316406 182.617188 19.964844 182.78125 20.621094 182.910156 C 21.277344 183.042969 21.941406 183.140625 22.605469 183.207031 C 23.273438 183.269531 23.941406 183.304688 24.609375 183.304688 L 81.84375 183.304688 C 82.515625 183.304688 83.183594 183.269531 83.847656 183.207031 C 84.515625 183.140625 85.175781 183.042969 85.832031 182.910156 C 86.488281 182.78125 87.136719 182.617188 87.777344 182.421875 C 88.417969 182.230469 89.050781 182.003906 89.667969 181.746094 C 90.285156 181.492188 90.890625 181.207031 91.480469 180.890625 C 92.070312 180.574219 92.644531 180.230469 93.203125 179.859375 C 93.757812 179.488281 94.296875 179.089844 94.8125 178.664062 C 95.332031 178.238281 95.824219 177.789062 96.300781 177.316406 C 96.773438 176.84375 97.222656 176.347656 97.644531 175.832031 C 98.070312 175.3125 98.46875 174.777344 98.839844 174.21875 C 99.214844 173.664062 99.558594 173.089844 99.871094 172.5 C 100.1875 171.90625 100.472656 171.304688 100.730469 170.683594 C 100.988281 170.066406 101.210938 169.4375 101.40625 168.796875 C 101.601562 168.15625 101.761719 167.507812 101.894531 166.851562 C 102.023438 166.195312 102.121094 165.53125 102.1875 164.867188 C 102.253906 164.199219 102.285156 163.53125 102.285156 162.863281 L 102.285156 138.332031 L 171.785156 138.332031 C 172.59375 138.332031 173.390625 138.253906 174.179688 138.097656 C 174.96875 137.941406 175.738281 137.707031 176.480469 137.398438 C 177.222656 137.089844 177.929688 136.714844 178.601562 136.265625 C 179.269531 135.816406 179.890625 135.308594 180.460938 134.742188 C 181.027344 134.171875 181.539062 133.550781 181.984375 132.882812 C 182.433594 132.210938 182.808594 131.503906 183.117188 130.761719 C 183.425781 130.015625 183.660156 129.25 183.816406 128.460938 C 183.972656 127.671875 184.050781 126.875 184.050781 126.066406 L 184.050781 60.65625 C 184.050781 59.851562 183.972656 59.054688 183.816406 58.261719 C 183.660156 57.472656 183.425781 56.707031 183.117188 55.960938 C 182.808594 55.21875 182.433594 54.511719 181.984375 53.839844 C 181.539062 53.171875 181.027344 52.550781 180.460938 51.984375 C 179.890625 51.414062 179.269531 50.90625 178.601562 50.457031 C 177.929688 50.011719 177.222656 49.632812 176.480469 49.324219 C 175.738281 49.015625 174.96875 48.785156 174.179688 48.625 C 173.390625 48.46875 172.59375 48.390625 171.785156 48.390625 Z M 175.875 60.65625 L 175.875 64.742188 L 53.226562 64.742188 L 53.226562 60.65625 C 53.226562 60.386719 53.253906 60.121094 53.304688 59.859375 C 53.359375 59.59375 53.4375 59.339844 53.539062 59.089844 C 53.640625 58.84375 53.765625 58.609375 53.917969 58.382812 C 54.066406 58.160156 54.234375 57.953125 54.425781 57.765625 C 54.613281 57.574219 54.820312 57.40625 55.042969 57.257812 C 55.265625 57.105469 55.503906 56.980469 55.75 56.878906 C 56 56.777344 56.253906 56.699219 56.519531 56.644531 C 56.78125 56.59375 57.046875 56.566406 57.316406 56.566406 L 171.785156 56.566406 C 172.054688 56.566406 172.320312 56.59375 172.585938 56.644531 C 172.847656 56.699219 173.101562 56.777344 173.351562 56.878906 C 173.597656 56.980469 173.835938 57.105469 174.058594 57.257812 C 174.28125 57.40625 174.488281 57.574219 174.675781 57.765625 C 174.867188 57.953125 175.035156 58.160156 175.1875 58.382812 C 175.335938 58.609375 175.460938 58.84375 175.5625 59.089844 C 175.667969 59.339844 175.746094 59.59375 175.796875 59.859375 C 175.847656 60.121094 175.875 60.386719 175.875 60.65625 Z M 175.875 77.007812 L 53.226562 77.007812 L 53.226562 72.921875 L 175.875 72.921875 Z M 24.609375 11.597656 L 81.84375 11.597656 C 82.472656 11.597656 83.097656 11.648438 83.71875 11.746094 C 84.339844 11.84375 84.953125 11.988281 85.550781 12.179688 C 86.148438 12.371094 86.730469 12.609375 87.292969 12.890625 C 87.855469 13.171875 88.394531 13.492188 88.90625 13.855469 C 89.417969 14.222656 89.902344 14.621094 90.351562 15.058594 C 90.804688 15.496094 91.21875 15.96875 91.597656 16.46875 C 91.976562 16.972656 92.316406 17.5 92.613281 18.054688 C 92.910156 18.605469 93.164062 19.179688 93.375 19.773438 L 13.082031 19.773438 C 13.289062 19.179688 13.542969 18.605469 13.839844 18.054688 C 14.140625 17.5 14.476562 16.972656 14.855469 16.46875 C 15.234375 15.96875 15.652344 15.496094 16.101562 15.058594 C 16.554688 14.621094 17.035156 14.222656 17.546875 13.855469 C 18.0625 13.492188 18.597656 13.171875 19.160156 12.890625 C 19.722656 12.609375 20.304688 12.371094 20.902344 12.179688 C 21.503906 11.988281 22.113281 11.84375 22.734375 11.746094 C 23.355469 11.648438 23.980469 11.597656 24.609375 11.597656 Z M 81.84375 175.128906 L 24.609375 175.128906 C 23.804688 175.128906 23.007812 175.046875 22.214844 174.890625 C 21.425781 174.734375 20.660156 174.5 19.914062 174.195312 C 19.171875 173.886719 18.464844 173.507812 17.796875 173.058594 C 17.125 172.613281 16.507812 172.105469 15.9375 171.535156 C 15.367188 170.964844 14.859375 170.347656 14.410156 169.675781 C 13.964844 169.007812 13.585938 168.300781 13.277344 167.554688 C 12.96875 166.8125 12.738281 166.042969 12.582031 165.253906 C 12.421875 164.464844 12.34375 163.667969 12.34375 162.863281 L 12.34375 158.773438 L 94.109375 158.773438 L 94.109375 162.863281 C 94.109375 163.667969 94.03125 164.464844 93.875 165.253906 C 93.71875 166.042969 93.484375 166.8125 93.175781 167.554688 C 92.867188 168.300781 92.492188 169.007812 92.042969 169.675781 C 91.59375 170.347656 91.085938 170.964844 90.519531 171.535156 C 89.949219 172.105469 89.328125 172.613281 88.660156 173.058594 C 87.988281 173.507812 87.28125 173.886719 86.539062 174.195312 C 85.792969 174.5 85.027344 174.734375 84.238281 174.890625 C 83.449219 175.046875 82.652344 175.128906 81.84375 175.128906 Z M 94.109375 150.597656 L 12.34375 150.597656 L 12.34375 27.949219 L 94.109375 27.949219 L 94.109375 48.390625 L 57.316406 48.390625 C 56.511719 48.390625 55.710938 48.46875 54.921875 48.625 C 54.132812 48.785156 53.367188 49.015625 52.621094 49.324219 C 51.878906 49.632812 51.171875 50.011719 50.5 50.457031 C 49.832031 50.90625 49.210938 51.414062 48.644531 51.984375 C 48.074219 52.550781 47.566406 53.171875 47.117188 53.84375 C 46.671875 54.511719 46.292969 55.21875 45.984375 55.960938 C 45.675781 56.707031 45.445312 57.472656 45.285156 58.261719 C 45.128906 59.054688 45.050781 59.851562 45.050781 60.65625 L 45.050781 126.066406 C 45.050781 126.875 45.128906 127.671875 45.285156 128.460938 C 45.445312 129.25 45.675781 130.015625 45.984375 130.761719 C 46.292969 131.503906 46.671875 132.210938 47.117188 132.882812 C 47.566406 133.550781 48.074219 134.171875 48.644531 134.742188 C 49.210938 135.308594 49.832031 135.816406 50.5 136.265625 C 51.171875 136.714844 51.878906 137.089844 52.621094 137.398438 C 53.367188 137.707031 54.132812 137.941406 54.921875 138.097656 C 55.710938 138.253906 56.511719 138.332031 57.316406 138.332031 L 94.109375 138.332031 Z M 171.785156 130.15625 L 57.316406 130.15625 C 57.046875 130.15625 56.78125 130.128906 56.519531 130.078125 C 56.253906 130.023438 56 129.949219 55.75 129.84375 C 55.503906 129.742188 55.265625 129.617188 55.042969 129.46875 C 54.820312 129.316406 54.613281 129.148438 54.425781 128.957031 C 54.234375 128.769531 54.066406 128.5625 53.917969 128.339844 C 53.765625 128.117188 53.640625 127.878906 53.539062 127.632812 C 53.4375 127.382812 53.359375 127.128906 53.304688 126.867188 C 53.253906 126.601562 53.226562 126.335938 53.226562 126.066406 L 53.226562 85.183594 L 175.875 85.183594 L 175.875 126.066406 C 175.875 126.335938 175.847656 126.601562 175.796875 126.867188 C 175.746094 127.128906 175.667969 127.382812 175.5625 127.632812 C 175.460938 127.878906 175.335938 128.117188 175.1875 128.339844 C 175.035156 128.5625 174.867188 128.769531 174.675781 128.957031 C 174.488281 129.148438 174.28125 129.316406 174.058594 129.46875 C 173.835938 129.617188 173.597656 129.742188 173.351562 129.84375 C 173.101562 129.949219 172.847656 130.023438 172.585938 130.078125 C 172.320312 130.128906 172.054688 130.15625 171.785156 130.15625 Z M 171.785156 130.15625 " fill-opacity="1" fill-rule="nonzero"/></g><path fill="#872341" d="M 73.667969 89.273438 L 65.492188 89.273438 C 64.957031 89.273438 64.421875 89.324219 63.898438 89.429688 C 63.371094 89.535156 62.859375 89.691406 62.363281 89.894531 C 61.867188 90.101562 61.394531 90.351562 60.949219 90.652344 C 60.503906 90.949219 60.089844 91.289062 59.710938 91.667969 C 59.332031 92.046875 58.992188 92.460938 58.695312 92.90625 C 58.394531 93.355469 58.144531 93.824219 57.9375 94.320312 C 57.734375 94.816406 57.578125 95.328125 57.472656 95.855469 C 57.367188 96.382812 57.316406 96.914062 57.316406 97.449219 L 57.316406 101.539062 C 57.316406 102.074219 57.367188 102.605469 57.472656 103.132812 C 57.578125 103.660156 57.734375 104.171875 57.9375 104.667969 C 58.144531 105.164062 58.394531 105.632812 58.695312 106.082031 C 58.992188 106.527344 59.332031 106.941406 59.710938 107.320312 C 60.089844 107.699219 60.503906 108.039062 60.949219 108.335938 C 61.394531 108.636719 61.867188 108.886719 62.363281 109.09375 C 62.859375 109.296875 63.371094 109.453125 63.898438 109.558594 C 64.421875 109.664062 64.957031 109.714844 65.492188 109.714844 L 73.667969 109.714844 C 74.207031 109.714844 74.738281 109.664062 75.265625 109.558594 C 75.789062 109.453125 76.300781 109.296875 76.796875 109.09375 C 77.292969 108.886719 77.765625 108.636719 78.210938 108.335938 C 78.65625 108.039062 79.070312 107.699219 79.449219 107.320312 C 79.828125 106.941406 80.167969 106.527344 80.46875 106.082031 C 80.765625 105.632812 81.015625 105.164062 81.222656 104.667969 C 81.429688 104.171875 81.582031 103.660156 81.6875 103.132812 C 81.792969 102.605469 81.84375 102.074219 81.84375 101.539062 L 81.84375 97.449219 C 81.84375 96.914062 81.792969 96.382812 81.6875 95.855469 C 81.582031 95.328125 81.429688 94.816406 81.222656 94.320312 C 81.015625 93.824219 80.765625 93.355469 80.46875 92.90625 C 80.167969 92.460938 79.828125 92.046875 79.449219 91.667969 C 79.070312 91.289062 78.65625 90.949219 78.210938 90.652344 C 77.765625 90.351562 77.292969 90.101562 76.796875 89.894531 C 76.300781 89.691406 75.789062 89.535156 75.265625 89.429688 C 74.738281 89.324219 74.207031 89.273438 73.667969 89.273438 Z M 65.492188 101.539062 L 65.492188 97.449219 L 73.667969 97.449219 L 73.667969 101.539062 Z M 65.492188 101.539062 " fill-opacity="1" fill-rule="nonzero"/><path fill="#872341" d="M 167.699219 89.273438 L 147.257812 89.273438 C 146.988281 89.273438 146.722656 89.300781 146.460938 89.351562 C 146.195312 89.40625 145.941406 89.480469 145.691406 89.585938 C 145.445312 89.6875 145.210938 89.8125 144.984375 89.960938 C 144.761719 90.113281 144.554688 90.28125 144.367188 90.472656 C 144.175781 90.660156 144.007812 90.867188 143.859375 91.089844 C 143.707031 91.3125 143.582031 91.550781 143.480469 91.796875 C 143.378906 92.046875 143.300781 92.300781 143.246094 92.5625 C 143.195312 92.828125 143.167969 93.09375 143.167969 93.363281 C 143.167969 93.628906 143.195312 93.894531 143.246094 94.160156 C 143.300781 94.421875 143.378906 94.679688 143.480469 94.925781 C 143.582031 95.175781 143.707031 95.410156 143.859375 95.632812 C 144.007812 95.855469 144.175781 96.0625 144.367188 96.253906 C 144.554688 96.441406 144.761719 96.613281 144.984375 96.761719 C 145.210938 96.910156 145.445312 97.035156 145.691406 97.140625 C 145.941406 97.242188 146.195312 97.320312 146.460938 97.371094 C 146.722656 97.425781 146.988281 97.449219 147.257812 97.449219 L 167.699219 97.449219 C 167.96875 97.449219 168.234375 97.425781 168.496094 97.371094 C 168.757812 97.320312 169.015625 97.242188 169.261719 97.140625 C 169.511719 97.035156 169.746094 96.910156 169.96875 96.761719 C 170.191406 96.613281 170.398438 96.441406 170.589844 96.253906 C 170.777344 96.0625 170.949219 95.855469 171.097656 95.632812 C 171.246094 95.410156 171.371094 95.175781 171.476562 94.925781 C 171.578125 94.679688 171.65625 94.421875 171.707031 94.160156 C 171.761719 93.894531 171.785156 93.628906 171.785156 93.363281 C 171.785156 93.09375 171.761719 92.828125 171.707031 92.5625 C 171.65625 92.300781 171.578125 92.046875 171.476562 91.796875 C 171.371094 91.550781 171.246094 91.3125 171.097656 91.089844 C 170.949219 90.867188 170.777344 90.660156 170.589844 90.472656 C 170.398438 90.28125 170.191406 90.113281 169.96875 89.960938 C 169.746094 89.8125 169.511719 89.6875 169.261719 89.585938 C 169.015625 89.480469 168.757812 89.40625 168.496094 89.351562 C 168.234375 89.300781 167.96875 89.273438 167.699219 89.273438 Z M 167.699219 89.273438 " fill-opacity="1" fill-rule="nonzero"/><path fill="#872341" d="M 167.699219 101.539062 L 159.523438 101.539062 C 159.253906 101.539062 158.988281 101.566406 158.722656 101.617188 C 158.460938 101.667969 158.207031 101.746094 157.957031 101.847656 C 157.710938 101.953125 157.472656 102.078125 157.25 102.226562 C 157.027344 102.375 156.820312 102.546875 156.632812 102.734375 C 156.441406 102.925781 156.273438 103.132812 156.121094 103.355469 C 155.972656 103.578125 155.847656 103.8125 155.746094 104.0625 C 155.640625 104.308594 155.566406 104.566406 155.511719 104.828125 C 155.460938 105.09375 155.433594 105.359375 155.433594 105.625 C 155.433594 105.894531 155.460938 106.160156 155.511719 106.425781 C 155.566406 106.6875 155.640625 106.941406 155.746094 107.191406 C 155.847656 107.4375 155.972656 107.675781 156.121094 107.898438 C 156.273438 108.121094 156.441406 108.328125 156.632812 108.515625 C 156.820312 108.707031 157.027344 108.875 157.25 109.027344 C 157.472656 109.175781 157.710938 109.300781 157.957031 109.402344 C 158.207031 109.507812 158.460938 109.582031 158.722656 109.636719 C 158.988281 109.6875 159.253906 109.714844 159.523438 109.714844 L 167.699219 109.714844 C 167.96875 109.714844 168.234375 109.6875 168.496094 109.636719 C 168.757812 109.582031 169.015625 109.507812 169.261719 109.402344 C 169.511719 109.300781 169.746094 109.175781 169.96875 109.027344 C 170.191406 108.875 170.398438 108.707031 170.589844 108.515625 C 170.777344 108.328125 170.949219 108.121094 171.097656 107.898438 C 171.246094 107.675781 171.371094 107.4375 171.476562 107.191406 C 171.578125 106.941406 171.65625 106.6875 171.707031 106.425781 C 171.761719 106.160156 171.785156 105.894531 171.785156 105.625 C 171.785156 105.359375 171.761719 105.09375 171.707031 104.828125 C 171.65625 104.566406 171.578125 104.308594 171.476562 104.0625 C 171.371094 103.8125 171.246094 103.578125 171.097656 103.355469 C 170.949219 103.132812 170.777344 102.925781 170.589844 102.734375 C 170.398438 102.546875 170.191406 102.375 169.96875 102.226562 C 169.746094 102.078125 169.511719 101.953125 169.261719 101.847656 C 169.015625 101.746094 168.757812 101.667969 168.496094 101.617188 C 168.234375 101.566406 167.96875 101.539062 167.699219 101.539062 Z M 167.699219 101.539062 " fill-opacity="1" fill-rule="nonzero"/><path fill="#872341" d="M 57.316406 162.863281 L 49.140625 162.863281 C 48.871094 162.863281 48.605469 162.886719 48.339844 162.941406 C 48.078125 162.992188 47.824219 163.070312 47.574219 163.171875 C 47.328125 163.277344 47.089844 163.402344 46.867188 163.550781 C 46.644531 163.699219 46.4375 163.871094 46.25 164.058594 C 46.058594 164.25 45.890625 164.457031 45.738281 164.679688 C 45.589844 164.902344 45.464844 165.136719 45.363281 165.386719 C 45.257812 165.632812 45.179688 165.890625 45.128906 166.152344 C 45.078125 166.417969 45.050781 166.683594 45.050781 166.949219 C 45.050781 167.21875 45.078125 167.484375 45.128906 167.75 C 45.179688 168.011719 45.257812 168.265625 45.363281 168.515625 C 45.464844 168.761719 45.589844 169 45.738281 169.222656 C 45.890625 169.445312 46.058594 169.652344 46.25 169.839844 C 46.4375 170.03125 46.644531 170.199219 46.867188 170.351562 C 47.089844 170.5 47.328125 170.625 47.574219 170.726562 C 47.824219 170.832031 48.078125 170.90625 48.339844 170.960938 C 48.605469 171.011719 48.871094 171.039062 49.140625 171.039062 L 57.316406 171.039062 C 57.582031 171.039062 57.851562 171.011719 58.113281 170.960938 C 58.375 170.90625 58.632812 170.832031 58.878906 170.726562 C 59.128906 170.625 59.363281 170.5 59.585938 170.351562 C 59.808594 170.199219 60.015625 170.03125 60.207031 169.839844 C 60.394531 169.652344 60.566406 169.445312 60.714844 169.222656 C 60.863281 169 60.988281 168.761719 61.09375 168.515625 C 61.195312 168.265625 61.273438 168.011719 61.324219 167.75 C 61.378906 167.484375 61.402344 167.21875 61.402344 166.949219 C 61.402344 166.683594 61.378906 166.417969 61.324219 166.152344 C 61.273438 165.890625 61.195312 165.632812 61.09375 165.386719 C 60.988281 165.136719 60.863281 164.902344 60.714844 164.679688 C 60.566406 164.457031 60.394531 164.25 60.207031 164.058594 C 60.015625 163.871094 59.808594 163.699219 59.585938 163.550781 C 59.363281 163.402344 59.128906 163.277344 58.878906 163.171875 C 58.632812 163.070312 58.375 162.992188 58.113281 162.941406 C 57.851562 162.886719 57.582031 162.863281 57.316406 162.863281 Z M 57.316406 162.863281 " fill-opacity="1" fill-rule="nonzero"/></svg>