<svg xmlns="http://www.w3.org/2000/svg" xmlns:xlink="http://www.w3.org/1999/xlink" width="250" zoomAndPan="magnify" viewBox="0 0 187.5 187.499992" height="250" preserveAspectRatio="xMidYMid meet" version="1.0"><defs><clipPath id="92c5c8c29e"><path d="M 7.394531 7.503906 L 179.4375 7.503906 L 179.4375 179.542969 L 7.394531 179.542969 Z M 7.394531 7.503906 " clip-rule="nonzero"/></clipPath></defs><g clip-path="url(#92c5c8c29e)"><path fill="#ffffff" d="M 179.550781 93.5 C 179.550781 94.90625 179.515625 96.3125 179.445312 97.71875 C 179.378906 99.125 179.273438 100.527344 179.136719 101.929688 C 178.996094 103.328125 178.824219 104.726562 178.617188 106.117188 C 178.414062 107.511719 178.171875 108.898438 177.898438 110.277344 C 177.621094 111.65625 177.3125 113.03125 176.972656 114.394531 C 176.628906 115.761719 176.253906 117.117188 175.84375 118.464844 C 175.4375 119.808594 174.996094 121.144531 174.519531 122.472656 C 174.046875 123.796875 173.539062 125.109375 173 126.410156 C 172.460938 127.710938 171.890625 128.996094 171.289062 130.269531 C 170.6875 131.539062 170.054688 132.796875 169.390625 134.039062 C 168.726562 135.28125 168.03125 136.503906 167.308594 137.710938 C 166.582031 138.917969 165.832031 140.105469 165.046875 141.277344 C 164.265625 142.449219 163.453125 143.597656 162.617188 144.726562 C 161.777344 145.859375 160.910156 146.96875 160.015625 148.054688 C 159.125 149.144531 158.203125 150.210938 157.257812 151.253906 C 156.3125 152.296875 155.34375 153.3125 154.347656 154.308594 C 153.351562 155.304688 152.332031 156.273438 151.285156 157.21875 C 150.242188 158.164062 149.175781 159.082031 148.089844 159.976562 C 147 160.871094 145.890625 161.734375 144.757812 162.574219 C 143.628906 163.410156 142.476562 164.222656 141.304688 165.003906 C 140.136719 165.785156 138.945312 166.539062 137.738281 167.261719 C 136.53125 167.984375 135.304688 168.679688 134.0625 169.34375 C 132.820312 170.007812 131.5625 170.640625 130.289062 171.242188 C 129.015625 171.84375 127.730469 172.414062 126.429688 172.949219 C 125.128906 173.488281 123.8125 173.996094 122.488281 174.46875 C 121.160156 174.945312 119.824219 175.386719 118.476562 175.792969 C 117.128906 176.203125 115.773438 176.578125 114.40625 176.921875 C 113.039062 177.261719 111.667969 177.570312 110.285156 177.84375 C 108.90625 178.121094 107.515625 178.359375 106.125 178.566406 C 104.730469 178.773438 103.332031 178.945312 101.933594 179.082031 C 100.53125 179.222656 99.125 179.324219 97.71875 179.394531 C 96.3125 179.460938 94.90625 179.496094 93.496094 179.496094 C 92.089844 179.496094 90.683594 179.460938 89.273438 179.394531 C 87.867188 179.324219 86.464844 179.222656 85.0625 179.082031 C 83.660156 178.945312 82.265625 178.773438 80.871094 178.566406 C 79.476562 178.359375 78.089844 178.121094 76.710938 177.84375 C 75.328125 177.570312 73.953125 177.261719 72.589844 176.921875 C 71.222656 176.578125 69.867188 176.203125 68.519531 175.792969 C 67.171875 175.386719 65.832031 174.945312 64.507812 174.46875 C 63.179688 173.996094 61.867188 173.488281 60.566406 172.949219 C 59.265625 172.414062 57.976562 171.84375 56.707031 171.242188 C 55.433594 170.640625 54.175781 170.007812 52.933594 169.34375 C 51.691406 168.679688 50.464844 167.984375 49.257812 167.261719 C 48.050781 166.539062 46.859375 165.785156 45.6875 165.003906 C 44.519531 164.222656 43.367188 163.410156 42.234375 162.574219 C 41.105469 161.734375 39.996094 160.871094 38.90625 159.976562 C 37.816406 159.082031 36.75 158.164062 35.707031 157.21875 C 34.664062 156.273438 33.644531 155.304688 32.648438 154.308594 C 31.652344 153.3125 30.683594 152.296875 29.738281 151.253906 C 28.789062 150.210938 27.871094 149.144531 26.976562 148.054688 C 26.085938 146.96875 25.21875 145.859375 24.378906 144.726562 C 23.539062 143.597656 22.730469 142.449219 21.945312 141.277344 C 21.164062 140.105469 20.410156 138.917969 19.6875 137.710938 C 18.964844 136.503906 18.269531 135.28125 17.605469 134.039062 C 16.941406 132.796875 16.308594 131.539062 15.707031 130.269531 C 15.105469 128.996094 14.535156 127.710938 13.996094 126.410156 C 13.457031 125.109375 12.949219 123.796875 12.476562 122.472656 C 12 121.144531 11.558594 119.808594 11.148438 118.464844 C 10.742188 117.117188 10.367188 115.761719 10.023438 114.394531 C 9.679688 113.03125 9.371094 111.65625 9.097656 110.277344 C 8.824219 108.898438 8.582031 107.511719 8.375 106.117188 C 8.167969 104.726562 7.996094 103.328125 7.859375 101.929688 C 7.722656 100.527344 7.617188 99.125 7.546875 97.71875 C 7.480469 96.3125 7.445312 94.90625 7.445312 93.5 C 7.445312 92.09375 7.480469 90.6875 7.546875 89.28125 C 7.617188 87.875 7.722656 86.472656 7.859375 85.070312 C 7.996094 83.671875 8.167969 82.273438 8.375 80.882812 C 8.582031 79.488281 8.824219 78.101562 9.097656 76.722656 C 9.371094 75.34375 9.679688 73.96875 10.023438 72.605469 C 10.367188 71.238281 10.742188 69.882812 11.148438 68.535156 C 11.558594 67.191406 12 65.851562 12.476562 64.527344 C 12.949219 63.203125 13.457031 61.890625 13.996094 60.589844 C 14.535156 59.289062 15.105469 58.003906 15.707031 56.730469 C 16.308594 55.460938 16.941406 54.203125 17.605469 52.960938 C 18.269531 51.71875 18.964844 50.496094 19.6875 49.289062 C 20.410156 48.082031 21.164062 46.894531 21.945312 45.722656 C 22.730469 44.550781 23.539062 43.402344 24.378906 42.269531 C 25.21875 41.140625 26.085938 40.03125 26.976562 38.945312 C 27.871094 37.855469 28.789062 36.789062 29.738281 35.746094 C 30.683594 34.703125 31.652344 33.6875 32.648438 32.691406 C 33.644531 31.695312 34.664062 30.726562 35.707031 29.78125 C 36.75 28.835938 37.816406 27.917969 38.90625 27.023438 C 39.996094 26.128906 41.105469 25.265625 42.234375 24.425781 C 43.367188 23.589844 44.519531 22.777344 45.6875 21.996094 C 46.859375 21.214844 48.050781 20.460938 49.257812 19.738281 C 50.464844 19.015625 51.691406 18.320312 52.933594 17.65625 C 54.175781 16.992188 55.433594 16.359375 56.707031 15.757812 C 57.976562 15.15625 59.265625 14.585938 60.566406 14.050781 C 61.867188 13.511719 63.179688 13.003906 64.507812 12.53125 C 65.832031 12.054688 67.171875 11.613281 68.519531 11.207031 C 69.867188 10.796875 71.222656 10.421875 72.589844 10.078125 C 73.953125 9.738281 75.328125 9.429688 76.710938 9.15625 C 78.089844 8.878906 79.476562 8.640625 80.871094 8.433594 C 82.265625 8.226562 83.660156 8.054688 85.0625 7.917969 C 86.464844 7.777344 87.867188 7.675781 89.273438 7.605469 C 90.683594 7.539062 92.089844 7.503906 93.496094 7.503906 C 94.90625 7.503906 96.3125 7.539062 97.71875 7.605469 C 99.125 7.675781 100.53125 7.777344 101.933594 7.917969 C 103.332031 8.054688 104.730469 8.226562 106.125 8.433594 C 107.515625 8.640625 108.90625 8.878906 110.285156 9.15625 C 111.667969 9.429688 113.039062 9.738281 114.40625 10.078125 C 115.773438 10.421875 117.128906 10.796875 118.476562 11.207031 C 119.824219 11.613281 121.160156 12.054688 122.488281 12.53125 C 123.8125 13.003906 125.128906 13.511719 126.429688 14.050781 C 127.730469 14.585938 129.015625 15.15625 130.289062 15.757812 C 131.5625 16.359375 132.820312 16.992188 134.0625 17.65625 C 135.304688 18.320312 136.53125 19.015625 137.738281 19.738281 C 138.945312 20.460938 140.136719 21.214844 141.304688 21.996094 C 142.476562 22.777344 143.628906 23.589844 144.757812 24.425781 C 145.890625 25.265625 147 26.128906 148.089844 27.023438 C 149.175781 27.917969 150.242188 28.835938 151.285156 29.78125 C 152.332031 30.726562 153.351562 31.695312 154.347656 32.691406 C 155.34375 33.6875 156.3125 34.703125 157.257812 35.746094 C 158.203125 36.789062 159.125 37.855469 160.015625 38.945312 C 160.910156 40.03125 161.777344 41.140625 162.617188 42.269531 C 163.453125 43.402344 164.265625 44.550781 165.046875 45.722656 C 165.832031 46.894531 166.582031 48.082031 167.308594 49.289062 C 168.03125 50.496094 168.726562 51.71875 169.390625 52.960938 C 170.054688 54.203125 170.6875 55.460938 171.289062 56.730469 C 171.890625 58.003906 172.460938 59.289062 173 60.589844 C 173.539062 61.890625 174.046875 63.203125 174.519531 64.527344 C 174.996094 65.851562 175.4375 67.191406 175.84375 68.535156 C 176.253906 69.882812 176.628906 71.238281 176.972656 72.605469 C 177.3125 73.96875 177.621094 75.34375 177.898438 76.722656 C 178.171875 78.101562 178.414062 79.488281 178.617188 80.882812 C 178.824219 82.273438 178.996094 83.671875 179.136719 85.070312 C 179.273438 86.472656 179.378906 87.875 179.445312 89.28125 C 179.515625 90.6875 179.550781 92.09375 179.550781 93.5 Z M 179.550781 93.5 " fill-opacity="1" fill-rule="nonzero"/></g><path fill="#872341" d="M 148.769531 37.46875 L 116.246094 37.46875 L 93.496094 70.140625 L 70.75 37.46875 L 38.207031 37.46875 L 77.300781 93.40625 L 38.207031 149.53125 L 70.492188 149.53125 L 93.496094 116.597656 L 116.503906 149.53125 L 148.789062 149.53125 L 109.714844 93.40625 Z M 66.910156 142.6875 L 51.324219 142.6875 L 81.476562 99.398438 L 85.796875 105.597656 L 89.324219 110.644531 Z M 135.671875 142.6875 L 120.085938 142.6875 L 97.671875 110.625 L 93.496094 104.652344 L 90.4375 100.253906 L 85.964844 93.851562 L 85.667969 93.40625 L 81.476562 87.433594 L 51.34375 44.3125 L 67.152344 44.3125 L 89.304688 76.132812 L 93.480469 82.125 L 94.667969 83.816406 L 99.121094 90.214844 L 101.347656 93.40625 L 105.519531 99.398438 Z M 103.757812 84.890625 L 99.304688 78.488281 L 97.652344 76.132812 L 119.808594 44.3125 L 135.613281 44.3125 L 105.519531 87.433594 Z M 103.757812 84.890625 " fill-opacity="1" fill-rule="nonzero"/></svg>