<svg width="50" height="44" viewBox="0 0 50 44" fill="none" xmlns="http://www.w3.org/2000/svg">
<path d="M49.2115 39.9189C40.913 32.6343 32.6146 25.3546 24.3161 18.07C21.9702 16.0075 18.5145 19.445 20.8751 21.5173C29.1735 28.8018 37.472 36.0815 45.7704 43.3661C48.1164 45.4286 51.5721 41.9911 49.2115 39.9189Z" fill="#872341"/>
<path d="M33.0965 16.578C33.0965 18.4455 32.7898 20.2398 32.2204 21.9122C30.001 28.4508 23.8246 33.156 16.5482 33.156C7.40777 33.156 0 25.7349 0 16.578C0 7.4211 7.40777 0 16.5482 0C25.6887 0 33.0965 7.4211 33.0965 16.578Z" fill="#872341"/>
<path d="M28.2293 16.578C28.2293 17.8945 28.0103 19.1623 27.6112 20.3471C26.044 24.9597 21.6831 28.2802 16.5482 28.2802C10.0993 28.2802 4.86713 23.0386 4.86713 16.578C4.86713 10.1175 10.0993 4.87592 16.5482 4.87592C22.9972 4.87592 28.2293 10.1175 28.2293 16.578Z" fill="white"/>
</svg>
