<svg width="52" height="82" viewBox="0 0 52 82" fill="none" xmlns="http://www.w3.org/2000/svg">
<path d="M2.46233 10.0182C6.86848 14.1537 11.2672 18.2891 15.6733 22.4246C22.6886 29.0188 29.7113 35.6054 36.7266 42.1996C38.3357 43.711 39.9447 45.2223 41.5537 46.7336C41.5537 44.0719 41.5537 41.4176 41.5537 38.7559C37.1551 42.4553 32.7641 46.1546 28.3654 49.854C21.3351 55.7715 14.3048 61.6889 7.27453 67.6064C5.66546 68.9598 4.06388 70.3133 2.45481 71.6592C1.40214 72.5389 0.800659 74.3284 0.800659 75.6442C0.800659 77.0277 1.41718 78.682 2.45481 79.6294C4.86842 81.84 8.01145 81.6595 10.4326 79.6294C14.8312 75.93 19.2223 72.2306 23.6209 68.5313C30.6512 62.6138 37.6815 56.6963 44.7118 50.7788C46.3209 49.4254 47.9224 48.072 49.5315 46.7261C50.5391 45.8764 51.2383 44.0268 51.1857 42.741C51.118 41.2748 50.6368 39.786 49.5315 38.7559C45.1254 34.6204 40.7267 30.485 36.3205 26.3495C29.3053 19.7553 22.2825 13.1687 15.2673 6.57448C13.6582 5.06315 12.0492 3.55185 10.4401 2.04053C8.28966 0.0179119 4.56766 -0.252773 2.46233 2.04053C0.447236 4.23609 0.161513 7.86024 2.46233 10.0182Z" fill="white"/>
</svg>
