<svg width="51" height="82" viewBox="0 0 51 82" fill="none" xmlns="http://www.w3.org/2000/svg">
<path d="M48.8457 71.5614C44.4395 67.4259 40.0409 63.2904 35.6348 59.155C28.6195 52.5608 21.5968 45.9741 14.5815 39.3799C12.9724 37.8686 11.3634 36.3573 9.75428 34.846C9.75428 37.5077 9.75428 40.1619 9.75428 42.8237C14.1529 39.1243 18.544 35.4249 22.9427 31.7256C29.9729 25.8081 37.0032 19.8906 44.0335 13.9732C45.6426 12.6197 47.2441 11.2663 48.8532 9.92039C49.9059 9.04067 50.5074 7.25115 50.5074 5.93532C50.5074 4.55182 49.8908 2.89764 48.8532 1.95025C46.4396 -0.260347 43.2967 -0.0798909 40.8755 1.95025C36.4769 5.64961 32.0858 9.34893 27.6872 13.0483C20.6569 18.9658 13.6266 24.8833 6.59629 30.8007C4.98722 32.1542 3.38567 33.5076 1.77659 34.8535C0.769045 35.7031 0.0697783 37.5528 0.122411 38.8386C0.190083 40.3048 0.671298 41.7936 1.77659 42.8237C6.18274 46.9591 10.5814 51.0946 14.9875 55.2301C22.0028 61.8242 29.0255 68.4109 36.0408 75.0051C37.6499 76.5164 39.2589 78.0277 40.868 79.539C43.0184 81.5616 46.7404 81.8323 48.8457 79.539C50.8608 77.3435 51.139 73.7193 48.8457 71.5614Z" fill="white"/>
</svg>
