<svg xmlns="http://www.w3.org/2000/svg" xmlns:xlink="http://www.w3.org/1999/xlink" width="250" zoomAndPan="magnify" viewBox="0 0 187.5 187.499992" height="250" preserveAspectRatio="xMidYMid meet" version="1.0"><defs><clipPath id="b50ee4a0cd"><path d="M 2 37.386719 L 184 37.386719 L 184 149.589844 L 2 149.589844 Z M 2 37.386719 " clip-rule="nonzero"/></clipPath></defs><g clip-path="url(#b50ee4a0cd)"><path fill="#000000" d="M 93.0625 37.457031 C 56.296875 37.457031 22.039062 57.261719 3.625 89.105469 C 2.046875 91.792969 2.046875 95.183594 3.625 97.871094 C 22.039062 129.714844 56.296875 149.519531 93.0625 149.519531 C 129.832031 149.519531 164.085938 129.714844 182.5 97.871094 C 184.078125 95.183594 184.078125 91.792969 182.5 89.105469 C 164.085938 57.261719 129.832031 37.457031 93.0625 37.457031 Z M 93.0625 128.253906 C 73.890625 128.253906 58.28125 112.652344 58.28125 93.488281 C 58.28125 74.324219 73.890625 58.722656 93.0625 58.722656 C 112.238281 58.722656 127.84375 74.324219 127.84375 93.488281 C 127.84375 112.652344 112.238281 128.253906 93.0625 128.253906 Z M 93.0625 128.253906 " fill-opacity="1" fill-rule="nonzero"/></g><path fill="#000000" d="M 110.3125 93.488281 C 110.3125 94.054688 110.28125 94.617188 110.226562 95.179688 C 110.171875 95.742188 110.089844 96.296875 109.980469 96.851562 C 109.867188 97.40625 109.730469 97.953125 109.566406 98.492188 C 109.402344 99.03125 109.214844 99.5625 108.996094 100.085938 C 108.78125 100.605469 108.539062 101.117188 108.273438 101.613281 C 108.007812 102.113281 107.71875 102.597656 107.402344 103.066406 C 107.089844 103.535156 106.753906 103.988281 106.394531 104.425781 C 106.039062 104.863281 105.660156 105.28125 105.257812 105.679688 C 104.859375 106.078125 104.441406 106.457031 104.003906 106.816406 C 103.566406 107.171875 103.113281 107.507812 102.644531 107.824219 C 102.175781 108.136719 101.691406 108.425781 101.195312 108.691406 C 100.695312 108.957031 100.1875 109.199219 99.664062 109.414062 C 99.140625 109.632812 98.609375 109.820312 98.070312 109.984375 C 97.53125 110.148438 96.980469 110.285156 96.429688 110.398438 C 95.875 110.507812 95.316406 110.589844 94.753906 110.644531 C 94.191406 110.699219 93.628906 110.726562 93.0625 110.726562 C 92.5 110.726562 91.933594 110.699219 91.371094 110.644531 C 90.8125 110.589844 90.253906 110.507812 89.699219 110.398438 C 89.144531 110.285156 88.597656 110.148438 88.058594 109.984375 C 87.515625 109.820312 86.984375 109.632812 86.464844 109.414062 C 85.941406 109.199219 85.429688 108.957031 84.933594 108.691406 C 84.433594 108.425781 83.949219 108.136719 83.480469 107.824219 C 83.011719 107.507812 82.558594 107.171875 82.121094 106.816406 C 81.683594 106.457031 81.265625 106.078125 80.867188 105.679688 C 80.46875 105.28125 80.089844 104.863281 79.730469 104.425781 C 79.371094 103.988281 79.035156 103.535156 78.722656 103.066406 C 78.410156 102.597656 78.117188 102.113281 77.851562 101.613281 C 77.585938 101.117188 77.34375 100.605469 77.128906 100.085938 C 76.914062 99.5625 76.722656 99.03125 76.558594 98.492188 C 76.394531 97.953125 76.257812 97.40625 76.148438 96.851562 C 76.039062 96.296875 75.953125 95.742188 75.898438 95.179688 C 75.84375 94.617188 75.816406 94.054688 75.816406 93.488281 C 75.816406 92.925781 75.84375 92.359375 75.898438 91.800781 C 75.953125 91.238281 76.039062 90.679688 76.148438 90.125 C 76.257812 89.570312 76.394531 89.023438 76.558594 88.484375 C 76.722656 87.945312 76.914062 87.414062 77.128906 86.890625 C 77.34375 86.371094 77.585938 85.859375 77.851562 85.363281 C 78.117188 84.863281 78.410156 84.378906 78.722656 83.910156 C 79.035156 83.441406 79.371094 82.988281 79.730469 82.550781 C 80.089844 82.117188 80.46875 81.699219 80.867188 81.296875 C 81.265625 80.898438 81.683594 80.519531 82.121094 80.164062 C 82.558594 79.804688 83.011719 79.46875 83.480469 79.15625 C 83.949219 78.839844 84.433594 78.550781 84.933594 78.285156 C 85.429688 78.019531 85.941406 77.777344 86.464844 77.5625 C 86.984375 77.34375 87.515625 77.15625 88.058594 76.992188 C 88.597656 76.828125 89.144531 76.691406 89.699219 76.582031 C 90.253906 76.46875 90.8125 76.386719 91.371094 76.332031 C 91.933594 76.277344 92.5 76.25 93.0625 76.25 C 93.628906 76.25 94.191406 76.277344 94.753906 76.332031 C 95.316406 76.386719 95.875 76.46875 96.429688 76.582031 C 96.980469 76.691406 97.53125 76.828125 98.070312 76.992188 C 98.609375 77.15625 99.140625 77.34375 99.664062 77.5625 C 100.1875 77.777344 100.695312 78.019531 101.195312 78.285156 C 101.691406 78.550781 102.175781 78.839844 102.644531 79.15625 C 103.113281 79.46875 103.566406 79.804688 104.003906 80.164062 C 104.441406 80.519531 104.859375 80.898438 105.257812 81.296875 C 105.660156 81.699219 106.039062 82.117188 106.394531 82.550781 C 106.753906 82.988281 107.089844 83.441406 107.402344 83.910156 C 107.71875 84.378906 108.007812 84.863281 108.273438 85.363281 C 108.539062 85.859375 108.78125 86.371094 108.996094 86.890625 C 109.214844 87.414062 109.402344 87.945312 109.566406 88.484375 C 109.730469 89.023438 109.867188 89.570312 109.980469 90.125 C 110.089844 90.679688 110.171875 91.238281 110.226562 91.800781 C 110.28125 92.359375 110.3125 92.925781 110.3125 93.488281 Z M 110.3125 93.488281 " fill-opacity="1" fill-rule="nonzero"/></svg>