<svg xmlns="http://www.w3.org/2000/svg" xmlns:xlink="http://www.w3.org/1999/xlink" width="250" zoomAndPan="magnify" viewBox="0 0 187.5 187.499992" height="250" preserveAspectRatio="xMidYMid meet" version="1.0"><defs><clipPath id="99afee34d7"><path d="M 39 2.164062 L 167 2.164062 L 167 102 L 39 102 Z M 39 2.164062 " clip-rule="nonzero"/></clipPath><clipPath id="73a08fc893"><path d="M 10 36 L 178.613281 36 L 178.613281 186.171875 L 10 186.171875 Z M 10 36 " clip-rule="nonzero"/></clipPath></defs><path fill="#872341" d="M 96.785156 151.945312 C 96.785156 152.324219 96.710938 152.6875 96.566406 153.035156 C 96.421875 153.382812 96.21875 153.691406 95.953125 153.957031 C 95.683594 154.226562 95.375 154.429688 95.027344 154.574219 C 94.679688 154.71875 94.316406 154.792969 93.9375 154.792969 C 93.5625 154.792969 93.199219 154.71875 92.847656 154.574219 C 92.5 154.429688 92.191406 154.226562 91.925781 153.957031 C 91.660156 153.691406 91.453125 153.382812 91.308594 153.035156 C 91.164062 152.6875 91.089844 152.324219 91.089844 151.945312 C 91.089844 151.566406 91.164062 151.203125 91.308594 150.855469 C 91.453125 150.507812 91.660156 150.199219 91.925781 149.933594 C 92.191406 149.664062 92.5 149.460938 92.847656 149.316406 C 93.199219 149.171875 93.5625 149.097656 93.9375 149.097656 C 94.316406 149.097656 94.679688 149.171875 95.027344 149.316406 C 95.375 149.460938 95.683594 149.664062 95.953125 149.933594 C 96.21875 150.199219 96.421875 150.507812 96.566406 150.855469 C 96.710938 151.203125 96.785156 151.566406 96.785156 151.945312 Z M 96.785156 151.945312 " fill-opacity="1" fill-rule="nonzero"/><g clip-path="url(#99afee34d7)"><path fill="#872341" d="M 145.835938 7.417969 L 157.441406 7.417969 L 96.347656 75.960938 L 71.820312 58.878906 C 70.507812 58.003906 68.976562 58.222656 68.097656 59.535156 L 40.289062 96.980469 C 39.414062 98.296875 39.632812 99.828125 40.945312 100.921875 C 41.382812 101.363281 42.039062 101.363281 42.695312 101.363281 C 43.574219 101.363281 44.449219 100.921875 44.886719 100.265625 L 71.164062 64.792969 L 95.253906 81.871094 C 96.347656 82.75 97.878906 82.527344 98.976562 81.433594 L 161.382812 11.140625 L 161.382812 21.433594 C 161.382812 22.96875 162.480469 24.0625 164.011719 24.0625 C 165.542969 24.0625 166.640625 22.746094 166.640625 21.433594 L 166.640625 4.792969 C 166.640625 3.257812 165.324219 2.164062 164.011719 2.164062 L 145.835938 2.164062 C 144.304688 2.164062 143.207031 3.476562 143.207031 4.792969 C 143.207031 6.105469 144.304688 7.417969 145.835938 7.417969 Z M 145.835938 7.417969 " fill-opacity="1" fill-rule="nonzero"/></g><g clip-path="url(#73a08fc893)"><path fill="#872341" d="M 177.808594 43.988281 C 177.808594 39.828125 174.523438 36.761719 170.363281 36.761719 L 148.246094 36.761719 C 146.710938 36.761719 145.617188 38.078125 145.617188 39.390625 C 145.617188 40.703125 146.929688 42.019531 148.246094 42.019531 L 170.582031 42.019531 C 171.675781 42.019531 172.332031 42.894531 172.332031 43.769531 L 172.332031 139.027344 L 162.699219 139.027344 L 162.699219 59.097656 C 162.699219 57.566406 161.382812 56.472656 160.070312 56.472656 L 144.304688 56.472656 C 142.769531 56.472656 141.675781 57.785156 141.675781 59.097656 L 141.675781 139.246094 L 129.851562 139.246094 L 129.851562 108.585938 C 129.851562 107.054688 128.535156 105.960938 127.222656 105.960938 L 111.019531 105.960938 C 109.484375 105.960938 108.390625 107.054688 108.390625 108.585938 L 108.390625 139.246094 L 96.566406 139.246094 L 96.566406 99.390625 C 96.566406 97.859375 95.253906 96.761719 93.9375 96.761719 L 78.171875 96.761719 C 76.640625 96.761719 75.542969 98.078125 75.542969 99.390625 L 75.542969 139.246094 L 63.71875 139.246094 L 63.71875 122.164062 C 63.71875 120.632812 62.40625 119.535156 61.089844 119.535156 L 45.324219 119.535156 C 43.792969 119.535156 42.695312 120.851562 42.695312 122.164062 L 42.695312 139.246094 L 15.542969 139.246094 L 15.542969 127.640625 L 29.777344 127.640625 C 31.308594 127.640625 32.40625 126.324219 32.40625 125.011719 C 32.40625 123.695312 31.089844 122.382812 29.777344 122.382812 L 15.542969 122.382812 L 15.542969 111.433594 L 29.777344 111.433594 C 31.308594 111.433594 32.40625 110.121094 32.40625 108.808594 C 32.40625 107.492188 31.089844 106.179688 29.777344 106.179688 L 15.542969 106.179688 L 15.542969 95.230469 L 29.777344 95.230469 C 31.308594 95.230469 32.40625 93.917969 32.40625 92.601562 C 32.40625 91.289062 31.089844 89.972656 29.777344 89.972656 L 15.542969 89.972656 L 15.542969 79.027344 L 29.777344 79.027344 C 31.308594 79.027344 32.40625 77.710938 32.40625 76.398438 C 32.40625 75.082031 31.089844 73.769531 29.777344 73.769531 L 15.542969 73.769531 L 15.542969 62.820312 L 29.777344 62.820312 C 31.308594 62.820312 32.40625 61.507812 32.40625 60.191406 C 32.40625 58.878906 31.089844 57.566406 29.777344 57.566406 L 15.542969 57.566406 L 15.542969 45.082031 C 15.542969 43.988281 16.417969 43.332031 17.515625 43.332031 L 117.589844 43.332031 C 119.121094 43.332031 120.214844 42.019531 120.214844 40.703125 C 120.214844 39.390625 118.902344 38.078125 117.589844 38.078125 L 17.515625 38.078125 C 13.355469 38.078125 10.070312 41.359375 10.070312 45.304688 L 10.070312 156.105469 C 10.289062 160.703125 13.792969 164.207031 18.390625 164.644531 L 72.476562 164.644531 C 72.476562 168.367188 72.476562 174.5 72.257812 176.472656 C 71.820312 178.878906 69.851562 180.414062 67.878906 181.070312 L 59.558594 181.070312 C 58.027344 181.070312 56.929688 182.382812 56.929688 183.699219 C 56.929688 185.011719 58.246094 186.324219 59.558594 186.324219 L 128.535156 186.324219 C 130.070312 186.324219 131.164062 185.011719 131.164062 183.699219 C 131.164062 182.382812 129.851562 181.070312 128.535156 181.070312 L 120.214844 181.070312 C 118.027344 180.632812 116.054688 179.097656 115.835938 176.472656 C 115.617188 174.28125 115.617188 168.148438 115.617188 164.644531 L 171.019531 164.644531 C 175.398438 164.644531 178.027344 160.484375 178.027344 156.324219 Z M 146.929688 61.945312 L 157.441406 61.945312 L 157.441406 139.246094 L 146.929688 139.246094 Z M 113.867188 111.433594 L 124.15625 111.433594 L 124.15625 139.464844 L 113.867188 139.464844 Z M 80.582031 102.019531 L 90.871094 102.019531 L 90.871094 139.246094 L 80.582031 139.246094 Z M 47.515625 125.011719 L 58.027344 125.011719 L 58.027344 139.464844 L 47.515625 139.464844 Z M 76.421875 181.070312 C 76.859375 180.195312 77.296875 179.097656 77.515625 177.566406 C 77.953125 174.28125 77.953125 165.523438 77.953125 164.644531 L 109.921875 164.867188 C 109.921875 165.742188 109.921875 174.28125 110.363281 177.566406 C 110.582031 179.097656 110.800781 180.195312 111.238281 181.070312 Z M 172.332031 156.324219 C 172.332031 157.640625 171.675781 159.171875 170.800781 159.171875 L 18.171875 159.171875 C 16.640625 158.953125 15.542969 157.640625 15.324219 156.105469 L 15.324219 144.71875 L 172.332031 144.71875 Z M 172.332031 156.324219 " fill-opacity="1" fill-rule="nonzero"/></g></svg>