<svg xmlns="http://www.w3.org/2000/svg" xmlns:xlink="http://www.w3.org/1999/xlink" width="250" zoomAndPan="magnify" viewBox="0 0 187.5 187.499992" height="250" preserveAspectRatio="xMidYMid meet" version="1.0"><defs><clipPath id="637811a44e"><path d="M 1.4375 117 L 185.449219 117 L 185.449219 172.90625 L 1.4375 172.90625 Z M 1.4375 117 " clip-rule="nonzero"/></clipPath></defs><path fill="#872341" d="M 41.714844 114.789062 C 42.28125 114.789062 42.84375 114.761719 43.40625 114.703125 C 43.96875 114.648438 44.527344 114.566406 45.082031 114.457031 C 45.636719 114.347656 46.183594 114.207031 46.726562 114.042969 C 47.265625 113.878906 47.796875 113.691406 48.320312 113.472656 C 48.84375 113.257812 49.351562 113.015625 49.851562 112.75 C 50.347656 112.484375 50.832031 112.191406 51.304688 111.878906 C 51.773438 111.566406 52.226562 111.226562 52.664062 110.871094 C 53.101562 110.511719 53.519531 110.132812 53.917969 109.730469 C 54.320312 109.332031 54.699219 108.914062 55.058594 108.476562 C 55.414062 108.039062 55.75 107.585938 56.066406 107.117188 C 56.378906 106.648438 56.671875 106.164062 56.9375 105.664062 C 57.203125 105.164062 57.445312 104.65625 57.660156 104.132812 C 57.878906 103.609375 58.066406 103.078125 58.230469 102.539062 C 58.394531 101.996094 58.53125 101.449219 58.644531 100.894531 C 58.753906 100.339844 58.835938 99.78125 58.890625 99.21875 C 58.949219 98.65625 58.976562 98.09375 58.976562 97.527344 C 58.976562 96.960938 58.949219 96.398438 58.890625 95.835938 C 58.835938 95.273438 58.753906 94.714844 58.644531 94.160156 C 58.53125 93.605469 58.394531 93.058594 58.230469 92.515625 C 58.066406 91.976562 57.878906 91.445312 57.660156 90.921875 C 57.445312 90.398438 57.203125 89.890625 56.9375 89.390625 C 56.671875 88.890625 56.378906 88.40625 56.066406 87.9375 C 55.75 87.46875 55.414062 87.015625 55.058594 86.578125 C 54.699219 86.140625 54.320312 85.722656 53.917969 85.320312 C 53.519531 84.921875 53.101562 84.542969 52.664062 84.183594 C 52.226562 83.824219 51.773438 83.488281 51.304688 83.175781 C 50.832031 82.859375 50.347656 82.570312 49.851562 82.304688 C 49.351562 82.039062 48.84375 81.796875 48.320312 81.582031 C 47.796875 81.363281 47.265625 81.171875 46.726562 81.007812 C 46.183594 80.84375 45.636719 80.707031 45.082031 80.597656 C 44.527344 80.488281 43.96875 80.40625 43.40625 80.347656 C 42.84375 80.292969 42.28125 80.265625 41.714844 80.265625 C 41.148438 80.265625 40.585938 80.292969 40.023438 80.347656 C 39.460938 80.40625 38.902344 80.488281 38.347656 80.597656 C 37.792969 80.707031 37.246094 80.84375 36.703125 81.007812 C 36.164062 81.171875 35.632812 81.363281 35.109375 81.582031 C 34.585938 81.796875 34.074219 82.039062 33.578125 82.304688 C 33.078125 82.570312 32.59375 82.859375 32.125 83.175781 C 31.65625 83.488281 31.199219 83.824219 30.765625 84.183594 C 30.328125 84.542969 29.910156 84.921875 29.507812 85.320312 C 29.109375 85.722656 28.730469 86.140625 28.371094 86.578125 C 28.011719 87.015625 27.675781 87.46875 27.363281 87.9375 C 27.046875 88.40625 26.757812 88.890625 26.492188 89.390625 C 26.226562 89.890625 25.984375 90.398438 25.765625 90.921875 C 25.550781 91.445312 25.359375 91.976562 25.195312 92.515625 C 25.03125 93.058594 24.894531 93.605469 24.785156 94.160156 C 24.675781 94.714844 24.59375 95.273438 24.535156 95.835938 C 24.480469 96.398438 24.453125 96.960938 24.453125 97.527344 C 24.453125 98.09375 24.480469 98.65625 24.535156 99.21875 C 24.59375 99.78125 24.675781 100.339844 24.785156 100.894531 C 24.894531 101.449219 25.03125 101.996094 25.195312 102.539062 C 25.359375 103.078125 25.550781 103.609375 25.765625 104.132812 C 25.984375 104.65625 26.226562 105.164062 26.492188 105.664062 C 26.757812 106.164062 27.046875 106.648438 27.363281 107.117188 C 27.675781 107.585938 28.011719 108.039062 28.371094 108.476562 C 28.730469 108.914062 29.109375 109.332031 29.507812 109.730469 C 29.910156 110.132812 30.328125 110.511719 30.765625 110.871094 C 31.199219 111.226562 31.65625 111.566406 32.125 111.878906 C 32.59375 112.191406 33.078125 112.484375 33.578125 112.75 C 34.074219 113.015625 34.585938 113.257812 35.109375 113.472656 C 35.632812 113.691406 36.164062 113.878906 36.703125 114.042969 C 37.246094 114.207031 37.792969 114.347656 38.347656 114.457031 C 38.902344 114.566406 39.460938 114.648438 40.023438 114.703125 C 40.585938 114.761719 41.148438 114.789062 41.714844 114.789062 Z M 41.714844 86.019531 C 42.46875 86.019531 43.21875 86.09375 43.960938 86.242188 C 44.699219 86.386719 45.417969 86.605469 46.117188 86.894531 C 46.816406 87.183594 47.480469 87.539062 48.105469 87.960938 C 48.734375 88.378906 49.316406 88.855469 49.851562 89.390625 C 50.386719 89.925781 50.863281 90.503906 51.28125 91.132812 C 51.703125 91.761719 52.054688 92.425781 52.34375 93.125 C 52.632812 93.820312 52.851562 94.539062 53 95.28125 C 53.148438 96.023438 53.222656 96.769531 53.222656 97.527344 C 53.222656 98.28125 53.148438 99.03125 53 99.773438 C 52.851562 100.511719 52.632812 101.234375 52.34375 101.929688 C 52.054688 102.628906 51.703125 103.292969 51.28125 103.921875 C 50.863281 104.546875 50.386719 105.128906 49.851562 105.664062 C 49.316406 106.199219 48.734375 106.675781 48.105469 107.09375 C 47.480469 107.515625 46.816406 107.867188 46.117188 108.15625 C 45.417969 108.449219 44.699219 108.664062 43.960938 108.8125 C 43.21875 108.960938 42.46875 109.035156 41.714844 109.035156 C 40.957031 109.035156 40.210938 108.960938 39.46875 108.8125 C 38.726562 108.664062 38.007812 108.449219 37.3125 108.15625 C 36.613281 107.867188 35.949219 107.515625 35.320312 107.09375 C 34.691406 106.675781 34.113281 106.199219 33.578125 105.664062 C 33.042969 105.128906 32.566406 104.546875 32.144531 103.921875 C 31.726562 103.292969 31.371094 102.628906 31.082031 101.929688 C 30.792969 101.234375 30.574219 100.511719 30.429688 99.773438 C 30.28125 99.03125 30.207031 98.28125 30.207031 97.527344 C 30.207031 96.769531 30.28125 96.023438 30.429688 95.28125 C 30.574219 94.539062 30.792969 93.820312 31.082031 93.125 C 31.371094 92.425781 31.726562 91.761719 32.144531 91.132812 C 32.566406 90.503906 33.042969 89.925781 33.578125 89.390625 C 34.113281 88.855469 34.691406 88.378906 35.320312 87.960938 C 35.949219 87.539062 36.613281 87.183594 37.3125 86.894531 C 38.007812 86.605469 38.726562 86.386719 39.46875 86.242188 C 40.210938 86.09375 40.957031 86.019531 41.714844 86.019531 Z M 41.714844 86.019531 " fill-opacity="1" fill-rule="nonzero"/><path fill="#872341" d="M 145.277344 114.789062 C 145.84375 114.789062 146.40625 114.761719 146.96875 114.703125 C 147.53125 114.648438 148.089844 114.566406 148.644531 114.457031 C 149.199219 114.347656 149.75 114.207031 150.289062 114.042969 C 150.832031 113.878906 151.363281 113.691406 151.882812 113.472656 C 152.40625 113.257812 152.917969 113.015625 153.414062 112.75 C 153.914062 112.484375 154.398438 112.191406 154.867188 111.878906 C 155.339844 111.566406 155.792969 111.226562 156.230469 110.871094 C 156.664062 110.511719 157.085938 110.132812 157.484375 109.730469 C 157.882812 109.332031 158.261719 108.914062 158.621094 108.476562 C 158.980469 108.039062 159.316406 107.585938 159.628906 107.117188 C 159.945312 106.648438 160.234375 106.164062 160.5 105.664062 C 160.769531 105.164062 161.007812 104.65625 161.226562 104.132812 C 161.441406 103.609375 161.632812 103.078125 161.796875 102.539062 C 161.960938 101.996094 162.097656 101.449219 162.207031 100.894531 C 162.316406 100.339844 162.402344 99.78125 162.457031 99.21875 C 162.511719 98.65625 162.539062 98.09375 162.539062 97.527344 C 162.539062 96.960938 162.511719 96.398438 162.457031 95.835938 C 162.402344 95.273438 162.316406 94.714844 162.207031 94.160156 C 162.097656 93.605469 161.960938 93.058594 161.796875 92.515625 C 161.632812 91.976562 161.441406 91.445312 161.226562 90.921875 C 161.007812 90.398438 160.769531 89.890625 160.5 89.390625 C 160.234375 88.890625 159.945312 88.40625 159.628906 87.9375 C 159.316406 87.46875 158.980469 87.015625 158.621094 86.578125 C 158.261719 86.140625 157.882812 85.722656 157.484375 85.320312 C 157.085938 84.921875 156.664062 84.542969 156.230469 84.183594 C 155.792969 83.824219 155.339844 83.488281 154.867188 83.175781 C 154.398438 82.859375 153.914062 82.570312 153.414062 82.304688 C 152.917969 82.039062 152.40625 81.796875 151.882812 81.582031 C 151.363281 81.363281 150.832031 81.171875 150.289062 81.007812 C 149.75 80.84375 149.199219 80.707031 148.644531 80.597656 C 148.089844 80.488281 147.53125 80.40625 146.96875 80.347656 C 146.40625 80.292969 145.84375 80.265625 145.277344 80.265625 C 144.714844 80.265625 144.148438 80.292969 143.585938 80.347656 C 143.023438 80.40625 142.464844 80.488281 141.910156 80.597656 C 141.355469 80.707031 140.808594 80.84375 140.269531 81.007812 C 139.726562 81.171875 139.195312 81.363281 138.671875 81.582031 C 138.152344 81.796875 137.640625 82.039062 137.140625 82.304688 C 136.644531 82.570312 136.160156 82.859375 135.6875 83.175781 C 135.21875 83.488281 134.765625 83.824219 134.328125 84.183594 C 133.890625 84.542969 133.472656 84.921875 133.074219 85.320312 C 132.671875 85.722656 132.292969 86.140625 131.9375 86.578125 C 131.578125 87.015625 131.242188 87.46875 130.925781 87.9375 C 130.613281 88.40625 130.324219 88.890625 130.054688 89.390625 C 129.789062 89.890625 129.546875 90.398438 129.332031 90.921875 C 129.117188 91.445312 128.925781 91.976562 128.761719 92.515625 C 128.597656 93.058594 128.460938 93.605469 128.347656 94.160156 C 128.238281 94.714844 128.15625 95.273438 128.101562 95.835938 C 128.046875 96.398438 128.019531 96.960938 128.019531 97.527344 C 128.019531 98.09375 128.046875 98.65625 128.101562 99.21875 C 128.15625 99.78125 128.238281 100.339844 128.347656 100.894531 C 128.460938 101.449219 128.597656 101.996094 128.761719 102.539062 C 128.925781 103.078125 129.117188 103.609375 129.332031 104.132812 C 129.546875 104.65625 129.789062 105.164062 130.054688 105.664062 C 130.324219 106.164062 130.613281 106.648438 130.925781 107.117188 C 131.242188 107.585938 131.578125 108.039062 131.9375 108.476562 C 132.292969 108.914062 132.671875 109.332031 133.074219 109.730469 C 133.472656 110.132812 133.890625 110.511719 134.328125 110.871094 C 134.765625 111.226562 135.21875 111.566406 135.6875 111.878906 C 136.160156 112.191406 136.644531 112.484375 137.140625 112.75 C 137.640625 113.015625 138.152344 113.257812 138.671875 113.472656 C 139.195312 113.691406 139.726562 113.878906 140.269531 114.042969 C 140.808594 114.207031 141.355469 114.347656 141.910156 114.457031 C 142.464844 114.566406 143.023438 114.648438 143.585938 114.703125 C 144.148438 114.761719 144.714844 114.789062 145.277344 114.789062 Z M 145.277344 86.019531 C 146.035156 86.019531 146.78125 86.09375 147.523438 86.242188 C 148.265625 86.386719 148.984375 86.605469 149.683594 86.894531 C 150.378906 87.183594 151.042969 87.539062 151.671875 87.960938 C 152.300781 88.378906 152.882812 88.855469 153.414062 89.390625 C 153.949219 89.925781 154.425781 90.503906 154.847656 91.132812 C 155.265625 91.761719 155.621094 92.425781 155.910156 93.125 C 156.199219 93.820312 156.417969 94.539062 156.566406 95.28125 C 156.710938 96.023438 156.785156 96.769531 156.785156 97.527344 C 156.785156 98.28125 156.710938 99.03125 156.566406 99.773438 C 156.417969 100.511719 156.199219 101.234375 155.910156 101.929688 C 155.621094 102.628906 155.265625 103.292969 154.847656 103.921875 C 154.425781 104.546875 153.949219 105.128906 153.414062 105.664062 C 152.882812 106.199219 152.300781 106.675781 151.671875 107.09375 C 151.042969 107.515625 150.378906 107.867188 149.683594 108.15625 C 148.984375 108.449219 148.265625 108.664062 147.523438 108.8125 C 146.78125 108.960938 146.035156 109.035156 145.277344 109.035156 C 144.523438 109.035156 143.773438 108.960938 143.035156 108.8125 C 142.292969 108.664062 141.574219 108.449219 140.875 108.15625 C 140.175781 107.867188 139.515625 107.515625 138.886719 107.09375 C 138.257812 106.675781 137.675781 106.199219 137.140625 105.664062 C 136.609375 105.128906 136.128906 104.546875 135.710938 103.921875 C 135.292969 103.292969 134.9375 102.628906 134.648438 101.929688 C 134.359375 101.234375 134.140625 100.511719 133.992188 99.773438 C 133.84375 99.03125 133.769531 98.28125 133.773438 97.527344 C 133.769531 96.769531 133.84375 96.023438 133.992188 95.28125 C 134.140625 94.539062 134.359375 93.820312 134.648438 93.125 C 134.9375 92.425781 135.292969 91.761719 135.710938 91.132812 C 136.128906 90.503906 136.609375 89.925781 137.140625 89.390625 C 137.675781 88.855469 138.257812 88.378906 138.886719 87.960938 C 139.515625 87.539062 140.175781 87.183594 140.875 86.894531 C 141.574219 86.605469 142.292969 86.386719 143.035156 86.242188 C 143.773438 86.09375 144.523438 86.019531 145.277344 86.019531 Z M 145.277344 86.019531 " fill-opacity="1" fill-rule="nonzero"/><g clip-path="url(#637811a44e)"><path fill="#872341" d="M 182.675781 166.570312 L 174.910156 166.570312 C 176.222656 164.878906 176.894531 162.960938 176.921875 160.816406 L 176.921875 134.925781 C 176.921875 125.402344 167.890625 117.664062 156.785156 117.664062 L 133.773438 117.664062 C 123.816406 117.664062 115.53125 123.90625 113.949219 132.046875 L 102.125 132.046875 C 101.683594 132.046875 101.261719 132.140625 100.863281 132.332031 C 100.464844 132.523438 100.128906 132.792969 99.855469 133.140625 C 99.582031 133.492188 99.398438 133.882812 99.308594 134.320312 C 99.21875 134.753906 99.226562 135.183594 99.335938 135.617188 L 107.074219 166.570312 L 79.917969 166.570312 L 87.742188 135.617188 C 87.851562 135.183594 87.859375 134.753906 87.769531 134.320312 C 87.679688 133.882812 87.496094 133.492188 87.226562 133.140625 C 86.941406 132.78125 86.589844 132.507812 86.175781 132.3125 C 85.761719 132.121094 85.324219 132.03125 84.867188 132.046875 L 73.042969 132.046875 C 71.460938 123.90625 63.175781 117.664062 53.222656 117.664062 L 30.207031 117.664062 C 19.101562 117.664062 10.070312 125.402344 10.070312 134.925781 L 10.070312 160.816406 C 10.097656 162.960938 10.769531 164.878906 12.082031 166.570312 L 4.316406 166.570312 C 3.933594 166.570312 3.566406 166.644531 3.214844 166.789062 C 2.863281 166.933594 2.550781 167.144531 2.28125 167.414062 C 2.011719 167.683594 1.804688 167.992188 1.65625 168.347656 C 1.511719 168.699219 1.4375 169.066406 1.4375 169.445312 C 1.4375 169.828125 1.511719 170.195312 1.65625 170.546875 C 1.804688 170.898438 2.011719 171.210938 2.28125 171.480469 C 2.550781 171.75 2.863281 171.957031 3.214844 172.105469 C 3.566406 172.25 3.933594 172.324219 4.316406 172.324219 L 182.675781 172.324219 C 183.058594 172.324219 183.425781 172.25 183.777344 172.105469 C 184.128906 171.957031 184.441406 171.75 184.710938 171.480469 C 184.980469 171.210938 185.1875 170.898438 185.335938 170.546875 C 185.480469 170.195312 185.554688 169.828125 185.554688 169.445312 C 185.554688 169.066406 185.480469 168.699219 185.335938 168.347656 C 185.1875 167.992188 184.980469 167.683594 184.710938 167.414062 C 184.441406 167.144531 184.128906 166.933594 183.777344 166.789062 C 183.425781 166.644531 183.058594 166.570312 182.675781 166.570312 Z M 50.34375 166.570312 L 24.453125 166.570312 C 19.765625 166.570312 15.824219 163.921875 15.824219 160.816406 L 15.824219 134.925781 C 15.824219 128.566406 22.265625 123.417969 30.207031 123.417969 L 53.222656 123.417969 C 53.945312 123.375 54.671875 123.390625 55.394531 123.457031 C 56.117188 123.527344 56.832031 123.652344 57.535156 123.832031 C 58.242188 124.011719 58.929688 124.242188 59.597656 124.527344 C 60.265625 124.8125 60.90625 125.148438 61.523438 125.53125 C 62.140625 125.914062 62.726562 126.34375 63.277344 126.820312 C 63.828125 127.292969 64.339844 127.804688 64.8125 128.359375 C 65.28125 128.910156 65.710938 129.496094 66.089844 130.117188 C 66.472656 130.734375 66.804688 131.378906 67.085938 132.046875 L 44.589844 132.046875 C 44.261719 132.039062 43.941406 132.085938 43.628906 132.183594 C 43.316406 132.285156 43.027344 132.433594 42.765625 132.632812 C 42.503906 132.832031 42.285156 133.070312 42.101562 133.34375 C 41.921875 133.617188 41.792969 133.914062 41.714844 134.234375 L 36.59375 155.0625 L 30.207031 155.0625 L 30.207031 146.433594 C 30.207031 146.050781 30.132812 145.683594 29.988281 145.332031 C 29.84375 144.980469 29.632812 144.667969 29.363281 144.398438 C 29.09375 144.128906 28.785156 143.921875 28.429688 143.773438 C 28.078125 143.628906 27.710938 143.554688 27.332031 143.554688 C 26.949219 143.554688 26.582031 143.628906 26.230469 143.773438 C 25.878906 143.921875 25.566406 144.128906 25.296875 144.398438 C 25.027344 144.667969 24.820312 144.980469 24.671875 145.332031 C 24.527344 145.683594 24.453125 146.050781 24.453125 146.433594 L 24.453125 157.941406 C 24.453125 158.320312 24.527344 158.6875 24.671875 159.039062 C 24.820312 159.394531 25.027344 159.703125 25.296875 159.972656 C 25.566406 160.242188 25.878906 160.453125 26.230469 160.597656 C 26.582031 160.742188 26.949219 160.816406 27.332031 160.816406 L 58.484375 160.816406 C 58.1875 161.65625 57.769531 162.433594 57.230469 163.148438 C 56.691406 163.859375 56.058594 164.472656 55.328125 164.988281 C 54.601562 165.503906 53.8125 165.894531 52.960938 166.164062 C 52.109375 166.4375 51.238281 166.570312 50.34375 166.570312 Z M 73.992188 166.570312 L 61.851562 166.570312 C 62.792969 165.328125 63.511719 163.96875 64.003906 162.492188 C 64.496094 161.015625 64.738281 159.496094 64.730469 157.941406 C 64.730469 157.558594 64.65625 157.191406 64.507812 156.839844 C 64.363281 156.484375 64.15625 156.175781 63.886719 155.90625 C 63.617188 155.636719 63.304688 155.425781 62.953125 155.28125 C 62.601562 155.136719 62.234375 155.0625 61.851562 155.0625 L 42.519531 155.0625 L 46.835938 137.800781 L 81.183594 137.800781 Z M 113 166.570312 L 105.808594 137.800781 L 140.15625 137.800781 L 144.472656 155.0625 L 125.140625 155.0625 C 124.757812 155.0625 124.394531 155.136719 124.039062 155.28125 C 123.6875 155.429688 123.375 155.636719 123.105469 155.90625 C 122.835938 156.175781 122.628906 156.484375 122.484375 156.839844 C 122.335938 157.191406 122.265625 157.558594 122.265625 157.941406 C 122.257812 159.496094 122.496094 161.015625 122.992188 162.492188 C 123.484375 163.96875 124.199219 165.328125 125.140625 166.570312 Z M 171.167969 160.816406 C 171.167969 163.921875 167.230469 166.570312 162.539062 166.570312 L 136.648438 166.570312 C 135.753906 166.570312 134.882812 166.4375 134.03125 166.164062 C 133.183594 165.894531 132.390625 165.503906 131.664062 164.988281 C 130.933594 164.472656 130.300781 163.859375 129.761719 163.148438 C 129.222656 162.433594 128.804688 161.65625 128.507812 160.816406 L 159.664062 160.816406 C 160.042969 160.816406 160.410156 160.742188 160.761719 160.597656 C 161.117188 160.453125 161.425781 160.242188 161.695312 159.972656 C 161.964844 159.703125 162.175781 159.394531 162.320312 159.039062 C 162.464844 158.6875 162.539062 158.320312 162.539062 157.941406 L 162.539062 146.433594 C 162.539062 146.050781 162.464844 145.683594 162.320312 145.332031 C 162.175781 144.980469 161.964844 144.667969 161.695312 144.398438 C 161.425781 144.128906 161.117188 143.921875 160.761719 143.773438 C 160.410156 143.628906 160.042969 143.554688 159.664062 143.554688 C 159.28125 143.554688 158.914062 143.628906 158.5625 143.773438 C 158.210938 143.921875 157.898438 144.128906 157.628906 144.398438 C 157.359375 144.667969 157.152344 144.980469 157.003906 145.332031 C 156.859375 145.683594 156.785156 146.050781 156.785156 146.433594 L 156.785156 155.0625 L 150.398438 155.0625 L 145.277344 134.234375 C 145.199219 133.914062 145.070312 133.617188 144.890625 133.34375 C 144.710938 133.070312 144.488281 132.832031 144.226562 132.632812 C 143.964844 132.433594 143.675781 132.285156 143.363281 132.183594 C 143.050781 132.085938 142.730469 132.039062 142.402344 132.046875 L 119.90625 132.046875 C 120.1875 131.378906 120.519531 130.734375 120.902344 130.117188 C 121.28125 129.496094 121.710938 128.910156 122.183594 128.359375 C 122.652344 127.804688 123.164062 127.292969 123.714844 126.820312 C 124.265625 126.34375 124.851562 125.914062 125.46875 125.53125 C 126.085938 125.148438 126.726562 124.8125 127.398438 124.527344 C 128.066406 124.242188 128.75 124.011719 129.457031 123.832031 C 130.160156 123.652344 130.875 123.527344 131.597656 123.457031 C 132.320312 123.390625 133.046875 123.375 133.773438 123.417969 L 156.785156 123.417969 C 164.726562 123.417969 171.167969 128.566406 171.167969 134.925781 Z M 171.167969 160.816406 " fill-opacity="1" fill-rule="nonzero"/></g><path fill="#872341" d="M 132.363281 48.621094 C 132.363281 47.773438 132.320312 46.925781 132.238281 46.082031 C 132.152344 45.238281 132.03125 44.402344 131.863281 43.570312 C 131.699219 42.738281 131.492188 41.917969 131.246094 41.105469 C 131 40.292969 130.714844 39.496094 130.390625 38.714844 C 130.066406 37.929688 129.703125 37.164062 129.304688 36.417969 C 128.90625 35.667969 128.46875 34.941406 128 34.238281 C 127.527344 33.53125 127.023438 32.851562 126.484375 32.195312 C 125.945312 31.539062 125.378906 30.914062 124.777344 30.3125 C 124.179688 29.714844 123.550781 29.144531 122.894531 28.609375 C 122.242188 28.070312 121.558594 27.566406 120.855469 27.09375 C 120.148438 26.621094 119.421875 26.1875 118.675781 25.789062 C 117.929688 25.386719 117.164062 25.027344 116.378906 24.703125 C 115.59375 24.375 114.796875 24.089844 113.988281 23.84375 C 113.175781 23.597656 112.355469 23.394531 111.523438 23.226562 C 110.691406 23.0625 109.851562 22.9375 109.007812 22.855469 C 108.164062 22.773438 107.320312 22.730469 106.472656 22.730469 C 103.683594 22.730469 100.96875 23.179688 98.328125 24.082031 C 97.671875 23.4375 96.984375 22.832031 96.261719 22.261719 C 95.539062 21.691406 94.789062 21.160156 94.011719 20.667969 C 93.230469 20.179688 92.429688 19.730469 91.601562 19.328125 C 90.777344 18.921875 89.929688 18.5625 89.066406 18.246094 C 88.203125 17.933594 87.324219 17.664062 86.429688 17.441406 C 85.535156 17.222656 84.632812 17.046875 83.722656 16.925781 C 82.8125 16.800781 81.894531 16.722656 80.976562 16.695312 C 80.054688 16.667969 79.136719 16.691406 78.21875 16.761719 C 77.304688 16.832031 76.390625 16.949219 75.488281 17.117188 C 74.582031 17.285156 73.6875 17.5 72.808594 17.765625 C 71.925781 18.027344 71.0625 18.335938 70.210938 18.691406 C 69.363281 19.046875 68.535156 19.445312 67.730469 19.890625 C 66.921875 20.332031 66.144531 20.820312 65.386719 21.34375 C 64.632812 21.871094 63.910156 22.4375 63.214844 23.042969 C 62.519531 23.644531 61.859375 24.285156 61.234375 24.957031 C 60.609375 25.632812 60.019531 26.339844 59.46875 27.074219 C 58.917969 27.8125 58.410156 28.578125 57.9375 29.367188 C 57.46875 30.160156 57.042969 30.972656 56.660156 31.8125 C 56.277344 32.648438 55.941406 33.503906 55.652344 34.375 C 55.359375 35.246094 55.113281 36.132812 54.917969 37.03125 C 54.722656 37.929688 54.570312 38.835938 54.472656 39.753906 C 54.371094 40.667969 54.320312 41.585938 54.316406 42.503906 C 54.316406 43.425781 54.363281 44.34375 54.457031 45.257812 C 54.550781 46.171875 54.695312 47.082031 54.886719 47.980469 C 55.078125 48.878906 55.320312 49.765625 55.605469 50.640625 C 55.890625 51.515625 56.226562 52.371094 56.601562 53.210938 C 56.980469 54.050781 57.402344 54.867188 57.867188 55.660156 C 58.332031 56.453125 58.839844 57.222656 59.386719 57.960938 C 59.933594 58.703125 60.515625 59.410156 61.140625 60.089844 C 61.761719 60.765625 62.417969 61.410156 63.109375 62.015625 C 63.800781 62.625 64.519531 63.191406 65.273438 63.722656 C 66.023438 64.253906 66.800781 64.742188 67.605469 65.191406 L 66.339844 74.109375 C 66.242188 74.667969 66.308594 75.210938 66.53125 75.730469 C 66.757812 76.253906 67.105469 76.671875 67.578125 76.988281 C 68.0625 77.3125 68.601562 77.476562 69.1875 77.476562 C 69.699219 77.480469 70.179688 77.355469 70.625 77.101562 L 85.988281 68.300781 C 86.964844 68.089844 87.921875 67.820312 88.863281 67.492188 C 90.582031 69.132812 92.488281 70.507812 94.585938 71.621094 C 96.679688 72.734375 98.886719 73.546875 101.207031 74.050781 L 116.511719 82.769531 C 116.957031 83.023438 117.4375 83.148438 117.949219 83.144531 C 118.535156 83.144531 119.074219 82.980469 119.558594 82.652344 C 120.03125 82.339844 120.378906 81.921875 120.605469 81.398438 C 120.828125 80.878906 120.894531 80.335938 120.796875 79.777344 L 119.53125 70.859375 C 120.5 70.292969 121.425781 69.667969 122.3125 68.980469 C 123.199219 68.296875 124.039062 67.554688 124.828125 66.761719 C 125.617188 65.96875 126.355469 65.125 127.035156 64.234375 C 127.714844 63.34375 128.335938 62.414062 128.898438 61.441406 C 129.457031 60.472656 129.953125 59.46875 130.382812 58.433594 C 130.8125 57.398438 131.171875 56.339844 131.464844 55.257812 C 131.757812 54.175781 131.980469 53.078125 132.128906 51.96875 C 132.277344 50.859375 132.355469 49.742188 132.363281 48.621094 Z M 84.320312 62.660156 C 84.007812 62.726562 83.710938 62.832031 83.425781 62.976562 L 72.753906 69.105469 L 73.359375 64.011719 C 73.417969 63.410156 73.300781 62.847656 73.007812 62.320312 C 72.710938 61.792969 72.292969 61.398438 71.746094 61.136719 C 71.035156 60.792969 70.34375 60.410156 69.675781 59.984375 C 69.011719 59.5625 68.371094 59.101562 67.757812 58.601562 C 67.144531 58.101562 66.5625 57.566406 66.011719 57 C 65.460938 56.429688 64.945312 55.832031 64.464844 55.203125 C 63.984375 54.574219 63.542969 53.921875 63.140625 53.242188 C 62.738281 52.558594 62.378906 51.859375 62.058594 51.136719 C 61.738281 50.410156 61.460938 49.671875 61.230469 48.917969 C 60.996094 48.160156 60.808594 47.394531 60.664062 46.617188 C 60.523438 45.835938 60.425781 45.054688 60.375 44.265625 C 60.324219 43.476562 60.324219 42.6875 60.367188 41.898438 C 60.40625 41.105469 60.496094 40.324219 60.632812 39.542969 C 60.765625 38.765625 60.949219 37.996094 61.171875 37.238281 C 61.398438 36.480469 61.667969 35.738281 61.980469 35.011719 C 62.296875 34.285156 62.648438 33.578125 63.046875 32.894531 C 63.441406 32.210938 63.878906 31.550781 64.351562 30.917969 C 64.824219 30.285156 65.335938 29.683594 65.878906 29.109375 C 66.425781 28.535156 67 27.996094 67.609375 27.492188 C 68.21875 26.988281 68.855469 26.519531 69.519531 26.089844 C 70.183594 25.660156 70.867188 25.269531 71.578125 24.921875 C 72.289062 24.570312 73.015625 24.265625 73.761719 24 C 74.507812 23.738281 75.265625 23.519531 76.035156 23.34375 C 76.808594 23.167969 77.585938 23.042969 78.375 22.957031 C 79.160156 22.875 79.949219 22.839844 80.738281 22.851562 C 81.53125 22.859375 82.316406 22.917969 83.101562 23.019531 C 83.886719 23.125 84.660156 23.273438 85.425781 23.46875 C 86.195312 23.664062 86.945312 23.902344 87.683594 24.183594 C 88.421875 24.46875 89.140625 24.792969 89.84375 25.160156 C 90.542969 25.53125 91.21875 25.9375 91.871094 26.382812 C 92.523438 26.832031 93.144531 27.316406 93.742188 27.835938 C 94.335938 28.359375 94.898438 28.914062 95.429688 29.5 C 95.957031 30.085938 96.449219 30.703125 96.90625 31.347656 C 97.363281 31.996094 97.78125 32.664062 98.160156 33.359375 C 98.539062 34.054688 98.875 34.769531 99.167969 35.503906 C 99.460938 36.238281 99.710938 36.984375 99.917969 37.75 C 100.125 38.511719 100.285156 39.285156 100.398438 40.070312 C 100.511719 40.851562 100.582031 41.636719 100.601562 42.429688 C 100.625 43.21875 100.601562 44.007812 100.53125 44.796875 C 100.457031 45.582031 100.339844 46.363281 100.179688 47.136719 C 100.015625 47.910156 99.808594 48.671875 99.554688 49.421875 C 99.300781 50.171875 99.007812 50.902344 98.667969 51.617188 C 98.328125 52.332031 97.949219 53.023438 97.527344 53.695312 C 97.105469 54.363281 96.648438 55.007812 96.152344 55.621094 C 95.65625 56.238281 95.125 56.824219 94.558594 57.375 C 93.996094 57.929688 93.398438 58.449219 92.773438 58.929688 C 92.148438 59.414062 91.496094 59.859375 90.816406 60.265625 C 90.136719 60.671875 89.4375 61.035156 88.714844 61.359375 C 87.996094 61.683594 87.257812 61.964844 86.503906 62.199219 C 85.746094 62.4375 84.980469 62.628906 84.203125 62.773438 Z M 115.1875 66.773438 C 114.644531 67.035156 114.222656 67.433594 113.929688 67.957031 C 113.632812 68.484375 113.515625 69.050781 113.578125 69.652344 L 114.296875 74.742188 L 103.621094 68.757812 C 103.339844 68.613281 103.042969 68.507812 102.730469 68.441406 C 99.691406 67.847656 96.9375 66.609375 94.472656 64.730469 C 95.191406 64.273438 95.882812 63.785156 96.550781 63.261719 C 97.21875 62.734375 97.859375 62.179688 98.476562 61.589844 C 99.089844 61.003906 99.671875 60.386719 100.222656 59.742188 C 100.777344 59.097656 101.296875 58.425781 101.785156 57.730469 C 102.269531 57.03125 102.722656 56.3125 103.136719 55.574219 C 103.554688 54.832031 103.933594 54.074219 104.273438 53.296875 C 104.617188 52.515625 104.917969 51.722656 105.179688 50.917969 C 105.445312 50.109375 105.667969 49.289062 105.851562 48.460938 C 106.03125 47.628906 106.175781 46.792969 106.273438 45.949219 C 106.375 45.105469 106.433594 44.257812 106.449219 43.410156 C 106.46875 42.558594 106.441406 41.710938 106.375 40.863281 C 106.308594 40.019531 106.199219 39.175781 106.050781 38.339844 C 105.902344 37.503906 105.710938 36.675781 105.480469 35.859375 C 105.25 35.039062 104.980469 34.234375 104.667969 33.445312 C 104.359375 32.652344 104.011719 31.878906 103.625 31.125 C 103.238281 30.367188 102.816406 29.628906 102.355469 28.914062 C 103.714844 28.625 105.085938 28.480469 106.472656 28.484375 C 107.601562 28.488281 108.722656 28.589844 109.839844 28.78125 C 110.953125 28.976562 112.042969 29.261719 113.109375 29.640625 C 114.175781 30.019531 115.203125 30.480469 116.191406 31.03125 C 117.179688 31.582031 118.113281 32.214844 118.996094 32.921875 C 119.875 33.628906 120.691406 34.40625 121.441406 35.253906 C 122.195312 36.097656 122.867188 37 123.46875 37.960938 C 124.066406 38.921875 124.582031 39.921875 125.011719 40.96875 C 125.441406 42.015625 125.78125 43.089844 126.027344 44.195312 C 126.277344 45.296875 126.429688 46.414062 126.492188 47.542969 C 126.550781 48.671875 126.519531 49.796875 126.390625 50.921875 C 126.261719 52.046875 126.039062 53.152344 125.722656 54.238281 C 125.40625 55.324219 125.003906 56.375 124.511719 57.394531 C 124.015625 58.410156 123.441406 59.382812 122.785156 60.300781 C 122.132812 61.222656 121.402344 62.082031 120.601562 62.882812 C 119.800781 63.679688 118.9375 64.40625 118.015625 65.058594 C 117.09375 65.714844 116.121094 66.285156 115.101562 66.773438 Z M 115.1875 66.773438 " fill-opacity="1" fill-rule="nonzero"/><path fill="#872341" d="M 76.265625 42.867188 C 76.265625 43.152344 76.238281 43.433594 76.179688 43.710938 C 76.125 43.988281 76.042969 44.257812 75.9375 44.519531 C 75.828125 44.78125 75.695312 45.03125 75.539062 45.265625 C 75.378906 45.5 75.199219 45.71875 75 45.917969 C 74.800781 46.121094 74.582031 46.296875 74.347656 46.457031 C 74.109375 46.613281 73.863281 46.746094 73.601562 46.855469 C 73.339844 46.964844 73.070312 47.046875 72.792969 47.101562 C 72.511719 47.15625 72.234375 47.183594 71.949219 47.183594 C 71.664062 47.183594 71.386719 47.15625 71.109375 47.101562 C 70.828125 47.046875 70.558594 46.964844 70.296875 46.855469 C 70.035156 46.746094 69.789062 46.613281 69.550781 46.457031 C 69.316406 46.296875 69.097656 46.121094 68.898438 45.917969 C 68.699219 45.71875 68.519531 45.5 68.363281 45.265625 C 68.203125 45.03125 68.070312 44.78125 67.960938 44.519531 C 67.855469 44.257812 67.773438 43.988281 67.71875 43.710938 C 67.660156 43.433594 67.632812 43.152344 67.632812 42.867188 C 67.632812 42.585938 67.660156 42.304688 67.71875 42.027344 C 67.773438 41.75 67.855469 41.476562 67.960938 41.214844 C 68.070312 40.953125 68.203125 40.707031 68.363281 40.46875 C 68.519531 40.234375 68.699219 40.015625 68.898438 39.816406 C 69.097656 39.617188 69.316406 39.4375 69.550781 39.28125 C 69.789062 39.121094 70.035156 38.988281 70.296875 38.882812 C 70.558594 38.773438 70.828125 38.691406 71.109375 38.636719 C 71.386719 38.582031 71.664062 38.554688 71.949219 38.554688 C 72.234375 38.554688 72.511719 38.582031 72.792969 38.636719 C 73.070312 38.691406 73.339844 38.773438 73.601562 38.882812 C 73.863281 38.988281 74.109375 39.121094 74.347656 39.28125 C 74.582031 39.4375 74.800781 39.617188 75 39.816406 C 75.199219 40.015625 75.378906 40.234375 75.539062 40.46875 C 75.695312 40.707031 75.828125 40.953125 75.9375 41.214844 C 76.042969 41.476562 76.125 41.75 76.179688 42.027344 C 76.238281 42.304688 76.265625 42.585938 76.265625 42.867188 Z M 76.265625 42.867188 " fill-opacity="1" fill-rule="nonzero"/><path fill="#872341" d="M 84.894531 42.867188 C 84.894531 43.152344 84.867188 43.433594 84.8125 43.710938 C 84.757812 43.988281 84.675781 44.257812 84.566406 44.519531 C 84.457031 44.78125 84.324219 45.03125 84.167969 45.265625 C 84.011719 45.5 83.832031 45.71875 83.632812 45.917969 C 83.429688 46.121094 83.210938 46.296875 82.976562 46.457031 C 82.742188 46.613281 82.492188 46.746094 82.230469 46.855469 C 81.96875 46.964844 81.699219 47.046875 81.421875 47.101562 C 81.144531 47.15625 80.863281 47.183594 80.578125 47.183594 C 80.296875 47.183594 80.015625 47.15625 79.738281 47.101562 C 79.460938 47.046875 79.191406 46.964844 78.929688 46.855469 C 78.667969 46.746094 78.417969 46.613281 78.183594 46.457031 C 77.945312 46.296875 77.730469 46.121094 77.527344 45.917969 C 77.328125 45.71875 77.148438 45.5 76.992188 45.265625 C 76.835938 45.03125 76.703125 44.78125 76.59375 44.519531 C 76.484375 44.257812 76.402344 43.988281 76.347656 43.710938 C 76.292969 43.433594 76.265625 43.152344 76.265625 42.867188 C 76.265625 42.585938 76.292969 42.304688 76.347656 42.027344 C 76.402344 41.75 76.484375 41.476562 76.59375 41.214844 C 76.703125 40.953125 76.835938 40.707031 76.992188 40.46875 C 77.148438 40.234375 77.328125 40.015625 77.527344 39.816406 C 77.730469 39.617188 77.945312 39.4375 78.183594 39.28125 C 78.417969 39.121094 78.667969 38.988281 78.929688 38.882812 C 79.191406 38.773438 79.460938 38.691406 79.738281 38.636719 C 80.015625 38.582031 80.296875 38.554688 80.578125 38.554688 C 80.863281 38.554688 81.144531 38.582031 81.421875 38.636719 C 81.699219 38.691406 81.96875 38.773438 82.230469 38.882812 C 82.492188 38.988281 82.742188 39.121094 82.976562 39.28125 C 83.210938 39.4375 83.429688 39.617188 83.632812 39.816406 C 83.832031 40.015625 84.011719 40.234375 84.167969 40.46875 C 84.324219 40.707031 84.457031 40.953125 84.566406 41.214844 C 84.675781 41.476562 84.757812 41.75 84.8125 42.027344 C 84.867188 42.304688 84.894531 42.585938 84.894531 42.867188 Z M 84.894531 42.867188 " fill-opacity="1" fill-rule="nonzero"/><path fill="#872341" d="M 93.523438 42.867188 C 93.523438 43.152344 93.496094 43.433594 93.441406 43.710938 C 93.386719 43.988281 93.304688 44.257812 93.195312 44.519531 C 93.089844 44.78125 92.957031 45.03125 92.796875 45.265625 C 92.640625 45.5 92.460938 45.71875 92.261719 45.917969 C 92.0625 46.121094 91.84375 46.296875 91.605469 46.457031 C 91.371094 46.613281 91.125 46.746094 90.863281 46.855469 C 90.601562 46.964844 90.328125 47.046875 90.050781 47.101562 C 89.773438 47.15625 89.492188 47.183594 89.210938 47.183594 C 88.925781 47.183594 88.644531 47.15625 88.367188 47.101562 C 88.089844 47.046875 87.820312 46.964844 87.558594 46.855469 C 87.296875 46.746094 87.046875 46.613281 86.8125 46.457031 C 86.578125 46.296875 86.359375 46.121094 86.160156 45.917969 C 85.957031 45.71875 85.78125 45.5 85.621094 45.265625 C 85.464844 45.03125 85.332031 44.78125 85.222656 44.519531 C 85.113281 44.257812 85.03125 43.988281 84.976562 43.710938 C 84.921875 43.433594 84.894531 43.152344 84.894531 42.867188 C 84.894531 42.585938 84.921875 42.304688 84.976562 42.027344 C 85.03125 41.75 85.113281 41.476562 85.222656 41.214844 C 85.332031 40.953125 85.464844 40.707031 85.621094 40.46875 C 85.78125 40.234375 85.957031 40.015625 86.160156 39.816406 C 86.359375 39.617188 86.578125 39.4375 86.8125 39.28125 C 87.046875 39.121094 87.296875 38.988281 87.558594 38.882812 C 87.820312 38.773438 88.089844 38.691406 88.367188 38.636719 C 88.644531 38.582031 88.925781 38.554688 89.210938 38.554688 C 89.492188 38.554688 89.773438 38.582031 90.050781 38.636719 C 90.328125 38.691406 90.601562 38.773438 90.863281 38.882812 C 91.125 38.988281 91.371094 39.121094 91.609375 39.28125 C 91.84375 39.4375 92.0625 39.617188 92.261719 39.816406 C 92.460938 40.015625 92.640625 40.234375 92.796875 40.46875 C 92.957031 40.707031 93.089844 40.953125 93.195312 41.214844 C 93.304688 41.476562 93.386719 41.75 93.441406 42.027344 C 93.496094 42.304688 93.523438 42.585938 93.523438 42.867188 Z M 93.523438 42.867188 " fill-opacity="1" fill-rule="nonzero"/></svg>