<svg xmlns="http://www.w3.org/2000/svg" xmlns:xlink="http://www.w3.org/1999/xlink" width="250" zoomAndPan="magnify" viewBox="0 0 187.5 187.499992" height="250" preserveAspectRatio="xMidYMid meet" version="1.0"><defs><clipPath id="23c0e1bc57"><path d="M 3.804688 3.804688 L 100 3.804688 L 100 89 L 3.804688 89 Z M 3.804688 3.804688 " clip-rule="nonzero"/></clipPath></defs><g clip-path="url(#23c0e1bc57)"><path fill="#872341" d="M 15.058594 76.949219 L 38.972656 76.949219 L 38.972656 82.578125 L 32.640625 82.578125 C 31.09375 82.578125 29.828125 83.84375 29.828125 85.390625 C 29.828125 86.9375 31.09375 88.203125 32.640625 88.203125 L 67.808594 88.203125 C 69.355469 88.203125 70.621094 86.9375 70.621094 85.390625 C 70.621094 83.84375 69.355469 82.578125 67.808594 82.578125 L 61.476562 82.578125 L 61.476562 76.949219 L 88.203125 76.949219 C 94.390625 76.949219 99.457031 71.886719 99.457031 65.699219 L 99.457031 15.058594 C 99.457031 8.871094 94.390625 3.804688 88.203125 3.804688 L 15.058594 3.804688 C 8.871094 3.804688 3.804688 8.871094 3.804688 15.058594 L 3.804688 65.699219 C 3.804688 71.886719 8.871094 76.949219 15.058594 76.949219 Z M 55.851562 82.578125 L 44.597656 82.578125 L 44.597656 76.949219 L 55.851562 76.949219 Z M 9.433594 15.058594 C 9.433594 11.964844 11.964844 9.433594 15.058594 9.433594 L 88.203125 9.433594 C 91.296875 9.433594 93.828125 11.964844 93.828125 15.058594 L 93.828125 58.664062 L 9.433594 58.664062 Z M 9.433594 64.289062 L 93.828125 64.289062 L 93.828125 65.699219 C 93.828125 68.792969 91.296875 71.324219 88.203125 71.324219 L 15.058594 71.324219 C 11.964844 71.324219 9.433594 68.792969 9.433594 65.699219 Z M 9.433594 64.289062 " fill-opacity="1" fill-rule="nonzero"/></g><path fill="#872341" d="M 172.601562 99.457031 L 99.457031 99.457031 C 93.265625 99.457031 88.203125 104.519531 88.203125 110.710938 L 88.203125 161.347656 C 88.203125 167.535156 93.265625 172.601562 99.457031 172.601562 L 123.367188 172.601562 L 123.367188 178.226562 L 117.039062 178.226562 C 115.492188 178.226562 114.226562 179.492188 114.226562 181.039062 C 114.226562 182.585938 115.492188 183.851562 117.039062 183.851562 L 152.203125 183.851562 C 153.75 183.851562 155.019531 182.585938 155.019531 181.039062 C 155.019531 179.492188 153.75 178.226562 152.203125 178.226562 L 145.875 178.226562 L 145.875 172.601562 L 172.601562 172.601562 C 178.789062 172.601562 183.851562 167.535156 183.851562 161.347656 L 183.851562 110.710938 C 183.851562 104.519531 178.789062 99.457031 172.601562 99.457031 Z M 140.25 178.226562 L 128.996094 178.226562 L 128.996094 172.601562 L 140.25 172.601562 Z M 172.601562 166.972656 L 99.457031 166.972656 C 96.363281 166.972656 93.828125 164.441406 93.828125 161.347656 L 178.226562 161.347656 C 178.226562 164.441406 175.695312 166.972656 172.601562 166.972656 Z M 178.226562 155.722656 L 93.828125 155.722656 L 93.828125 110.710938 C 93.828125 107.613281 96.363281 105.082031 99.457031 105.082031 L 172.601562 105.082031 C 175.695312 105.082031 178.226562 107.613281 178.226562 110.710938 Z M 178.226562 155.722656 " fill-opacity="1" fill-rule="nonzero"/><path fill="#872341" d="M 123.789062 42.910156 L 129.417969 42.910156 C 130.964844 42.910156 132.230469 41.644531 132.230469 40.097656 C 132.230469 38.550781 130.964844 37.285156 129.417969 37.285156 L 123.789062 37.285156 C 122.242188 37.285156 120.976562 38.550781 120.976562 40.097656 C 120.976562 41.644531 122.242188 42.910156 123.789062 42.910156 Z M 123.789062 42.910156 " fill-opacity="1" fill-rule="nonzero"/><path fill="#872341" d="M 138.839844 44.738281 C 138.839844 43.191406 137.574219 41.925781 136.027344 41.925781 C 134.480469 41.925781 133.214844 43.191406 133.214844 44.738281 L 133.214844 50.367188 C 133.214844 51.914062 134.480469 53.179688 136.027344 53.179688 C 137.574219 53.179688 138.839844 51.914062 138.839844 50.367188 Z M 138.839844 44.738281 " fill-opacity="1" fill-rule="nonzero"/><path fill="#872341" d="M 138.839844 61.617188 C 138.839844 60.070312 137.574219 58.804688 136.027344 58.804688 C 134.480469 58.804688 133.214844 60.070312 133.214844 61.617188 L 133.214844 67.246094 C 133.214844 68.792969 134.480469 70.058594 136.027344 70.058594 C 137.574219 70.058594 138.839844 68.792969 138.839844 67.246094 Z M 138.839844 61.617188 " fill-opacity="1" fill-rule="nonzero"/><path fill="#872341" d="M 106.910156 37.285156 C 105.363281 37.285156 104.097656 38.550781 104.097656 40.097656 C 104.097656 41.644531 105.363281 42.910156 106.910156 42.910156 L 112.539062 42.910156 C 114.085938 42.910156 115.351562 41.644531 115.351562 40.097656 C 115.351562 38.550781 114.085938 37.285156 112.539062 37.285156 Z M 106.910156 37.285156 " fill-opacity="1" fill-rule="nonzero"/><path fill="#872341" d="M 136.027344 75.683594 C 134.480469 75.683594 133.214844 76.949219 133.214844 78.496094 L 133.214844 84.125 C 133.214844 85.671875 134.480469 86.9375 136.027344 86.9375 C 137.574219 86.9375 138.839844 85.671875 138.839844 84.125 L 138.839844 78.496094 C 138.839844 76.949219 137.574219 75.683594 136.027344 75.683594 Z M 136.027344 75.683594 " fill-opacity="1" fill-rule="nonzero"/><path fill="#872341" d="M 80.75 132.933594 L 80.1875 132.933594 C 78.636719 132.933594 77.371094 134.199219 77.371094 135.746094 C 77.371094 137.292969 78.636719 138.558594 80.1875 138.558594 L 80.75 138.558594 C 82.296875 138.558594 83.5625 137.292969 83.5625 135.746094 C 83.5625 134.199219 82.296875 132.933594 80.75 132.933594 Z M 80.75 132.933594 " fill-opacity="1" fill-rule="nonzero"/><path fill="#872341" d="M 68.933594 138.558594 C 70.480469 138.558594 71.746094 137.292969 71.746094 135.746094 C 71.746094 134.199219 70.480469 132.933594 68.933594 132.933594 L 63.304688 132.933594 C 61.757812 132.933594 60.492188 134.199219 60.492188 135.746094 C 60.492188 137.292969 61.757812 138.558594 63.304688 138.558594 Z M 68.933594 138.558594 " fill-opacity="1" fill-rule="nonzero"/><path fill="#872341" d="M 48.816406 119.148438 C 48.816406 120.695312 50.085938 121.960938 51.632812 121.960938 C 53.179688 121.960938 54.445312 120.695312 54.445312 119.148438 L 54.445312 113.523438 C 54.445312 111.976562 53.179688 110.710938 51.632812 110.710938 C 50.085938 110.710938 48.816406 111.976562 48.816406 113.523438 Z M 48.816406 119.148438 " fill-opacity="1" fill-rule="nonzero"/><path fill="#872341" d="M 51.632812 105.082031 C 53.179688 105.082031 54.445312 103.816406 54.445312 102.269531 L 54.445312 96.644531 C 54.445312 95.097656 53.179688 93.828125 51.632812 93.828125 C 50.085938 93.828125 48.816406 95.097656 48.816406 96.644531 L 48.816406 102.269531 C 48.816406 103.816406 50.085938 105.082031 51.632812 105.082031 Z M 51.632812 105.082031 " fill-opacity="1" fill-rule="nonzero"/><path fill="#872341" d="M 48.816406 135.746094 C 48.816406 137.292969 50.085938 138.558594 51.632812 138.558594 L 52.054688 138.558594 C 53.601562 138.558594 54.867188 137.292969 54.867188 135.746094 C 54.867188 135.183594 54.726562 134.761719 54.445312 134.339844 L 54.445312 130.402344 C 54.445312 128.855469 53.179688 127.589844 51.632812 127.589844 C 50.085938 127.589844 48.816406 128.855469 48.816406 130.402344 Z M 48.816406 135.746094 " fill-opacity="1" fill-rule="nonzero"/><path fill="#872341" d="M 47.128906 27.71875 C 47.128906 26.03125 48.394531 24.484375 51.914062 24.484375 C 54.304688 24.484375 56.414062 25.46875 57.679688 26.734375 C 58.242188 27.296875 58.945312 27.71875 59.507812 27.71875 C 60.773438 27.71875 61.757812 26.734375 61.757812 25.46875 C 61.757812 24.90625 61.617188 24.484375 61.335938 24.203125 C 59.929688 22.234375 57.117188 20.828125 53.882812 20.40625 L 53.882812 17.871094 C 53.882812 16.746094 53.039062 15.902344 51.914062 15.902344 C 50.929688 15.902344 49.941406 16.746094 49.941406 17.871094 L 49.941406 20.261719 C 44.597656 20.828125 42.347656 24.0625 42.347656 27.71875 C 42.347656 37.707031 57.539062 35.03125 57.539062 41.082031 C 57.539062 43.613281 55.710938 44.878906 51.914062 44.878906 C 49.097656 44.878906 46.847656 43.472656 45.019531 41.785156 C 44.597656 41.363281 44.035156 40.800781 43.191406 40.800781 C 41.925781 40.800781 40.941406 41.785156 40.941406 43.050781 C 40.941406 43.472656 41.082031 43.894531 41.222656 44.175781 C 42.628906 46.425781 45.863281 48.675781 49.800781 49.097656 L 49.800781 51.492188 C 49.800781 52.617188 50.648438 53.460938 51.773438 53.460938 C 52.898438 53.460938 53.742188 52.617188 53.742188 51.492188 L 53.742188 49.097656 C 59.367188 48.535156 62.179688 45.582031 62.179688 40.941406 C 62.320312 30.671875 47.128906 33.203125 47.128906 27.71875 Z M 47.128906 27.71875 " fill-opacity="1" fill-rule="nonzero"/><path fill="#872341" d="M 131.527344 124.777344 C 131.527344 123.085938 132.792969 121.539062 136.308594 121.539062 C 138.699219 121.539062 140.8125 122.523438 142.078125 123.789062 C 142.640625 124.351562 143.34375 124.777344 143.90625 124.777344 C 145.171875 124.777344 146.15625 123.789062 146.15625 122.523438 C 146.15625 121.960938 146.015625 121.539062 145.734375 121.257812 C 144.328125 119.289062 141.515625 117.882812 138.277344 117.460938 L 138.277344 114.929688 C 138.277344 113.804688 137.433594 112.960938 136.308594 112.960938 C 135.324219 112.960938 134.339844 113.804688 134.339844 114.929688 L 134.339844 117.320312 C 128.996094 117.882812 126.746094 121.117188 126.746094 124.777344 C 126.746094 134.761719 141.9375 132.089844 141.9375 138.136719 C 141.9375 140.671875 140.109375 141.9375 136.308594 141.9375 C 133.496094 141.9375 131.246094 140.53125 129.417969 138.839844 C 128.996094 138.417969 128.433594 137.855469 127.589844 137.855469 C 126.324219 137.855469 125.339844 138.839844 125.339844 140.109375 C 125.339844 140.53125 125.480469 140.953125 125.621094 141.234375 C 127.027344 143.484375 130.261719 145.734375 134.199219 146.15625 L 134.199219 148.546875 C 134.199219 149.671875 135.042969 150.515625 136.167969 150.515625 C 137.292969 150.515625 138.136719 149.671875 138.136719 148.546875 L 138.136719 146.15625 C 143.765625 145.59375 146.578125 142.640625 146.578125 137.996094 C 146.71875 127.730469 131.527344 130.261719 131.527344 124.777344 Z M 131.527344 124.777344 " fill-opacity="1" fill-rule="nonzero"/></svg>