<svg xmlns="http://www.w3.org/2000/svg" xmlns:xlink="http://www.w3.org/1999/xlink" width="250" zoomAndPan="magnify" viewBox="0 0 187.5 187.499992" height="250" preserveAspectRatio="xMidYMid meet" version="1.0"><defs><clipPath id="50cb0443b9"><path d="M 8.695312 3 L 175.5 3 L 175.5 183.859375 L 8.695312 183.859375 Z M 8.695312 3 " clip-rule="nonzero"/></clipPath></defs><g clip-path="url(#50cb0443b9)"><path fill="#872341" d="M 127.921875 126.640625 C 128.363281 126.859375 128.828125 126.96875 129.320312 126.96875 C 129.957031 126.972656 130.53125 126.789062 131.046875 126.417969 L 173.890625 95.96875 C 174.089844 95.828125 174.265625 95.667969 174.425781 95.488281 C 174.585938 95.304688 174.71875 95.105469 174.832031 94.890625 C 174.941406 94.679688 175.027344 94.453125 175.082031 94.21875 C 175.140625 93.984375 175.167969 93.746094 175.167969 93.503906 C 175.167969 93.261719 175.140625 93.023438 175.082031 92.789062 C 175.027344 92.554688 174.941406 92.332031 174.832031 92.117188 C 174.71875 91.902344 174.585938 91.703125 174.425781 91.523438 C 174.265625 91.339844 174.089844 91.179688 173.890625 91.039062 L 131.046875 60.589844 C 130.53125 60.21875 129.957031 60.035156 129.320312 60.039062 C 128.828125 60.039062 128.363281 60.148438 127.921875 60.371094 C 127.421875 60.628906 127.027344 61.003906 126.738281 61.484375 C 126.445312 61.96875 126.300781 62.492188 126.304688 63.054688 L 126.304688 74.710938 L 103.613281 74.710938 C 102.691406 72.460938 101.609375 70.289062 100.367188 68.199219 C 99.125 66.105469 97.734375 64.117188 96.195312 62.234375 C 94.660156 60.347656 92.992188 58.582031 91.195312 56.945312 C 89.398438 55.304688 87.492188 53.804688 85.472656 52.449219 C 83.453125 51.089844 81.347656 49.886719 79.148438 48.84375 C 76.953125 47.796875 74.691406 46.917969 72.367188 46.203125 C 70.039062 45.492188 67.675781 44.953125 65.269531 44.59375 C 62.863281 44.230469 60.445312 44.046875 58.011719 44.039062 C 55.105469 44.046875 52.226562 44.316406 49.367188 44.851562 L 49.367188 26.460938 L 149.765625 26.460938 L 149.765625 49.300781 C 149.769531 49.699219 149.84375 50.082031 150 50.453125 C 150.152344 50.820312 150.371094 51.144531 150.652344 51.429688 C 150.933594 51.710938 151.261719 51.929688 151.628906 52.082031 C 152 52.234375 152.382812 52.308594 152.78125 52.308594 C 153.183594 52.308594 153.566406 52.234375 153.933594 52.082031 C 154.304688 51.929688 154.628906 51.710938 154.914062 51.429688 C 155.195312 51.144531 155.414062 50.820312 155.566406 50.453125 C 155.71875 50.082031 155.796875 49.699219 155.796875 49.300781 L 155.796875 14.214844 C 155.796875 13.519531 155.726562 12.828125 155.589844 12.144531 C 155.449219 11.460938 155.246094 10.796875 154.980469 10.152344 C 154.710938 9.511719 154.382812 8.898438 153.996094 8.320312 C 153.609375 7.742188 153.167969 7.203125 152.675781 6.710938 C 152.183594 6.21875 151.644531 5.777344 151.066406 5.390625 C 150.488281 5.003906 149.875 4.675781 149.230469 4.40625 C 148.589844 4.136719 147.925781 3.9375 147.242188 3.796875 C 146.558594 3.660156 145.867188 3.589844 145.171875 3.585938 L 53.964844 3.585938 C 53.269531 3.585938 52.578125 3.65625 51.890625 3.792969 C 51.207031 3.929688 50.542969 4.128906 49.898438 4.398438 C 49.253906 4.664062 48.640625 4.992188 48.0625 5.378906 C 47.480469 5.765625 46.945312 6.207031 46.449219 6.699219 C 45.957031 7.195312 45.515625 7.730469 45.128906 8.3125 C 44.742188 8.890625 44.414062 9.503906 44.148438 10.148438 C 43.878906 10.792969 43.679688 11.457031 43.542969 12.140625 C 43.40625 12.828125 43.335938 13.519531 43.335938 14.214844 L 43.335938 46.429688 C 42.09375 46.820312 40.867188 47.257812 39.65625 47.742188 C 38.449219 48.230469 37.257812 48.761719 36.09375 49.34375 C 34.925781 49.921875 33.78125 50.546875 32.664062 51.21875 C 31.546875 51.890625 30.457031 52.605469 29.398438 53.359375 C 28.335938 54.117188 27.304688 54.914062 26.308594 55.753906 C 25.3125 56.59375 24.347656 57.46875 23.417969 58.386719 C 22.492188 59.300781 21.601562 60.25 20.746094 61.238281 C 19.894531 62.222656 19.082031 63.242188 18.308594 64.289062 C 17.539062 65.339844 16.808594 66.417969 16.121094 67.527344 C 15.4375 68.636719 14.792969 69.769531 14.199219 70.929688 C 13.601562 72.085938 13.050781 73.269531 12.546875 74.46875 C 12.042969 75.671875 11.589844 76.894531 11.183594 78.132812 C 10.777344 79.371094 10.421875 80.621094 10.113281 81.890625 C 9.804688 83.15625 9.550781 84.433594 9.34375 85.71875 C 9.136719 87.007812 8.984375 88.300781 8.882812 89.601562 C 8.777344 90.898438 8.726562 92.199219 8.726562 93.503906 C 8.726562 94.808594 8.777344 96.109375 8.882812 97.410156 C 8.984375 98.707031 9.136719 100 9.34375 101.289062 C 9.550781 102.574219 9.804688 103.851562 10.113281 105.121094 C 10.421875 106.386719 10.777344 107.640625 11.183594 108.878906 C 11.589844 110.117188 12.042969 111.335938 12.546875 112.539062 C 13.050781 113.742188 13.601562 114.921875 14.199219 116.082031 C 14.792969 117.238281 15.4375 118.375 16.121094 119.480469 C 16.808594 120.589844 17.539062 121.667969 18.308594 122.71875 C 19.082031 123.769531 19.894531 124.785156 20.746094 125.773438 C 21.601562 126.757812 22.492188 127.707031 23.417969 128.625 C 24.347656 129.539062 25.3125 130.414062 26.308594 131.253906 C 27.304688 132.09375 28.335938 132.890625 29.398438 133.648438 C 30.457031 134.40625 31.546875 135.121094 32.664062 135.789062 C 33.78125 136.460938 34.925781 137.085938 36.09375 137.667969 C 37.257812 138.246094 38.449219 138.78125 39.65625 139.265625 C 40.867188 139.75 42.09375 140.1875 43.335938 140.578125 L 43.335938 172.757812 C 43.335938 173.453125 43.40625 174.144531 43.542969 174.828125 C 43.679688 175.515625 43.878906 176.179688 44.148438 176.824219 C 44.414062 177.46875 44.742188 178.082031 45.128906 178.660156 C 45.515625 179.242188 45.957031 179.777344 46.449219 180.273438 C 46.945312 180.765625 47.480469 181.207031 48.0625 181.59375 C 48.640625 181.980469 49.253906 182.308594 49.898438 182.574219 C 50.542969 182.84375 51.207031 183.042969 51.890625 183.179688 C 52.578125 183.316406 53.269531 183.386719 53.964844 183.386719 L 145.171875 183.386719 C 145.867188 183.382812 146.558594 183.3125 147.242188 183.175781 C 147.925781 183.035156 148.589844 182.832031 149.230469 182.566406 C 149.875 182.296875 150.488281 181.96875 151.066406 181.582031 C 151.644531 181.195312 152.183594 180.753906 152.675781 180.261719 C 153.167969 179.769531 153.609375 179.230469 153.996094 178.652344 C 154.382812 178.074219 154.710938 177.460938 154.980469 176.816406 C 155.246094 176.175781 155.449219 175.511719 155.589844 174.828125 C 155.726562 174.144531 155.796875 173.453125 155.796875 172.757812 L 155.796875 137.636719 C 155.796875 137.234375 155.71875 136.851562 155.566406 136.484375 C 155.414062 136.113281 155.195312 135.789062 154.914062 135.507812 C 154.628906 135.226562 154.304688 135.007812 153.933594 134.855469 C 153.566406 134.703125 153.183594 134.625 152.78125 134.625 C 152.382812 134.625 152 134.703125 151.628906 134.855469 C 151.261719 135.007812 150.933594 135.226562 150.652344 135.507812 C 150.371094 135.789062 150.152344 136.113281 150 136.484375 C 149.84375 136.851562 149.769531 137.234375 149.765625 137.636719 L 149.765625 160.472656 L 49.367188 160.472656 L 49.367188 142.085938 C 52.226562 142.617188 55.105469 142.886719 58.011719 142.894531 C 60.441406 142.890625 62.855469 142.710938 65.257812 142.355469 C 67.660156 141.996094 70.023438 141.460938 72.34375 140.757812 C 74.667969 140.050781 76.929688 139.175781 79.121094 138.136719 C 81.316406 137.09375 83.421875 135.898438 85.441406 134.546875 C 87.460938 133.199219 89.367188 131.707031 91.167969 130.074219 C 92.964844 128.441406 94.632812 126.6875 96.171875 124.808594 C 97.710938 122.929688 99.105469 120.949219 100.351562 118.863281 C 101.597656 116.78125 102.6875 114.613281 103.613281 112.371094 L 126.378906 112.371094 L 126.378906 124.027344 C 126.382812 124.570312 126.523438 125.074219 126.796875 125.542969 C 127.074219 126.007812 127.449219 126.375 127.921875 126.640625 Z M 129.320312 106.265625 L 105.636719 106.265625 C 105.636719 105.972656 105.636719 105.675781 105.820312 105.382812 C 106.078125 104.351562 106.335938 103.285156 106.519531 102.21875 C 106.703125 101.152344 106.851562 100.234375 106.960938 99.242188 C 107.070312 98.25 106.960938 98.285156 106.960938 97.808594 C 107.253906 94.9375 107.253906 92.070312 106.960938 89.203125 C 106.960938 88.722656 106.960938 88.246094 106.960938 87.765625 C 106.960938 87.289062 106.703125 85.78125 106.519531 84.789062 C 106.335938 83.796875 106.078125 82.65625 105.820312 81.625 C 105.820312 81.332031 105.820312 81.039062 105.636719 80.742188 L 129.320312 80.742188 C 129.71875 80.742188 130.105469 80.667969 130.472656 80.515625 C 130.84375 80.359375 131.167969 80.144531 131.453125 79.859375 C 131.734375 79.578125 131.953125 79.25 132.105469 78.882812 C 132.257812 78.511719 132.335938 78.128906 132.335938 77.726562 L 132.335938 68.902344 L 166.832031 93.503906 L 132.226562 118.109375 L 132.226562 109.28125 C 132.226562 108.890625 132.152344 108.515625 132.007812 108.152344 C 131.859375 107.789062 131.652344 107.46875 131.382812 107.1875 C 131.109375 106.90625 130.796875 106.6875 130.441406 106.527344 C 130.082031 106.367188 129.710938 106.28125 129.320312 106.265625 Z M 101.113281 97.511719 C 101.113281 98.25 100.929688 98.984375 100.820312 99.757812 C 100.707031 100.527344 100.820312 100.75 100.5625 101.265625 C 100.304688 101.777344 100.15625 103.25 99.898438 104.242188 C 99.898438 104.425781 99.898438 104.609375 99.898438 104.832031 C 99.605469 105.933594 99.238281 107 98.871094 108.105469 C 98.585938 108.894531 98.277344 109.679688 97.949219 110.453125 C 97.621094 111.226562 97.269531 111.992188 96.894531 112.746094 C 96.519531 113.5 96.125 114.238281 95.707031 114.96875 C 95.292969 115.699219 94.851562 116.417969 94.394531 117.125 C 93.933594 117.828125 93.457031 118.519531 92.957031 119.195312 C 92.457031 119.875 91.9375 120.535156 91.402344 121.183594 C 90.863281 121.828125 90.308594 122.460938 89.730469 123.074219 C 89.15625 123.6875 88.566406 124.285156 87.957031 124.863281 C 87.347656 125.445312 86.722656 126.007812 86.078125 126.550781 C 85.4375 127.09375 84.78125 127.617188 84.105469 128.121094 C 83.433594 128.625 82.746094 129.113281 82.046875 129.578125 C 81.34375 130.042969 80.632812 130.484375 79.90625 130.910156 C 79.175781 131.332031 78.4375 131.734375 77.6875 132.113281 C 76.9375 132.496094 76.175781 132.851562 75.40625 133.1875 C 74.636719 133.523438 73.855469 133.835938 73.066406 134.128906 C 72.277344 134.417969 71.480469 134.6875 70.671875 134.929688 C 69.867188 135.171875 69.058594 135.394531 68.238281 135.589844 C 67.421875 135.785156 66.597656 135.960938 65.769531 136.109375 C 64.941406 136.257812 64.113281 136.382812 63.277344 136.480469 C 62.441406 136.582031 61.605469 136.65625 60.765625 136.710938 C 59.925781 136.761719 59.085938 136.789062 58.242188 136.789062 C 57.402344 136.792969 56.5625 136.769531 55.722656 136.722656 C 54.882812 136.675781 54.042969 136.605469 53.207031 136.511719 C 52.371094 136.414062 51.539062 136.296875 50.710938 136.152344 C 49.882812 136.007812 49.058594 135.839844 48.238281 135.648438 C 47.421875 135.453125 46.609375 135.238281 45.800781 135 C 44.996094 134.761719 44.195312 134.496094 43.40625 134.210938 C 42.613281 133.925781 41.832031 133.617188 41.058594 133.285156 C 40.285156 132.953125 39.523438 132.601562 38.769531 132.222656 C 38.019531 131.847656 37.277344 131.449219 36.546875 131.03125 C 35.820312 130.613281 35.101562 130.171875 34.398438 129.710938 C 33.695312 129.25 33.007812 128.769531 32.332031 128.269531 C 31.65625 127.765625 30.996094 127.246094 30.351562 126.707031 C 29.703125 126.167969 29.074219 125.609375 28.460938 125.03125 C 27.851562 124.457031 27.253906 123.863281 26.675781 123.25 C 26.097656 122.640625 25.539062 122.011719 24.996094 121.371094 C 24.457031 120.726562 23.933594 120.066406 23.429688 119.394531 C 22.925781 118.71875 22.445312 118.03125 21.980469 117.328125 C 21.519531 116.625 21.078125 115.910156 20.65625 115.183594 C 20.234375 114.453125 19.835938 113.714844 19.457031 112.964844 C 19.078125 112.210938 18.722656 111.449219 18.386719 110.679688 C 18.054688 109.90625 17.742188 109.125 17.457031 108.335938 C 17.167969 107.542969 16.902344 106.746094 16.660156 105.941406 C 16.417969 105.136719 16.199219 104.324219 16.007812 103.503906 C 15.8125 102.6875 15.640625 101.863281 15.496094 101.035156 C 15.347656 100.207031 15.226562 99.375 15.128906 98.539062 C 15.03125 97.703125 14.957031 96.867188 14.910156 96.027344 C 14.859375 95.1875 14.835938 94.347656 14.835938 93.503906 C 14.835938 92.664062 14.859375 91.824219 14.910156 90.984375 C 14.957031 90.144531 15.03125 89.304688 15.128906 88.46875 C 15.226562 87.636719 15.347656 86.804688 15.496094 85.976562 C 15.640625 85.144531 15.8125 84.324219 16.007812 83.503906 C 16.199219 82.6875 16.417969 81.875 16.660156 81.070312 C 16.902344 80.261719 17.167969 79.464844 17.457031 78.675781 C 17.742188 77.882812 18.054688 77.101562 18.386719 76.332031 C 18.722656 75.558594 19.078125 74.796875 19.457031 74.046875 C 19.835938 73.292969 20.234375 72.554688 20.65625 71.828125 C 21.078125 71.097656 21.519531 70.382812 21.980469 69.679688 C 22.445312 68.980469 22.925781 68.289062 23.429688 67.617188 C 23.933594 66.941406 24.457031 66.285156 24.996094 65.640625 C 25.539062 64.996094 26.097656 64.367188 26.675781 63.757812 C 27.253906 63.148438 27.851562 62.554688 28.460938 61.976562 C 29.074219 61.398438 29.703125 60.84375 30.351562 60.300781 C 30.996094 59.761719 31.65625 59.242188 32.332031 58.742188 C 33.007812 58.238281 33.695312 57.757812 34.398438 57.296875 C 35.101562 56.835938 35.820312 56.398438 36.546875 55.976562 C 37.277344 55.558594 38.019531 55.160156 38.769531 54.785156 C 39.523438 54.410156 40.285156 54.054688 41.058594 53.722656 C 41.832031 53.390625 42.613281 53.082031 43.40625 52.796875 C 44.195312 52.511719 44.996094 52.25 45.800781 52.007812 C 46.609375 51.769531 47.421875 51.554688 48.238281 51.363281 C 49.058594 51.171875 49.882812 51.003906 50.710938 50.859375 C 51.539062 50.714844 52.371094 50.59375 53.207031 50.5 C 54.042969 50.402344 54.882812 50.332031 55.722656 50.285156 C 56.5625 50.238281 57.402344 50.21875 58.242188 50.21875 C 59.085938 50.222656 59.925781 50.25 60.765625 50.300781 C 61.605469 50.351562 62.441406 50.425781 63.277344 50.527344 C 64.113281 50.628906 64.941406 50.753906 65.769531 50.902344 C 66.597656 51.050781 67.421875 51.222656 68.238281 51.417969 C 69.058594 51.617188 69.867188 51.835938 70.675781 52.078125 C 71.480469 52.324219 72.277344 52.589844 73.066406 52.882812 C 73.855469 53.171875 74.636719 53.484375 75.40625 53.820312 C 76.175781 54.15625 76.9375 54.515625 77.6875 54.894531 C 78.4375 55.273438 79.175781 55.675781 79.90625 56.101562 C 80.632812 56.523438 81.34375 56.96875 82.046875 57.433594 C 82.746094 57.898438 83.433594 58.382812 84.105469 58.886719 C 84.78125 59.390625 85.4375 59.917969 86.078125 60.460938 C 86.722656 61.003906 87.347656 61.566406 87.957031 62.144531 C 88.566406 62.722656 89.15625 63.320312 89.730469 63.9375 C 90.308594 64.550781 90.863281 65.179688 91.402344 65.828125 C 91.9375 66.472656 92.457031 67.136719 92.957031 67.8125 C 93.457031 68.488281 93.933594 69.179688 94.394531 69.886719 C 94.851562 70.589844 95.292969 71.308594 95.707031 72.039062 C 96.125 72.769531 96.519531 73.511719 96.894531 74.265625 C 97.269531 75.019531 97.621094 75.78125 97.949219 76.554688 C 98.277344 77.328125 98.585938 78.113281 98.871094 78.90625 C 99.238281 79.972656 99.605469 81.074219 99.898438 82.175781 C 99.898438 82.398438 99.898438 82.582031 99.898438 82.765625 C 100.167969 83.769531 100.390625 84.765625 100.5625 85.746094 C 100.5625 86.257812 100.746094 86.773438 100.820312 87.253906 C 100.890625 87.730469 101.039062 88.761719 101.113281 89.496094 C 101.113281 90.820312 101.296875 92.144531 101.296875 93.503906 C 101.296875 94.867188 101.222656 96.1875 101.113281 97.511719 Z M 149.765625 20.503906 L 49.367188 20.503906 L 49.367188 14.214844 C 49.367188 13.914062 49.398438 13.613281 49.457031 13.320312 C 49.515625 13.023438 49.601562 12.734375 49.71875 12.457031 C 49.835938 12.175781 49.976562 11.914062 50.144531 11.660156 C 50.3125 11.410156 50.503906 11.179688 50.714844 10.964844 C 50.929688 10.75 51.160156 10.5625 51.410156 10.394531 C 51.664062 10.226562 51.929688 10.085938 52.207031 9.96875 C 52.484375 9.851562 52.773438 9.765625 53.070312 9.707031 C 53.367188 9.648438 53.664062 9.617188 53.964844 9.617188 L 145.171875 9.617188 C 145.472656 9.617188 145.769531 9.648438 146.066406 9.707031 C 146.363281 9.765625 146.652344 9.851562 146.929688 9.96875 C 147.207031 10.085938 147.472656 10.226562 147.722656 10.394531 C 147.976562 10.5625 148.207031 10.75 148.421875 10.964844 C 148.632812 11.179688 148.824219 11.410156 148.992188 11.660156 C 149.160156 11.914062 149.300781 12.175781 149.417969 12.457031 C 149.53125 12.734375 149.621094 13.023438 149.679688 13.320312 C 149.738281 13.613281 149.765625 13.914062 149.765625 14.214844 Z M 49.367188 166.503906 L 149.765625 166.503906 L 149.765625 172.757812 C 149.765625 173.058594 149.738281 173.355469 149.679688 173.652344 C 149.621094 173.949219 149.53125 174.238281 149.417969 174.515625 C 149.300781 174.792969 149.160156 175.058594 148.992188 175.3125 C 148.824219 175.5625 148.632812 175.792969 148.421875 176.007812 C 148.207031 176.21875 147.976562 176.410156 147.722656 176.578125 C 147.472656 176.746094 147.207031 176.886719 146.929688 177.003906 C 146.652344 177.121094 146.363281 177.207031 146.066406 177.265625 C 145.769531 177.324219 145.472656 177.355469 145.171875 177.355469 L 53.964844 177.355469 C 53.664062 177.355469 53.367188 177.324219 53.070312 177.265625 C 52.773438 177.207031 52.484375 177.121094 52.207031 177.003906 C 51.929688 176.886719 51.664062 176.746094 51.410156 176.578125 C 51.160156 176.410156 50.929688 176.21875 50.714844 176.007812 C 50.503906 175.792969 50.3125 175.5625 50.144531 175.3125 C 49.976562 175.058594 49.835938 174.792969 49.71875 174.515625 C 49.601562 174.238281 49.515625 173.949219 49.457031 173.652344 C 49.398438 173.355469 49.367188 173.058594 49.367188 172.757812 Z M 49.367188 166.503906 " fill-opacity="1" fill-rule="nonzero"/></g><path fill="#872341" d="M 64.59375 90.488281 L 60.917969 90.488281 L 60.917969 74.160156 L 70.074219 74.160156 C 70.472656 74.160156 70.859375 74.082031 71.226562 73.929688 C 71.597656 73.777344 71.921875 73.558594 72.207031 73.277344 C 72.488281 72.996094 72.707031 72.667969 72.859375 72.300781 C 73.011719 71.929688 73.089844 71.542969 73.089844 71.144531 C 73.089844 70.746094 73.011719 70.359375 72.859375 69.992188 C 72.707031 69.621094 72.488281 69.296875 72.207031 69.011719 C 71.921875 68.730469 71.597656 68.511719 71.226562 68.359375 C 70.859375 68.207031 70.472656 68.128906 70.074219 68.128906 L 61.027344 68.128906 L 61.027344 63.164062 C 61.027344 62.765625 60.949219 62.378906 60.796875 62.011719 C 60.644531 61.640625 60.425781 61.316406 60.144531 61.03125 C 59.859375 60.75 59.535156 60.53125 59.164062 60.378906 C 58.796875 60.226562 58.410156 60.148438 58.011719 60.148438 C 57.613281 60.148438 57.226562 60.226562 56.855469 60.378906 C 56.488281 60.53125 56.160156 60.75 55.878906 61.03125 C 55.597656 61.316406 55.378906 61.640625 55.226562 62.011719 C 55.070312 62.378906 54.996094 62.765625 54.996094 63.164062 L 54.996094 68.128906 L 51.316406 68.128906 C 50.386719 68.128906 49.464844 68.21875 48.546875 68.402344 C 47.632812 68.582031 46.746094 68.851562 45.886719 69.210938 C 45.023438 69.566406 44.207031 70.003906 43.429688 70.523438 C 42.65625 71.039062 41.941406 71.628906 41.28125 72.285156 C 40.621094 72.945312 40.03125 73.664062 39.515625 74.4375 C 38.996094 75.214844 38.558594 76.03125 38.203125 76.890625 C 37.847656 77.753906 37.578125 78.640625 37.394531 79.554688 C 37.214844 80.46875 37.121094 81.394531 37.121094 82.324219 C 37.121094 83.257812 37.214844 84.179688 37.394531 85.09375 C 37.578125 86.007812 37.847656 86.894531 38.203125 87.757812 C 38.558594 88.617188 38.996094 89.4375 39.515625 90.210938 C 40.03125 90.984375 40.621094 91.703125 41.28125 92.363281 C 41.941406 93.023438 42.65625 93.609375 43.429688 94.128906 C 44.207031 94.644531 45.023438 95.082031 45.886719 95.441406 C 46.746094 95.796875 47.632812 96.066406 48.546875 96.246094 C 49.464844 96.429688 50.386719 96.519531 51.316406 96.519531 L 54.996094 96.519531 L 54.996094 112.847656 L 45.839844 112.847656 C 45.4375 112.847656 45.054688 112.925781 44.683594 113.078125 C 44.316406 113.230469 43.988281 113.449219 43.707031 113.730469 C 43.421875 114.015625 43.207031 114.339844 43.050781 114.710938 C 42.898438 115.078125 42.824219 115.464844 42.824219 115.863281 C 42.824219 116.265625 42.898438 116.648438 43.050781 117.019531 C 43.207031 117.386719 43.421875 117.714844 43.707031 117.996094 C 43.988281 118.28125 44.316406 118.496094 44.683594 118.648438 C 45.054688 118.804688 45.4375 118.878906 45.839844 118.878906 L 54.996094 118.878906 L 54.996094 123.84375 C 54.996094 124.246094 55.070312 124.628906 55.226562 125 C 55.378906 125.367188 55.597656 125.695312 55.878906 125.976562 C 56.160156 126.261719 56.488281 126.476562 56.855469 126.628906 C 57.226562 126.785156 57.613281 126.859375 58.011719 126.859375 C 58.410156 126.859375 58.796875 126.785156 59.164062 126.628906 C 59.535156 126.476562 59.859375 126.261719 60.144531 125.976562 C 60.425781 125.695312 60.644531 125.367188 60.796875 125 C 60.949219 124.628906 61.027344 124.246094 61.027344 123.84375 L 61.027344 118.878906 L 64.703125 118.878906 C 65.636719 118.878906 66.558594 118.789062 67.472656 118.605469 C 68.386719 118.421875 69.273438 118.152344 70.132812 117.796875 C 70.996094 117.441406 71.8125 117.003906 72.585938 116.484375 C 73.359375 115.964844 74.078125 115.378906 74.734375 114.71875 C 75.394531 114.058594 75.984375 113.34375 76.5 112.566406 C 77.015625 111.792969 77.453125 110.976562 77.8125 110.113281 C 78.167969 109.253906 78.4375 108.367188 78.617188 107.453125 C 78.800781 106.539062 78.890625 105.617188 78.890625 104.683594 C 78.890625 103.753906 78.800781 102.828125 78.617188 101.917969 C 78.4375 101.003906 78.167969 100.113281 77.8125 99.253906 C 77.453125 98.394531 77.015625 97.574219 76.5 96.800781 C 75.984375 96.027344 75.394531 95.308594 74.734375 94.648438 C 74.078125 93.992188 73.359375 93.402344 72.585938 92.882812 C 71.8125 92.367188 70.996094 91.929688 70.132812 91.574219 C 69.273438 91.214844 68.386719 90.945312 67.472656 90.761719 C 66.558594 90.582031 65.636719 90.488281 64.703125 90.488281 Z M 64.59375 112.847656 L 60.917969 112.847656 L 60.917969 96.519531 L 64.59375 96.519531 C 65.128906 96.519531 65.660156 96.574219 66.1875 96.675781 C 66.710938 96.78125 67.222656 96.9375 67.71875 97.140625 C 68.214844 97.347656 68.683594 97.597656 69.128906 97.894531 C 69.574219 98.195312 69.988281 98.53125 70.367188 98.910156 C 70.746094 99.289062 71.085938 99.703125 71.382812 100.148438 C 71.679688 100.59375 71.933594 101.066406 72.136719 101.558594 C 72.34375 102.054688 72.496094 102.566406 72.601562 103.089844 C 72.707031 103.617188 72.757812 104.148438 72.757812 104.683594 C 72.757812 105.21875 72.707031 105.75 72.601562 106.277344 C 72.496094 106.804688 72.34375 107.3125 72.136719 107.808594 C 71.933594 108.304688 71.679688 108.773438 71.382812 109.21875 C 71.085938 109.664062 70.746094 110.078125 70.367188 110.457031 C 69.988281 110.835938 69.574219 111.175781 69.128906 111.472656 C 68.683594 111.769531 68.214844 112.023438 67.71875 112.226562 C 67.222656 112.433594 66.710938 112.585938 66.1875 112.691406 C 65.660156 112.796875 65.128906 112.847656 64.59375 112.847656 Z M 43.265625 82.324219 C 43.265625 81.789062 43.316406 81.257812 43.421875 80.730469 C 43.527344 80.207031 43.679688 79.695312 43.886719 79.199219 C 44.089844 78.707031 44.34375 78.234375 44.640625 77.789062 C 44.9375 77.34375 45.277344 76.929688 45.65625 76.550781 C 46.035156 76.171875 46.445312 75.835938 46.894531 75.535156 C 47.339844 75.238281 47.808594 74.988281 48.304688 74.78125 C 48.800781 74.578125 49.308594 74.421875 49.835938 74.316406 C 50.363281 74.210938 50.890625 74.160156 51.429688 74.160156 L 55.105469 74.160156 L 55.105469 90.488281 L 51.429688 90.488281 C 50.894531 90.488281 50.363281 90.433594 49.839844 90.324219 C 49.3125 90.21875 48.804688 90.0625 48.308594 89.859375 C 47.816406 89.652344 47.347656 89.398438 46.902344 89.101562 C 46.457031 88.804688 46.042969 88.464844 45.667969 88.085938 C 45.289062 87.707031 44.949219 87.296875 44.652344 86.851562 C 44.351562 86.40625 44.101562 85.9375 43.894531 85.441406 C 43.691406 84.949219 43.535156 84.441406 43.425781 83.914062 C 43.320312 83.390625 43.265625 82.859375 43.265625 82.324219 Z M 43.265625 82.324219 " fill-opacity="1" fill-rule="nonzero"/></svg>