<svg xmlns="http://www.w3.org/2000/svg" xmlns:xlink="http://www.w3.org/1999/xlink" width="250" zoomAndPan="magnify" viewBox="0 0 187.5 187.499992" height="250" preserveAspectRatio="xMidYMid meet" version="1.0"><defs><clipPath id="83eca17500"><path d="M 28.421875 2.320312 L 158.574219 2.320312 L 158.574219 184.835938 L 28.421875 184.835938 Z M 28.421875 2.320312 " clip-rule="nonzero"/></clipPath></defs><g clip-path="url(#83eca17500)"><path fill="#872341" d="M 41.4375 2.390625 C 34.246094 2.390625 28.421875 8.214844 28.421875 15.40625 L 28.421875 171.589844 C 28.421875 178.78125 34.246094 184.605469 41.4375 184.605469 L 132.542969 184.605469 C 139.734375 184.605469 145.558594 178.78125 145.558594 171.589844 L 145.558594 142.191406 C 141.550781 144.878906 137.171875 147.019531 132.542969 148.660156 L 132.542969 171.589844 L 41.4375 171.589844 L 41.4375 15.40625 L 60.960938 15.40625 L 63.65625 18.101562 C 66.09375 20.539062 69.40625 21.914062 72.855469 21.914062 L 101.125 21.914062 C 104.574219 21.914062 107.886719 20.539062 110.328125 18.101562 L 113.019531 15.40625 L 132.542969 15.40625 L 132.542969 38.335938 C 137.171875 39.972656 141.550781 42.117188 145.558594 44.804688 L 145.558594 15.40625 C 145.558594 8.214844 139.734375 2.390625 132.542969 2.390625 Z M 77.230469 8.898438 L 90.246094 8.898438 C 92.039062 8.898438 93.5 10.355469 93.5 12.152344 C 93.5 13.949219 92.039062 15.40625 90.246094 15.40625 L 77.230469 15.40625 C 75.433594 15.40625 73.976562 13.949219 73.976562 12.152344 C 73.976562 10.355469 75.433594 8.898438 77.230469 8.898438 Z M 103.261719 8.898438 C 105.054688 8.898438 106.511719 10.355469 106.511719 12.152344 C 106.511719 13.949219 105.054688 15.40625 103.261719 15.40625 C 101.464844 15.40625 100.007812 13.949219 100.007812 12.152344 C 100.007812 10.355469 101.464844 8.898438 103.261719 8.898438 Z M 113.019531 47.941406 C 87.863281 47.941406 67.46875 68.339844 67.46875 93.496094 C 67.46875 118.65625 87.863281 139.050781 113.019531 139.050781 C 138.179688 139.050781 158.574219 118.65625 158.574219 93.496094 C 158.574219 68.339844 138.179688 47.941406 113.019531 47.941406 Z M 106.511719 60.957031 L 119.527344 60.957031 L 119.527344 70.199219 C 126.609375 72.078125 131.1875 77.023438 131.335938 83.632812 L 120.570312 83.632812 C 120.316406 80.394531 117.234375 78.128906 113.136719 78.128906 C 109.035156 78.128906 106.335938 80.074219 106.335938 83.125 C 106.335938 85.636719 108.363281 87.085938 113.199219 88.042969 L 119.109375 89.199219 C 128.167969 90.953125 132.226562 95.035156 132.226562 102.316406 C 132.226562 109.945312 127.515625 115.113281 119.527344 116.910156 L 119.527344 126.035156 L 106.511719 126.035156 L 106.511719 116.960938 C 98.71875 115.273438 93.972656 110.425781 93.816406 103.371094 L 104.9375 103.371094 C 105.222656 106.710938 108.5625 108.839844 113.390625 108.839844 C 117.742188 108.839844 120.722656 106.734375 120.722656 103.714844 C 120.722656 101.171875 118.71875 99.804688 113.480469 98.757812 L 107.441406 97.550781 C 99.054688 95.964844 94.730469 91.382812 94.730469 84.167969 C 94.730469 77.113281 99.226562 72.023438 106.511719 70.148438 Z M 106.511719 60.957031 " fill-opacity="1" fill-rule="nonzero"/></g></svg>