<svg xmlns="http://www.w3.org/2000/svg" xmlns:xlink="http://www.w3.org/1999/xlink" width="250" zoomAndPan="magnify" viewBox="0 0 187.5 187.499992" height="250" preserveAspectRatio="xMidYMid meet" version="1.0"><defs><clipPath id="2657d33336"><path d="M 28 1.453125 L 161 1.453125 L 161 185.464844 L 28 185.464844 Z M 28 1.453125 " clip-rule="nonzero"/></clipPath></defs><g clip-path="url(#2657d33336)"><path fill="#872341" d="M 149.09375 105.152344 C 145.390625 100.644531 130.105469 94.320312 117.9375 89.808594 C 114.777344 88.636719 112.261719 87.75 110.957031 87.289062 L 110.957031 79.246094 C 113.722656 76.835938 116.011719 73.894531 117.671875 70.648438 L 124.339844 70.648438 C 126.335938 70.648438 128.21875 69.976562 129.792969 68.699219 C 131.796875 67.0625 132.945312 64.640625 132.945312 62.058594 L 132.945312 52.035156 C 132.945312 49.464844 131.800781 47.039062 129.792969 45.382812 C 129.789062 45.382812 129.789062 45.378906 129.789062 45.378906 C 128.542969 44.367188 127.082031 43.757812 125.523438 43.542969 L 125.523438 30.078125 C 125.523438 14.292969 111.761719 1.453125 94.839844 1.453125 C 77.921875 1.453125 64.160156 14.292969 64.160156 30.078125 L 64.160156 43.542969 C 62.605469 43.753906 61.152344 44.363281 59.902344 45.375 C 59.894531 45.375 59.890625 45.378906 59.890625 45.382812 C 59.886719 45.382812 59.886719 45.386719 59.882812 45.386719 C 57.882812 47.035156 56.738281 49.460938 56.738281 52.035156 L 56.738281 62.058594 C 56.738281 64.640625 57.886719 67.0625 59.894531 68.699219 C 59.941406 68.738281 60 68.765625 60.050781 68.804688 C 60.058594 68.8125 60.070312 68.820312 60.082031 68.828125 C 61.613281 70.011719 63.425781 70.648438 65.34375 70.648438 L 65.871094 70.648438 L 65.871094 70.808594 C 65.871094 73.5 68.058594 75.6875 70.75 75.6875 L 75.308594 75.6875 C 76.335938 76.972656 77.480469 78.164062 78.730469 79.246094 L 78.730469 87.289062 C 77.421875 87.746094 74.910156 88.636719 71.746094 89.804688 C 59.578125 94.316406 44.292969 100.640625 40.589844 105.152344 C 29.917969 118.210938 27.863281 160.113281 29.066406 168.082031 C 30.089844 174.914062 33.296875 179.273438 38.875 181.398438 C 39.582031 181.671875 41.742188 182.5 61.683594 184.671875 C 66.46875 185.1875 70.097656 185.539062 70.097656 185.539062 C 70.144531 185.542969 70.191406 185.542969 70.238281 185.542969 L 119.402344 185.542969 C 119.449219 185.542969 119.496094 185.542969 119.542969 185.539062 C 119.542969 185.539062 123.777344 185.128906 129.132812 184.542969 C 137.699219 183.613281 148.417969 182.316406 150.8125 181.402344 C 156.390625 179.273438 159.597656 174.917969 160.617188 168.085938 C 161.820312 160.117188 159.765625 118.214844 149.09375 105.152344 Z M 116.5625 92.417969 L 123.464844 100.546875 L 113.445312 107.0625 C 113.085938 107.296875 112.847656 107.679688 112.792969 108.105469 C 112.738281 108.53125 112.878906 108.960938 113.167969 109.277344 L 121.339844 118.125 C 114.359375 127.5 105.316406 134.035156 93.859375 138.097656 C 93.976562 137.847656 94.070312 137.625 94.199219 137.363281 C 94.214844 137.335938 94.230469 137.308594 94.242188 137.28125 C 94.246094 137.269531 94.253906 137.261719 94.257812 137.25 C 94.820312 136.144531 95.433594 135 96.121094 133.769531 C 96.589844 132.90625 97.089844 132.015625 97.605469 131.09375 C 98.949219 128.6875 100.472656 125.957031 101.957031 123.03125 C 101.964844 123.019531 101.960938 123.007812 101.964844 122.996094 C 104.335938 118.324219 106.160156 113.980469 107.539062 109.710938 C 109.621094 103.253906 110.722656 96.90625 110.914062 90.375 C 112.253906 90.847656 114.21875 91.550781 116.5625 92.417969 Z M 87.695312 103.636719 C 87.683594 103.652344 87.675781 103.671875 87.660156 103.683594 L 87.628906 103.710938 C 87.628906 103.710938 87.628906 103.714844 87.628906 103.714844 L 84.273438 106.667969 C 82.796875 101.546875 81.953125 96.476562 81.722656 91.300781 L 92.527344 99.390625 Z M 89.742188 111.417969 L 88.449219 117.828125 C 87.179688 115.042969 86.117188 112.359375 85.230469 109.714844 L 88.070312 107.214844 Z M 102.066406 103.726562 C 102.054688 103.707031 102.035156 103.695312 102.019531 103.683594 C 102.003906 103.667969 102 103.648438 101.984375 103.636719 L 97.15625 99.394531 L 107.960938 91.304688 C 107.730469 96.476562 106.886719 101.546875 105.410156 106.667969 Z M 104.449219 109.710938 C 103.558594 112.34375 102.496094 115.015625 101.226562 117.792969 L 99.9375 111.417969 L 101.613281 107.214844 Z M 94.839844 97.476562 L 81.648438 87.597656 L 81.648438 81.535156 C 85.726562 84.304688 90.234375 85.773438 94.839844 85.773438 C 99.453125 85.773438 103.960938 84.304688 108.035156 81.535156 L 108.035156 87.597656 Z M 94.839844 101.246094 L 99.289062 105.15625 L 97.429688 109.820312 L 92.253906 109.820312 L 90.394531 105.15625 Z M 126.316406 46.722656 C 124.71875 48.382812 122.671875 51.574219 122.671875 57.046875 C 122.671875 62.523438 124.71875 65.707031 126.316406 67.363281 C 125.6875 67.601562 125.023438 67.726562 124.339844 67.726562 L 118.96875 67.726562 C 119.8125 65.378906 120.261719 63.019531 120.261719 60.800781 L 120.261719 46.367188 L 124.339844 46.367188 C 125.027344 46.367188 125.691406 46.492188 126.316406 46.722656 Z M 67.082031 30.078125 C 67.082031 15.90625 79.535156 4.378906 94.839844 4.378906 C 110.148438 4.378906 122.601562 15.90625 122.601562 30.078125 L 122.601562 43.445312 L 120.261719 43.445312 L 120.261719 31.421875 C 120.261719 19.976562 112.402344 8.425781 94.839844 8.425781 C 77.28125 8.425781 69.417969 19.972656 69.417969 31.421875 L 69.417969 43.445312 L 67.082031 43.445312 Z M 65.34375 67.726562 C 64.65625 67.726562 63.992188 67.601562 63.363281 67.363281 C 64.964844 65.707031 67.011719 62.519531 67.011719 57.046875 C 67.011719 51.574219 64.964844 48.382812 63.363281 46.722656 C 63.988281 46.492188 64.65625 46.367188 65.34375 46.367188 L 69.417969 46.367188 L 69.417969 60.800781 C 69.417969 63.015625 69.867188 65.375 70.714844 67.726562 Z M 70.746094 72.769531 C 69.667969 72.769531 68.789062 71.890625 68.789062 70.808594 L 68.789062 70.648438 L 72.011719 70.648438 C 72.382812 71.371094 72.761719 72.085938 73.1875 72.769531 Z M 76.742188 72.769531 C 75.769531 71.449219 74.902344 70.050781 74.207031 68.574219 C 72.988281 65.9375 72.339844 63.25 72.339844 60.800781 L 72.339844 45.734375 C 80.324219 41.082031 86.277344 35.539062 90.085938 29.1875 C 89.957031 31.46875 89.589844 33.539062 88.992188 35.4375 C 88.816406 35.988281 88.984375 36.589844 89.417969 36.96875 C 89.847656 37.351562 90.464844 37.441406 90.992188 37.207031 C 96.347656 34.761719 100.121094 31.039062 102.261719 26.113281 C 105.011719 33.175781 110.078125 39.703125 117.339844 45.585938 L 117.339844 60.800781 C 117.339844 63.25 116.695312 65.9375 115.476562 68.566406 C 113.902344 71.933594 111.4375 75.105469 108.535156 77.511719 C 105.652344 79.945312 100.9375 82.847656 94.839844 82.847656 C 88.738281 82.847656 84.023438 79.945312 81.128906 77.5 C 80.441406 76.933594 79.796875 76.324219 79.175781 75.691406 L 88.171875 75.691406 C 88.949219 78.101562 91.585938 79.839844 94.839844 79.839844 C 98.722656 79.839844 101.761719 77.375 101.761719 74.230469 C 101.761719 71.082031 98.722656 68.617188 94.839844 68.617188 C 91.585938 68.617188 88.949219 70.359375 88.171875 72.769531 Z M 90.835938 74.230469 C 90.835938 72.773438 92.671875 71.542969 94.839844 71.542969 C 97.007812 71.542969 98.84375 72.773438 98.84375 74.230469 C 98.84375 75.6875 97.007812 76.917969 94.839844 76.917969 C 92.671875 76.917969 90.835938 75.6875 90.835938 74.230469 Z M 73.226562 92.375 C 75.523438 91.53125 77.449219 90.839844 78.765625 90.375 C 78.957031 96.90625 80.058594 103.253906 82.140625 109.710938 C 82.140625 109.714844 82.144531 109.71875 82.144531 109.722656 C 82.15625 109.761719 82.167969 109.796875 82.179688 109.832031 C 83.550781 114.078125 85.355469 118.398438 87.707031 123.03125 C 89.253906 126.078125 90.835938 128.902344 92.230469 131.390625 C 92.554688 131.96875 92.863281 132.519531 93.167969 133.074219 C 92.855469 133.640625 92.554688 134.199219 92.269531 134.742188 C 84.367188 130.746094 77.71875 125.542969 72.507812 119.226562 L 78.949219 109.425781 C 79.171875 109.085938 79.246094 108.671875 79.148438 108.277344 C 79.054688 107.882812 78.800781 107.546875 78.449219 107.351562 L 67.667969 101.261719 Z M 61.238281 143.671875 L 61.238281 127.527344 C 61.238281 124.480469 60.433594 121.457031 58.910156 118.78125 L 53.738281 109.78125 C 53.335938 109.078125 52.441406 108.839844 51.742188 109.242188 C 51.042969 109.640625 50.800781 110.535156 51.203125 111.234375 L 56.375 120.230469 C 57.644531 122.460938 58.316406 124.984375 58.316406 127.527344 L 58.316406 143.332031 C 55.816406 143.101562 53.484375 143.035156 51.378906 143.179688 C 39.742188 143.949219 35.460938 150.761719 35.285156 151.050781 C 34.863281 151.734375 35.082031 152.628906 35.765625 153.050781 C 36.003906 153.199219 36.265625 153.265625 36.527344 153.265625 C 37.015625 153.265625 37.496094 153.023438 37.773438 152.578125 C 37.921875 152.339844 41.53125 146.761719 51.574219 146.09375 C 54.367188 145.90625 57.597656 146.09375 61.164062 146.613281 C 59.6875 149.820312 56.917969 156.8125 56.621094 164.710938 C 56.328125 172.097656 58.238281 178.28125 59.496094 181.496094 C 44.582031 179.828125 40.808594 179.015625 39.914062 178.671875 C 35.347656 176.929688 32.820312 173.429688 31.957031 167.648438 C 30.914062 160.777344 32.714844 119.40625 42.847656 107.007812 C 45.160156 104.1875 54.507812 99.53125 68.714844 94.074219 L 64.378906 101.011719 C 64.167969 101.347656 64.105469 101.757812 64.203125 102.144531 C 64.300781 102.53125 64.550781 102.863281 64.898438 103.058594 L 75.652344 109.125 L 69.480469 118.515625 C 69.132812 119.042969 69.164062 119.730469 69.558594 120.226562 C 75.132812 127.253906 82.347656 133.003906 90.980469 137.363281 C 90.542969 138.324219 90.160156 139.230469 89.882812 140.042969 C 89.535156 141.027344 89.308594 141.929688 89.171875 142.785156 C 88.453125 142.757812 87.8125 142.832031 87.238281 143.023438 C 87.230469 143.023438 87.226562 143.023438 87.21875 143.023438 L 79.761719 144.746094 C 78.171875 145.105469 76.699219 145.847656 75.4375 146.875 C 74.519531 146.585938 73.027344 146.140625 71.21875 145.679688 C 68.617188 144.996094 66.050781 144.441406 63.605469 144.03125 C 62.796875 143.886719 62.019531 143.78125 61.238281 143.671875 Z M 71.199219 182.625 C 70.25 180.285156 67.734375 173.285156 67.722656 164.695312 C 67.699219 155.1875 70.308594 150.367188 71.414062 148.75 C 72.09375 148.933594 72.703125 149.105469 73.242188 149.265625 C 72.089844 151 71.449219 153.058594 71.449219 155.171875 L 71.449219 176.078125 C 71.449219 178.621094 72.460938 180.921875 74.097656 182.625 Z M 83.34375 165.71875 L 98.421875 165.71875 C 100.355469 165.71875 101.925781 167.285156 101.925781 169.210938 C 101.925781 170.140625 101.5625 171.019531 100.917969 171.679688 C 100.246094 172.339844 99.355469 172.703125 98.421875 172.703125 L 83.34375 172.703125 C 82.535156 172.703125 81.882812 173.359375 81.882812 174.164062 C 81.882812 174.972656 82.535156 175.628906 83.34375 175.628906 L 98.421875 175.628906 C 100.355469 175.628906 101.925781 177.199219 101.925781 179.132812 C 101.925781 180.0625 101.5625 180.941406 100.917969 181.601562 C 100.246094 182.257812 99.355469 182.625 98.421875 182.625 L 80.933594 182.625 C 77.316406 182.625 74.371094 179.6875 74.371094 176.078125 L 74.371094 155.171875 C 74.371094 153.054688 75.246094 151.011719 76.773438 149.5625 C 77.789062 148.585938 79.046875 147.902344 80.414062 147.59375 L 84.480469 146.65625 C 84.308594 148.023438 84.613281 149.527344 85.398438 150.941406 C 85.808594 151.683594 86.332031 152.324219 86.898438 152.878906 L 83.34375 152.878906 C 82.535156 152.878906 81.882812 153.53125 81.882812 154.339844 C 81.882812 155.144531 82.535156 155.800781 83.34375 155.800781 L 98.421875 155.800781 C 100.355469 155.800781 101.925781 157.367188 101.925781 159.292969 C 101.925781 160.230469 101.5625 161.117188 100.917969 161.773438 C 100.246094 162.433594 99.355469 162.800781 98.421875 162.800781 L 83.34375 162.800781 C 82.535156 162.800781 81.882812 163.453125 81.882812 164.261719 C 81.882812 165.066406 82.535156 165.71875 83.34375 165.71875 Z M 115.308594 176.472656 C 115.308594 179.863281 112.550781 182.625 109.15625 182.625 L 103.808594 182.625 C 104.484375 181.589844 104.847656 180.386719 104.847656 179.132812 C 104.847656 177.835938 104.457031 176.636719 103.796875 175.625 L 106.996094 175.625 C 107.800781 175.625 108.457031 174.972656 108.457031 174.164062 C 108.457031 173.359375 107.800781 172.703125 106.996094 172.703125 L 103.808594 172.703125 C 104.484375 171.667969 104.847656 170.464844 104.847656 169.210938 C 104.847656 167.921875 104.457031 166.726562 103.800781 165.71875 L 106.996094 165.71875 C 107.800781 165.71875 108.457031 165.066406 108.457031 164.257812 C 108.457031 163.453125 107.800781 162.796875 106.996094 162.796875 L 103.808594 162.796875 C 104.484375 161.757812 104.847656 160.550781 104.847656 159.292969 C 104.847656 158.003906 104.457031 156.804688 103.800781 155.800781 L 106.996094 155.800781 C 107.800781 155.800781 108.457031 155.144531 108.457031 154.339844 C 108.457031 153.53125 107.800781 152.878906 106.996094 152.878906 L 92.320312 152.878906 C 92.078125 152.792969 89.175781 151.738281 87.949219 149.523438 C 87.359375 148.457031 87.183594 147.328125 87.484375 146.503906 C 87.578125 146.257812 87.753906 145.933594 88.074219 145.808594 C 88.535156 145.628906 89.226562 145.640625 90.175781 145.84375 C 91.238281 146.074219 92.460938 146.527344 93.644531 146.96875 C 95.582031 147.683594 97.410156 148.363281 99.0625 148.363281 C 100.46875 148.363281 101.699219 148.148438 102.886719 147.941406 C 104.664062 147.628906 106.335938 147.339844 108.703125 147.703125 C 109.367188 147.804688 110.074219 148.09375 110.851562 148.582031 C 111.367188 148.914062 111.835938 149.292969 112.289062 149.746094 C 112.300781 149.757812 112.316406 149.761719 112.328125 149.773438 C 114.222656 151.636719 115.308594 154.332031 115.308594 157.171875 Z M 118.503906 182.625 L 115.808594 182.625 C 117.308594 181.003906 118.230469 178.847656 118.230469 176.472656 L 118.230469 157.171875 C 118.230469 154.355469 117.375 151.648438 115.84375 149.445312 C 116.304688 149.304688 116.828125 149.148438 117.410156 148.988281 C 118.550781 150.882812 121.226562 156.351562 121.226562 165.953125 C 121.226562 175.675781 119.304688 180.882812 118.503906 182.625 Z M 157.722656 167.652344 C 156.859375 173.429688 154.332031 176.933594 149.765625 178.671875 C 148.277344 179.242188 141.347656 180.246094 131.050781 181.390625 C 131.953125 178.273438 133.351562 172.136719 133.0625 164.714844 C 132.765625 156.8125 129.992188 149.820312 128.515625 146.613281 C 132.042969 146.101562 135.277344 145.910156 138.105469 146.09375 C 148.152344 146.761719 151.757812 152.339844 151.902344 152.570312 C 152.179688 153.023438 152.660156 153.273438 153.152344 153.273438 C 153.410156 153.273438 153.671875 153.203125 153.910156 153.058594 C 154.601562 152.636719 154.820312 151.738281 154.398438 151.050781 C 154.222656 150.761719 149.941406 143.953125 138.296875 143.179688 C 136.175781 143.042969 133.839844 143.113281 131.367188 143.335938 L 131.367188 127.527344 C 131.367188 124.984375 132.035156 122.460938 133.304688 120.234375 L 138.476562 111.234375 C 138.878906 110.535156 138.636719 109.640625 137.9375 109.242188 C 137.238281 108.839844 136.34375 109.082031 135.941406 109.78125 L 130.769531 118.785156 C 129.246094 121.457031 128.445312 124.480469 128.445312 127.527344 L 128.445312 143.671875 C 127.664062 143.78125 126.890625 143.886719 126.082031 144.027344 C 123.457031 144.46875 120.703125 145.078125 117.660156 145.886719 C 115.925781 146.355469 114.550781 146.777344 113.667969 147.0625 C 113.273438 146.726562 112.863281 146.40625 112.417969 146.117188 C 111.28125 145.40625 110.210938 144.980469 109.144531 144.816406 C 106.308594 144.378906 104.222656 144.742188 102.386719 145.0625 C 101.269531 145.257812 100.21875 145.441406 99.0625 145.441406 C 97.933594 145.441406 96.265625 144.824219 94.660156 144.226562 C 93.796875 143.90625 92.914062 143.605469 92.042969 143.34375 C 92.117188 142.828125 92.242188 142.277344 92.421875 141.691406 C 105.84375 137.445312 116.609375 129.773438 124.414062 118.867188 C 124.820312 118.304688 124.769531 117.535156 124.300781 117.027344 L 116.488281 108.566406 L 126.449219 102.089844 C 126.800781 101.859375 127.035156 101.488281 127.097656 101.074219 C 127.160156 100.660156 127.039062 100.238281 126.765625 99.917969 L 122.214844 94.558594 C 135.71875 99.804688 144.589844 104.269531 146.832031 107.003906 C 156.964844 119.40625 158.765625 160.777344 157.722656 167.652344 Z M 157.722656 167.652344 " fill-opacity="1" fill-rule="nonzero"/></g></svg>