<svg xmlns="http://www.w3.org/2000/svg" xmlns:xlink="http://www.w3.org/1999/xlink" width="250" zoomAndPan="magnify" viewBox="0 0 187.5 187.499992" height="250" preserveAspectRatio="xMidYMid meet" version="1.0"><defs><clipPath id="966f120cad"><path d="M 4.800781 3.695312 L 182.078125 3.695312 L 182.078125 180.972656 L 4.800781 180.972656 Z M 4.800781 3.695312 " clip-rule="nonzero"/></clipPath></defs><g clip-path="url(#966f120cad)"><path fill="#872341" d="M 168.414062 73.890625 L 164.617188 73.890625 C 162.515625 73.890625 160.660156 72.527344 160 70.546875 C 158.882812 67.207031 157.5625 63.949219 155.957031 60.855469 C 155.007812 58.957031 155.335938 56.6875 156.863281 55.160156 L 159.585938 52.4375 C 164.949219 47.074219 164.949219 38.289062 159.585938 32.925781 L 152.902344 26.324219 C 147.539062 20.960938 138.792969 20.960938 133.390625 26.324219 L 130.667969 29.046875 C 129.179688 30.53125 126.871094 30.902344 125.015625 29.953125 C 121.921875 28.386719 118.660156 27.023438 115.320312 25.910156 C 113.296875 25.25 111.976562 23.394531 111.976562 21.289062 L 111.976562 17.496094 C 111.976562 9.90625 105.789062 3.714844 98.199219 3.714844 L 88.835938 3.714844 C 81.242188 3.714844 75.054688 9.90625 75.054688 17.496094 L 75.054688 21.289062 C 75.054688 23.394531 73.695312 25.25 71.714844 25.910156 C 68.371094 27.023438 65.113281 28.34375 62.019531 29.953125 C 60.121094 30.902344 57.851562 30.574219 56.324219 29.046875 L 53.601562 26.324219 C 48.238281 20.960938 39.453125 20.960938 34.089844 26.324219 L 27.449219 32.964844 C 22.085938 38.328125 22.085938 47.117188 27.449219 52.480469 L 30.171875 55.203125 C 31.65625 56.6875 32.027344 58.957031 31.078125 60.855469 C 29.511719 63.949219 28.148438 67.207031 27.035156 70.546875 C 26.375 72.570312 24.519531 73.890625 22.414062 73.890625 L 18.621094 73.890625 C 10.988281 73.890625 4.800781 80.078125 4.800781 87.710938 L 4.800781 97.074219 C 4.800781 104.667969 10.988281 110.855469 18.578125 110.855469 L 22.375 110.855469 C 24.476562 110.855469 26.332031 112.214844 26.992188 114.195312 C 28.109375 117.539062 29.429688 120.796875 31.035156 123.890625 C 31.984375 125.789062 31.65625 128.058594 30.128906 129.582031 L 27.40625 132.304688 C 22.042969 137.667969 22.042969 146.457031 27.40625 151.820312 L 34.089844 158.421875 C 39.453125 163.785156 48.199219 163.785156 53.601562 158.421875 L 56.324219 155.699219 C 57.8125 154.210938 60.121094 153.839844 61.976562 154.789062 C 65.070312 156.359375 68.332031 157.71875 71.671875 158.832031 C 73.695312 159.492188 75.015625 161.351562 75.015625 163.453125 L 75.015625 167.289062 C 75.015625 174.882812 81.203125 181.070312 88.792969 181.070312 L 98.15625 181.070312 C 105.75 181.070312 111.9375 174.882812 111.9375 167.289062 L 111.9375 163.453125 C 111.9375 161.351562 113.296875 159.492188 115.277344 158.832031 C 118.621094 157.71875 121.878906 156.398438 124.972656 154.789062 C 126.871094 153.839844 129.140625 154.171875 130.667969 155.699219 L 133.390625 158.421875 C 138.753906 163.785156 147.539062 163.785156 152.902344 158.421875 L 159.542969 151.777344 C 164.90625 146.414062 164.90625 137.628906 159.542969 132.265625 L 156.820312 129.542969 C 155.335938 128.058594 154.964844 125.789062 155.914062 123.890625 C 157.480469 120.796875 158.84375 117.539062 159.957031 114.195312 C 160.617188 112.175781 162.472656 110.855469 164.578125 110.855469 L 168.371094 110.855469 C 175.964844 110.855469 182.152344 104.667969 182.152344 97.074219 L 182.152344 87.710938 C 182.191406 80.078125 176.003906 73.890625 168.414062 73.890625 Z M 173.324219 97.035156 C 173.324219 99.757812 171.097656 101.945312 168.414062 101.945312 L 164.617188 101.945312 C 158.679688 101.945312 153.4375 105.738281 151.582031 111.390625 C 150.632812 114.277344 149.4375 117.125 148.074219 119.847656 C 145.394531 125.167969 146.382812 131.5625 150.59375 135.8125 L 153.316406 138.535156 C 155.253906 140.476562 155.253906 143.570312 153.316406 145.507812 L 146.671875 152.148438 C 144.734375 154.089844 141.597656 154.046875 139.703125 152.148438 L 136.976562 149.425781 C 132.769531 145.21875 126.375 144.1875 121.011719 146.910156 C 118.289062 148.273438 115.484375 149.46875 112.554688 150.417969 C 106.902344 152.273438 103.109375 157.511719 103.109375 163.453125 L 103.109375 167.289062 C 103.109375 170.011719 100.878906 172.199219 98.199219 172.199219 L 88.835938 172.199219 C 86.113281 172.199219 83.925781 169.972656 83.925781 167.289062 L 83.925781 163.453125 C 83.925781 157.511719 80.128906 152.273438 74.476562 150.417969 C 71.589844 149.46875 68.742188 148.273438 66.019531 146.910156 C 64.039062 145.921875 61.894531 145.425781 59.792969 145.425781 C 56.242188 145.425781 52.738281 146.828125 50.097656 149.46875 L 47.375 152.191406 C 45.433594 154.089844 42.339844 154.128906 40.402344 152.191406 L 33.761719 145.550781 C 31.820312 143.609375 31.820312 140.515625 33.761719 138.578125 L 36.484375 135.855469 C 40.691406 131.648438 41.722656 125.253906 39 119.890625 C 37.636719 117.167969 36.441406 114.359375 35.492188 111.433594 C 33.636719 105.78125 28.398438 101.984375 22.457031 101.984375 L 18.660156 101.984375 C 15.9375 101.984375 13.75 99.757812 13.75 97.074219 L 13.75 87.710938 C 13.75 84.988281 15.980469 82.800781 18.660156 82.800781 L 22.457031 82.800781 C 28.398438 82.800781 33.636719 79.007812 35.492188 73.355469 C 36.441406 70.464844 37.636719 67.621094 39 64.898438 C 41.679688 59.574219 40.691406 53.179688 36.484375 48.929688 L 33.761719 46.207031 C 31.820312 44.269531 31.820312 41.175781 33.761719 39.238281 L 40.402344 32.59375 C 42.339844 30.65625 45.433594 30.65625 47.375 32.59375 L 50.097656 35.316406 C 54.304688 39.523438 60.738281 40.558594 66.0625 37.832031 C 68.785156 36.472656 71.589844 35.277344 74.519531 34.328125 C 80.171875 32.472656 83.964844 27.230469 83.964844 21.289062 L 83.964844 17.496094 C 83.964844 14.773438 86.195312 12.585938 88.875 12.585938 L 98.242188 12.585938 C 100.964844 12.585938 103.148438 14.8125 103.148438 17.496094 L 103.148438 21.289062 C 103.148438 27.230469 106.945312 32.472656 112.597656 34.328125 C 115.484375 35.277344 118.332031 36.472656 121.054688 37.832031 C 126.375 40.515625 132.769531 39.523438 137.019531 35.316406 L 139.742188 32.59375 C 141.640625 30.65625 144.777344 30.65625 146.714844 32.59375 L 153.355469 39.238281 C 155.296875 41.175781 155.296875 44.269531 153.355469 46.207031 L 150.632812 48.929688 C 146.425781 53.140625 145.394531 59.535156 148.117188 64.898438 C 149.476562 67.621094 150.675781 70.425781 151.625 73.355469 C 153.480469 79.007812 158.71875 82.800781 164.660156 82.800781 L 168.457031 82.800781 C 171.179688 82.800781 173.363281 85.027344 173.363281 87.710938 L 173.363281 97.035156 Z M 173.324219 97.035156 " fill-opacity="1" fill-rule="nonzero"/></g><path fill="#872341" d="M 93.496094 45.796875 C 67.835938 45.796875 46.921875 66.671875 46.921875 92.371094 C 46.921875 118.074219 67.835938 138.949219 93.496094 138.949219 C 119.15625 138.949219 140.074219 118.03125 140.074219 92.371094 C 140.074219 66.710938 119.15625 45.796875 93.496094 45.796875 Z M 93.496094 130.078125 C 72.703125 130.078125 55.789062 113.164062 55.789062 92.371094 C 55.789062 71.582031 72.703125 54.664062 93.496094 54.664062 C 114.289062 54.664062 131.203125 71.582031 131.203125 92.371094 C 131.203125 113.164062 114.289062 130.078125 93.496094 130.078125 Z M 93.496094 130.078125 " fill-opacity="1" fill-rule="nonzero"/></svg>