<svg xmlns="http://www.w3.org/2000/svg" xmlns:xlink="http://www.w3.org/1999/xlink" width="250" zoomAndPan="magnify" viewBox="0 0 187.5 187.499992" height="250" preserveAspectRatio="xMidYMid meet" version="1.0"><defs><clipPath id="7923f7605d"><path d="M 52 52 L 185.554688 52 L 185.554688 127 L 52 127 Z M 52 52 " clip-rule="nonzero"/></clipPath><clipPath id="97e9b8c156"><path d="M 1.542969 5.222656 L 124 5.222656 L 124 181.75 L 1.542969 181.75 Z M 1.542969 5.222656 " clip-rule="nonzero"/></clipPath></defs><g clip-path="url(#7923f7605d)"><path fill="#872341" d="M 185.070312 89.226562 C 185.070312 88.492188 184.824219 87.761719 184.582031 87.027344 C 184.335938 86.785156 184.09375 86.296875 183.847656 86.050781 C 183.605469 85.808594 183.605469 85.5625 183.359375 85.320312 L 152.347656 54.0625 C 150.148438 51.863281 146.730469 51.863281 144.53125 54.0625 C 142.335938 56.257812 142.335938 60.410156 144.53125 62.609375 L 166.265625 85.074219 L 58.089844 85.074219 C 55.15625 85.074219 52.472656 87.515625 52.472656 90.691406 C 52.472656 93.621094 54.914062 96.308594 58.089844 96.308594 L 166.265625 96.308594 L 144.53125 117.550781 C 142.335938 119.75 142.335938 122.925781 144.53125 125.121094 C 146.730469 127.320312 150.148438 127.074219 152.347656 124.878906 L 183.605469 93.621094 C 183.847656 93.375 184.09375 93.132812 184.09375 92.644531 C 184.335938 92.398438 184.582031 92.15625 184.582031 91.667969 C 185.070312 90.691406 185.070312 89.957031 185.070312 89.226562 Z M 185.070312 89.226562 " fill-opacity="1" fill-rule="nonzero"/></g><g clip-path="url(#97e9b8c156)"><path fill="#872341" d="M 112.300781 127.808594 L 112.300781 170.785156 L 12.914062 170.785156 L 12.914062 16.210938 L 112.300781 16.210938 L 112.300781 56.503906 L 123.289062 56.503906 L 123.289062 16.210938 C 123.289062 10.105469 118.648438 5.222656 113.03125 5.222656 L 12.179688 5.222656 C 6.5625 5.222656 1.921875 10.105469 1.921875 16.210938 L 1.921875 170.785156 C 1.921875 176.890625 6.5625 181.773438 12.179688 181.773438 L 113.03125 181.773438 C 118.648438 181.773438 123.289062 176.890625 123.289062 170.785156 L 123.289062 127.808594 Z M 112.300781 127.808594 " fill-opacity="1" fill-rule="nonzero"/></g></svg>