<svg xmlns="http://www.w3.org/2000/svg" xmlns:xlink="http://www.w3.org/1999/xlink" width="250" zoomAndPan="magnify" viewBox="0 0 187.5 187.499992" height="250" preserveAspectRatio="xMidYMid meet" version="1.0"><defs><clipPath id="5c45de3588"><path d="M 1.84375 86 L 185.105469 86 L 185.105469 103 L 1.84375 103 Z M 1.84375 86 " clip-rule="nonzero"/></clipPath><clipPath id="c65b3a50f2"><path d="M 1.84375 33.324219 L 185.105469 33.324219 L 185.105469 50 L 1.84375 50 Z M 1.84375 33.324219 " clip-rule="nonzero"/></clipPath><clipPath id="8639d7a376"><path d="M 1.867188 140 L 185.105469 140 L 185.105469 155.996094 L 1.867188 155.996094 Z M 1.867188 140 " clip-rule="nonzero"/></clipPath></defs><g clip-path="url(#5c45de3588)"><path fill="#ffffff" d="M 177.117188 102.742188 L 9.878906 102.742188 C 5.453125 102.742188 1.867188 99.160156 1.867188 94.734375 C 1.867188 90.308594 5.453125 86.722656 9.878906 86.722656 L 177.117188 86.722656 C 181.542969 86.722656 185.125 90.308594 185.125 94.734375 C 185.125 99.160156 181.542969 102.742188 177.117188 102.742188 " fill-opacity="1" fill-rule="nonzero"/></g><g clip-path="url(#c65b3a50f2)"><path fill="#ffffff" d="M 177.117188 49.34375 L 9.878906 49.34375 C 5.453125 49.34375 1.867188 45.757812 1.867188 41.335938 C 1.867188 36.910156 5.453125 33.324219 9.878906 33.324219 L 177.117188 33.324219 C 181.542969 33.324219 185.125 36.910156 185.125 41.335938 C 185.125 45.757812 181.542969 49.34375 177.117188 49.34375 " fill-opacity="1" fill-rule="nonzero"/></g><g clip-path="url(#8639d7a376)"><path fill="#ffffff" d="M 177.117188 156.144531 L 9.878906 156.144531 C 5.453125 156.144531 1.867188 152.558594 1.867188 148.132812 C 1.867188 143.710938 5.453125 140.125 9.878906 140.125 L 177.117188 140.125 C 181.542969 140.125 185.125 143.710938 185.125 148.132812 C 185.125 152.558594 181.542969 156.144531 177.117188 156.144531 " fill-opacity="1" fill-rule="nonzero"/></g></svg>