<svg xmlns="http://www.w3.org/2000/svg" xmlns:xlink="http://www.w3.org/1999/xlink" width="250" zoomAndPan="magnify" viewBox="0 0 187.5 187.499992" height="250" preserveAspectRatio="xMidYMid meet" version="1.0"><defs><clipPath id="2c0456331f"><path d="M 85 1.84375 L 102 1.84375 L 102 185.105469 L 85 185.105469 Z M 85 1.84375 " clip-rule="nonzero"/></clipPath><clipPath id="acf4ac3a9f"><path d="M 138 1.84375 L 154.902344 1.84375 L 154.902344 185.105469 L 138 185.105469 Z M 138 1.84375 " clip-rule="nonzero"/></clipPath><clipPath id="accae2247f"><path d="M 32.230469 1.867188 L 48.308594 1.867188 L 48.308594 185.105469 L 32.230469 185.105469 Z M 32.230469 1.867188 " clip-rule="nonzero"/></clipPath></defs><g clip-path="url(#2c0456331f)"><path fill="#ffffff" d="M 85.484375 177.117188 L 85.484375 9.878906 C 85.484375 5.453125 89.070312 1.867188 93.492188 1.867188 C 97.917969 1.867188 101.503906 5.453125 101.503906 9.878906 L 101.503906 177.117188 C 101.503906 181.542969 97.917969 185.125 93.492188 185.125 C 89.070312 185.125 85.484375 181.542969 85.484375 177.117188 " fill-opacity="1" fill-rule="nonzero"/></g><g clip-path="url(#acf4ac3a9f)"><path fill="#ffffff" d="M 138.882812 177.117188 L 138.882812 9.878906 C 138.882812 5.453125 142.46875 1.867188 146.894531 1.867188 C 151.316406 1.867188 154.902344 5.453125 154.902344 9.878906 L 154.902344 177.117188 C 154.902344 181.542969 151.316406 185.125 146.894531 185.125 C 142.46875 185.125 138.882812 181.542969 138.882812 177.117188 " fill-opacity="1" fill-rule="nonzero"/></g><g clip-path="url(#accae2247f)"><path fill="#ffffff" d="M 32.082031 177.117188 L 32.082031 9.878906 C 32.082031 5.453125 35.667969 1.867188 40.09375 1.867188 C 44.519531 1.867188 48.101562 5.453125 48.101562 9.878906 L 48.101562 177.117188 C 48.101562 181.542969 44.519531 185.125 40.09375 185.125 C 35.667969 185.125 32.082031 181.542969 32.082031 177.117188 " fill-opacity="1" fill-rule="nonzero"/></g></svg>