<svg xmlns="http://www.w3.org/2000/svg" xmlns:xlink="http://www.w3.org/1999/xlink" width="250" zoomAndPan="magnify" viewBox="0 0 187.5 187.499992" height="250" preserveAspectRatio="xMidYMid meet" version="1.0"><defs><clipPath id="c1408d57f5"><path d="M 8.390625 2 L 149 2 L 149 185 L 8.390625 185 Z M 8.390625 2 " clip-rule="nonzero"/></clipPath><clipPath id="144aac5f8d"><path d="M 165 2 L 178.9375 2 L 178.9375 185 L 165 185 Z M 165 2 " clip-rule="nonzero"/></clipPath></defs><g clip-path="url(#c1408d57f5)"><path fill="#36383e" d="M 145.476562 88.050781 L 18.570312 3.445312 C 18.078125 3.117188 17.550781 2.859375 16.988281 2.675781 C 16.425781 2.488281 15.847656 2.382812 15.257812 2.351562 C 14.664062 2.324219 14.078125 2.375 13.5 2.503906 C 12.921875 2.636719 12.371094 2.839844 11.851562 3.121094 C 11.328125 3.398438 10.851562 3.742188 10.421875 4.152344 C 9.992188 4.5625 9.625 5.019531 9.320312 5.527344 C 9.015625 6.035156 8.785156 6.578125 8.628906 7.148438 C 8.46875 7.71875 8.390625 8.300781 8.390625 8.894531 L 8.390625 178.101562 C 8.390625 178.695312 8.46875 179.277344 8.628906 179.847656 C 8.785156 180.417969 9.015625 180.960938 9.320312 181.46875 C 9.625 181.976562 9.992188 182.433594 10.421875 182.84375 C 10.851562 183.253906 11.328125 183.597656 11.851562 183.875 C 12.371094 184.15625 12.921875 184.359375 13.5 184.492188 C 14.078125 184.621094 14.664062 184.671875 15.257812 184.644531 C 15.847656 184.613281 16.425781 184.507812 16.988281 184.320312 C 17.550781 184.136719 18.078125 183.878906 18.570312 183.550781 L 145.476562 98.945312 C 145.699219 98.796875 145.914062 98.632812 146.117188 98.457031 C 146.320312 98.285156 146.511719 98.097656 146.691406 97.898438 C 146.871094 97.699219 147.039062 97.492188 147.195312 97.269531 C 147.347656 97.050781 147.488281 96.824219 147.617188 96.585938 C 147.742188 96.351562 147.855469 96.105469 147.953125 95.855469 C 148.046875 95.605469 148.128906 95.351562 148.195312 95.089844 C 148.257812 94.828125 148.308594 94.566406 148.339844 94.300781 C 148.375 94.035156 148.390625 93.765625 148.390625 93.5 C 148.390625 93.230469 148.375 92.960938 148.339844 92.695312 C 148.308594 92.429688 148.257812 92.167969 148.195312 91.90625 C 148.128906 91.644531 148.046875 91.390625 147.953125 91.140625 C 147.855469 90.890625 147.742188 90.644531 147.617188 90.410156 C 147.488281 90.171875 147.347656 89.945312 147.195312 89.726562 C 147.039062 89.503906 146.871094 89.296875 146.691406 89.097656 C 146.511719 88.898438 146.320312 88.710938 146.117188 88.539062 C 145.914062 88.363281 145.699219 88.199219 145.476562 88.050781 Z M 21.484375 165.875 L 21.484375 21.121094 L 130.046875 93.5 Z M 21.484375 165.875 " fill-opacity="1" fill-rule="nonzero"/></g><g clip-path="url(#144aac5f8d)"><path fill="#36383e" d="M 172.0625 2.347656 C 171.632812 2.347656 171.207031 2.386719 170.785156 2.472656 C 170.363281 2.554688 169.953125 2.679688 169.558594 2.84375 C 169.160156 3.007812 168.78125 3.210938 168.425781 3.449219 C 168.066406 3.6875 167.738281 3.960938 167.433594 4.265625 C 167.128906 4.566406 166.859375 4.898438 166.621094 5.257812 C 166.378906 5.613281 166.179688 5.992188 166.015625 6.386719 C 165.851562 6.785156 165.726562 7.195312 165.640625 7.617188 C 165.558594 8.039062 165.515625 8.464844 165.515625 8.894531 L 165.515625 178.101562 C 165.515625 178.53125 165.558594 178.957031 165.640625 179.378906 C 165.726562 179.800781 165.851562 180.210938 166.015625 180.609375 C 166.179688 181.003906 166.378906 181.382812 166.621094 181.738281 C 166.859375 182.097656 167.128906 182.429688 167.433594 182.730469 C 167.738281 183.035156 168.066406 183.308594 168.425781 183.546875 C 168.78125 183.785156 169.160156 183.988281 169.558594 184.152344 C 169.953125 184.316406 170.363281 184.441406 170.785156 184.523438 C 171.207031 184.609375 171.632812 184.648438 172.0625 184.648438 C 172.492188 184.648438 172.917969 184.609375 173.339844 184.523438 C 173.761719 184.441406 174.171875 184.316406 174.566406 184.152344 C 174.964844 183.988281 175.34375 183.785156 175.699219 183.546875 C 176.058594 183.308594 176.386719 183.035156 176.691406 182.730469 C 176.996094 182.429688 177.265625 182.097656 177.507812 181.738281 C 177.746094 181.382812 177.945312 181.003906 178.109375 180.609375 C 178.277344 180.210938 178.398438 179.800781 178.484375 179.378906 C 178.566406 178.957031 178.609375 178.53125 178.609375 178.101562 L 178.609375 8.894531 C 178.609375 8.464844 178.566406 8.039062 178.484375 7.617188 C 178.398438 7.195312 178.277344 6.785156 178.109375 6.386719 C 177.945312 5.992188 177.746094 5.613281 177.507812 5.257812 C 177.265625 4.898438 176.996094 4.566406 176.691406 4.265625 C 176.386719 3.960938 176.058594 3.6875 175.699219 3.449219 C 175.34375 3.210938 174.964844 3.007812 174.566406 2.84375 C 174.171875 2.679688 173.761719 2.554688 173.339844 2.472656 C 172.917969 2.386719 172.492188 2.347656 172.0625 2.347656 Z M 172.0625 2.347656 " fill-opacity="1" fill-rule="nonzero"/></g></svg>