<svg xmlns="http://www.w3.org/2000/svg" xmlns:xlink="http://www.w3.org/1999/xlink" width="250" zoomAndPan="magnify" viewBox="0 0 187.5 187.499992" height="250" preserveAspectRatio="xMidYMid meet" version="1.0"><defs><clipPath id="9bcab7689f"><path d="M 38 2 L 178.609375 2 L 178.609375 185 L 38 185 Z M 38 2 " clip-rule="nonzero"/></clipPath><clipPath id="65ecc9809a"><path d="M 8.0625 2 L 22 2 L 22 185 L 8.0625 185 Z M 8.0625 2 " clip-rule="nonzero"/></clipPath></defs><g clip-path="url(#9bcab7689f)"><path fill="#36383e" d="M 41.523438 98.945312 L 168.429688 183.550781 C 168.921875 183.878906 169.449219 184.136719 170.011719 184.320312 C 170.574219 184.507812 171.152344 184.613281 171.746094 184.644531 C 172.335938 184.671875 172.921875 184.621094 173.5 184.492188 C 174.078125 184.359375 174.628906 184.15625 175.152344 183.875 C 175.671875 183.597656 176.148438 183.253906 176.578125 182.84375 C 177.007812 182.433594 177.375 181.976562 177.679688 181.46875 C 177.984375 180.960938 178.214844 180.417969 178.371094 179.847656 C 178.53125 179.277344 178.609375 178.695312 178.609375 178.101562 L 178.609375 8.894531 C 178.609375 8.300781 178.53125 7.71875 178.371094 7.148438 C 178.214844 6.578125 177.984375 6.035156 177.679688 5.527344 C 177.375 5.019531 177.007812 4.5625 176.578125 4.152344 C 176.148438 3.742188 175.671875 3.398438 175.152344 3.121094 C 174.628906 2.839844 174.078125 2.636719 173.5 2.503906 C 172.921875 2.375 172.335938 2.324219 171.746094 2.351562 C 171.152344 2.382812 170.574219 2.488281 170.011719 2.675781 C 169.449219 2.859375 168.921875 3.117188 168.429688 3.445312 L 41.523438 88.050781 C 41.300781 88.199219 41.089844 88.363281 40.886719 88.539062 C 40.683594 88.710938 40.488281 88.898438 40.308594 89.097656 C 40.128906 89.296875 39.960938 89.503906 39.808594 89.726562 C 39.652344 89.945312 39.511719 90.171875 39.386719 90.410156 C 39.257812 90.644531 39.148438 90.890625 39.050781 91.140625 C 38.953125 91.390625 38.871094 91.644531 38.808594 91.90625 C 38.742188 92.167969 38.691406 92.429688 38.660156 92.695312 C 38.625 92.960938 38.609375 93.230469 38.609375 93.5 C 38.609375 93.765625 38.625 94.035156 38.660156 94.300781 C 38.691406 94.566406 38.742188 94.828125 38.808594 95.089844 C 38.871094 95.351562 38.953125 95.605469 39.050781 95.855469 C 39.148438 96.105469 39.257812 96.351562 39.386719 96.585938 C 39.511719 96.824219 39.652344 97.050781 39.808594 97.269531 C 39.960938 97.492188 40.128906 97.699219 40.308594 97.898438 C 40.488281 98.097656 40.683594 98.285156 40.886719 98.457031 C 41.089844 98.632812 41.300781 98.796875 41.523438 98.945312 Z M 165.515625 21.121094 L 165.515625 165.875 L 56.957031 93.5 Z M 165.515625 21.121094 " fill-opacity="1" fill-rule="nonzero"/></g><g clip-path="url(#65ecc9809a)"><path fill="#36383e" d="M 14.9375 184.648438 C 15.367188 184.648438 15.792969 184.609375 16.214844 184.523438 C 16.636719 184.441406 17.046875 184.316406 17.445312 184.152344 C 17.839844 183.988281 18.21875 183.785156 18.574219 183.546875 C 18.933594 183.308594 19.265625 183.035156 19.566406 182.730469 C 19.871094 182.429688 20.144531 182.097656 20.382812 181.738281 C 20.621094 181.382812 20.824219 181.003906 20.988281 180.609375 C 21.152344 180.210938 21.277344 179.800781 21.359375 179.378906 C 21.445312 178.957031 21.484375 178.53125 21.484375 178.101562 L 21.484375 8.894531 C 21.484375 8.464844 21.445312 8.039062 21.359375 7.617188 C 21.277344 7.195312 21.152344 6.785156 20.988281 6.386719 C 20.824219 5.992188 20.621094 5.613281 20.382812 5.257812 C 20.144531 4.898438 19.871094 4.566406 19.566406 4.265625 C 19.265625 3.960938 18.933594 3.6875 18.574219 3.449219 C 18.21875 3.210938 17.839844 3.007812 17.445312 2.84375 C 17.046875 2.679688 16.636719 2.554688 16.214844 2.472656 C 15.792969 2.386719 15.367188 2.347656 14.9375 2.347656 C 14.507812 2.347656 14.082031 2.386719 13.660156 2.472656 C 13.238281 2.554688 12.832031 2.679688 12.433594 2.84375 C 12.035156 3.007812 11.660156 3.210938 11.300781 3.449219 C 10.945312 3.6875 10.613281 3.960938 10.308594 4.265625 C 10.003906 4.566406 9.734375 4.898438 9.496094 5.257812 C 9.257812 5.613281 9.054688 5.992188 8.890625 6.386719 C 8.726562 6.785156 8.601562 7.195312 8.515625 7.617188 C 8.433594 8.039062 8.390625 8.464844 8.390625 8.894531 L 8.390625 178.101562 C 8.390625 178.53125 8.433594 178.957031 8.515625 179.378906 C 8.601562 179.800781 8.726562 180.210938 8.890625 180.609375 C 9.054688 181.003906 9.257812 181.382812 9.496094 181.738281 C 9.734375 182.097656 10.003906 182.429688 10.308594 182.730469 C 10.613281 183.035156 10.945312 183.308594 11.300781 183.546875 C 11.660156 183.785156 12.035156 183.988281 12.433594 184.152344 C 12.832031 184.316406 13.238281 184.441406 13.660156 184.523438 C 14.082031 184.609375 14.507812 184.648438 14.9375 184.648438 Z M 14.9375 184.648438 " fill-opacity="1" fill-rule="nonzero"/></g></svg>